<svg width="42" height="49" viewBox="0 0 42 49" fill="none" xmlns="http://www.w3.org/2000/svg">
<path d="M22.7132 8.75679L19.2315 8.75004C11.2895 8.73204 4.39484 14.8453 4.34022 22.25V30.7775C4.34022 32.555 4.10272 34.2898 3.07909 35.768L2.39747 36.7535C1.35959 38.2475 2.47584 40.25 4.34022 40.25H37.6615C39.5258 40.25 40.6397 38.2475 39.6042 36.7535L38.9226 35.768C37.9013 34.2898 37.6615 32.5528 37.6615 30.7753V22.2523C37.5665 14.8453 30.6552 8.77479 22.7132 8.75679V8.75679Z" stroke="#68626C" stroke-width="3" stroke-linecap="round" stroke-linejoin="round"/>
<path d="M28.1257 40.25C28.1257 42.0402 27.3751 43.7571 26.0389 45.023C24.7027 46.2888 22.8904 47 21.0007 47C19.1111 47 17.2988 46.2888 15.9626 45.023C14.6264 43.7571 13.8757 42.0402 13.8757 40.25" stroke="#68626C" stroke-width="3" stroke-linecap="round" stroke-linejoin="round"/>
<path d="M21.0007 2C22.2605 2 23.4687 2.47411 24.3595 3.31802C25.2503 4.16193 25.7507 5.30653 25.7507 6.5V8.75H16.2507V6.5C16.2507 5.30653 16.7512 4.16193 17.642 3.31802C18.5328 2.47411 19.741 2 21.0007 2Z" stroke="#68626C" stroke-width="3" stroke-linecap="round" stroke-linejoin="round"/>
</svg>
