<?xml version="1.0" encoding="utf-8"?>
<!-- Generator: Adobe Illustrator 23.0.6, SVG Export Plug-In . SVG Version: 6.00 Build 0)  -->
<svg version="1.1" id="Calque_1" xmlns="http://www.w3.org/2000/svg" xmlns:xlink="http://www.w3.org/1999/xlink" x="0px" y="0px"
	 viewBox="0 0 1000 230" style="enable-background:new 0 0 1000 230;" xml:space="preserve">
<style type="text/css">
	.st0{fill:#6AAEBE;}
	.st1{fill:#F396A1;}
</style>
<title>mantaStudio_logoReponzi</title>
<path class="st0" d="M0.4,229.4c5.5-27.1,10.8-53.5,15.9-79.4c1.8-11,3.9-22.5,6.1-34.4s4.3-23.7,6.3-35.4c1.9-11.7,3.8-23,5.5-33.9
	s3.1-20.8,4.1-29.8c12.3-3.8,24.8-6.5,37.6-8.1c13.3-1.7,26.6-2.6,40-2.6c7.9,0,14.5,0.9,19.7,2.7c4.7,1.5,8.9,4.2,12.2,7.8
	c3,3.4,5.1,7.4,6.3,11.8c1.3,4.9,1.9,9.9,1.8,15c0,8.2-1.4,16.3-4.3,24c-2.9,7.9-6.7,15.4-11.5,22.3c-4.8,7-10.3,13.5-16.5,19.2
	c-6,5.6-12.7,10.4-20,14.2c3.7,8.1,7.6,17,11.8,26.7c4.2,9.7,8.1,18.9,11.8,27.6c4.1,10.2,8.2,20.4,12.5,30.5l-47.3,16.4
	c-4.1-13-7.7-25.2-11-36.7c-1.4-4.7-2.9-9.5-4.3-14.5c-1.4-5-2.8-9.7-4-14.2c-1.2-4.5-2.2-8.5-3.1-12.1c-0.7-2.9-1.2-5.8-1.5-8.7
	l-4,1.2c-1.2,6.5-2.7,14.2-4.4,22.9s-3.3,17.2-4.7,25.4c-1.8,9.6-3.7,19.2-5.5,29L0.4,229.4z M72.2,96.8c3.9-0.4,8.6-2,14.2-4.9
	c5.6-2.9,11-6.3,16-10.2c4.8-3.7,9.2-7.8,13.1-12.4c3.7-4.3,5.5-8,5.5-11.3c0.1-2-0.7-4-2.1-5.3c-1.7-1.5-3.8-2.5-6-3
	c-2.7-0.7-5.6-1.2-8.4-1.4c-3-0.2-6.2-0.3-9.5-0.3c-2.2,0-4.5,0.1-6.9,0.2c-2.3,0.1-4.4,0.2-6.3,0.2L72.2,96.8z"/>
<path class="st0" d="M160.2,229.4l40-217.1L296.7,4c-1.4,4.5-2.6,9.1-3.7,13.7c-1,3.9-2,7.9-2.9,12.1s-1.7,7.9-2.3,11.1
	c-2,0.2-4.9,0.3-8.7,0.5c-3.8,0.1-7.8,0.2-12.1,0.3c-4.3,0.1-8.6,0.2-13,0.2h-11.4l-10.7,54.6c6.3-0.4,12.2-0.7,17.7-0.9
	c4.5-0.2,9.1-0.3,13.7-0.3s8.1-0.1,10.4-0.3c-0.8,5.7-1.6,11.3-2.3,16.8c-0.7,5.5-1.6,11.1-2.6,16.8c-2,0.2-5.3,0.4-9.9,0.5
	s-9.2,0.3-13.9,0.5c-5.3,0.2-11.1,0.4-17.4,0.6l-10.4,56.2l44.6-7l-3.1,34.8L160.2,229.4z"/>
<path class="st0" d="M283.9,229.4c6.1-27.5,11.9-54.4,17.4-80.6c2.2-11,4.6-22.6,7-34.8c2.4-12.2,4.8-24.2,7-36
	c2.2-11.8,4.4-23.2,6.4-34.2s3.8-21.1,5.2-30.2c5.9-1.8,11.7-3.4,17.4-4.7s11.6-2.5,17.6-3.5c5.6-1,11.3-1.5,17-1.5
	c9.2,0,16.8,1.5,23.1,4.6c6,2.8,11.2,7.1,15.1,12.3c4,5.4,6.8,11.6,8.2,18.2c1.7,7.3,2.5,14.8,2.4,22.3c0,11.3-2.1,22.5-6.3,33
	c-4,10.3-9.7,19.8-16.8,28.3c-6.7,8-14.9,14.7-24.1,19.7c-8.7,4.8-18.4,7.3-28.3,7.3h-3.4c-1.6,6.9-3.2,14.5-4.6,22.6
	s-2.6,15.7-3.7,22.6c-1.4,8.1-2.8,16.3-4,24.4L283.9,229.4z M362.4,78.8c-2.2,12-4.7,24.8-7.3,38.5c3.8-1.1,7.3-3,10.2-5.7
	c3.9-3.3,7.2-7.3,9.9-11.6c3.2-5.2,5.7-10.8,7.3-16.6c1.9-6.5,2.8-13.1,2.8-19.8c0-7.5-1.7-13.2-5-17.1s-7.1-5.8-11.1-5.8
	C366.8,54.1,364.6,66.8,362.4,78.8z"/>
<path class="st0" d="M589.1,111c-3.3,14-8.1,27.6-14.2,40.6c-5.6,11.8-12.5,22.8-20.6,33c-7.3,9.1-15.5,17.4-24.6,24.7
	c-7.9,6.4-16.6,11.7-26,15.6c-7.9,3.4-16.4,5.2-25,5.3c-6.3,0.1-12.6-1.2-18.3-3.8c-5.6-2.6-10.5-6.5-14.4-11.3
	c-4.1-5-7.3-11.4-9.6-19.2c-2.3-7.8-3.5-17.3-3.5-28.3c0.1-12.1,1.5-24.2,4.3-36c2.9-12.8,6.8-25.4,11.6-37.6
	c4.8-12.4,10.9-24.2,18-35.4c6.8-10.7,14.6-20.7,23.5-29.8c8-8.3,17.3-15.2,27.5-20.7c9.4-5,19.9-7.6,30.5-7.6
	c9.2,0,16.8,1.9,22.8,5.7c5.8,3.6,10.7,8.7,14,14.7c3.5,6.3,5.9,13.2,7.2,20.3c1.4,7.5,2.1,15,2.1,22.6
	C594.5,79.7,592.7,95.5,589.1,111z M479.6,166.8c0.7,2.3,1.9,4.5,3.4,6.4c1.5,1.9,3.3,3.5,5.4,4.7c2.1,1.3,4.4,2,6.9,2
	c9,0,17.8-3.3,24.4-9.5c7.3-6.6,13.3-14.4,17.7-23.2c4.7-9.3,8.4-19.2,10.8-29.3c2.4-9.3,3.7-18.8,3.8-28.4c0-2.7-0.2-5.3-0.5-7.9
	c-0.3-2.7-0.9-5.4-1.8-8c-0.9-2.4-2.4-4.6-4.3-6.3c-2.2-1.8-5-2.7-7.8-2.6c-6.3,0-12.6,1.6-18,4.9c-5.7,3.4-10.7,7.8-14.8,13
	c-4.5,5.6-8.4,11.8-11.5,18.3c-3.2,6.7-6,13.7-8.4,20.8c-2.3,6.7-3.9,13.6-5,20.6c-0.9,5.8-1.4,11.6-1.5,17.4
	C478.5,162.1,478.9,164.5,479.6,166.8z"/>
<path class="st0" d="M598.4,230.6c6.1-29.3,11.9-57.7,17.4-85.2c2-11.8,4.2-24,6.6-36.7c2.4-12.6,4.6-25.1,6.6-37.4
	c2-12.3,3.8-24.1,5.5-35.4s2.9-21.5,3.7-30.7c2.7,0.2,4.9,0.3,6.7,0.3h6.4c2.9,0,6.3-0.1,10.4-0.2s8.1-0.3,12.2-0.4
	c4.1-0.2,8.4-0.4,13.1-0.6c2.9,14.3,5.4,28,7.6,41.2c2.2,11.6,4.5,23.5,6.9,35.7s4.4,22.6,6.3,31.2c0.8-4.1,1.7-8.8,2.8-14.2
	s2.1-11.1,3.4-17c1.2-5.9,2.4-11.9,3.5-17.9s2.3-12,3.5-17.9c2.8-13.2,5.8-26.9,8.9-40.9L767,0c-6.9,31.1-13,60.7-18.3,88.6
	c-2.4,12-4.8,24.2-7.2,36.5s-4.5,24.1-6.5,35.4c-2,11.3-3.8,21.8-5.2,31.4c-1.4,9.6-2.5,17.7-3.4,24.3c-2.4,0.3-4.8,0.8-7.2,1.4
	c-4.2,0.9-9,2-14.3,3.2l-16.2,3.7c-4.1,0.8-8.1,2-12.1,3.4c-1.2-16.3-2.6-31.8-4-46.4c-0.6-6.3-1.3-12.8-2-19.4
	c-0.7-6.6-1.5-13-2.3-19.1c-0.8-6.1-1.6-11.8-2.4-17.1c-0.8-5.3-1.6-9.9-2.5-13.7c-0.6,3.9-1.4,8.3-2.4,13.4c-1,5.1-2,10.5-3.1,16.2
	c-1,5.7-2,11.7-3,17.9c-1,6.2-2.1,12.2-3.4,17.9c-2.7,13.6-5.5,27.9-8.5,42.8L598.4,230.6z"/>
<path class="st1" d="M877.9,217.1c-5.9,0.2-12.9,0.5-20.9,0.9c-8,0.4-16.7,0.9-26.1,1.5c-9.4,0.6-18.5,1.3-27.5,2
	c-9,0.7-17.3,1.5-24.9,2.3c-7.6,0.8-13.7,1.6-18.2,2.4l0.3-44.6l86.7-118.2c-4.9,0.1-9.8,0.5-14.7,1.1c-6.3,0.7-12.7,1.5-19.1,2.3
	c-6.4,0.8-12,1.6-16.6,2.5l-7.3,0.6l5.8-47.9l124.9-8.9l-7.9,42.1L829,173.8c4.1,0,9.5-0.2,16.3-0.6c6.8-0.4,13.9-0.8,21.2-1.2
	c7.3-0.4,15.3-0.9,23.8-1.5l-0.9,46.4C887.7,216.8,883.8,217,877.9,217.1z"/>
<path class="st1" d="M953.5,223.7c-5.4,0.5-10.9,1.1-16.6,1.8c-5.7,0.7-10.8,1.4-15.4,2c-2.5,0.2-5,0.7-7.5,1.2
	c2-8.7,4.1-18.5,6.3-29.2c2.2-10.7,4.4-21.9,6.6-33.6c2.2-11.7,4.4-23.6,6.4-35.6s4-23.6,5.8-34.8c4.3-26.1,8.5-52.8,12.8-80.3
	l47.7-7.6c-4.7,27.3-9.3,54.1-13.8,80.3c-1.8,11.2-3.7,22.8-5.7,34.8s-3.9,23.9-5.8,35.7c-1.9,11.8-3.7,23.3-5.3,34.4
	c-1.6,11.1-3.2,21.1-4.6,30.1C962.5,223,958.9,223.2,953.5,223.7z"/>
</svg>
