<svg width="80" height="80" viewBox="0 0 80 80" fill="none" xmlns="http://www.w3.org/2000/svg">
<path d="M22.5 17.5C14.25 17.5 7.5 24.25 7.5 32.5C7.5 37.46 9.9425 41.875 13.6725 44.61C7.08 47.88 2.5 54.66 2.5 62.5H7.5C7.5 54.19 14.19 47.5 22.5 47.5C30.81 47.5 37.5 54.19 37.5 62.5H42.5C42.5 54.19 49.19 47.5 57.5 47.5C65.81 47.5 72.5 54.19 72.5 62.5H77.5C77.5 54.6575 72.92 47.88 66.3275 44.61C68.2363 43.2191 69.79 41.3976 70.8625 39.2934C71.935 37.1893 72.496 34.8617 72.5 32.5C72.5 24.25 65.75 17.5 57.5 17.5C49.25 17.5 42.5 24.25 42.5 32.5C42.5 37.46 44.9425 41.875 48.6725 44.61C45.0198 46.4059 41.9964 49.2654 40 52.8125C38.0036 49.2654 34.9802 46.4059 31.3275 44.61C33.2363 43.2191 34.79 41.3976 35.8625 39.2934C36.935 37.1893 37.4961 34.8617 37.5 32.5C37.5 24.25 30.75 17.5 22.5 17.5ZM22.5 22.5C28.0575 22.5 32.5 26.9425 32.5 32.5C32.5 38.0575 28.0575 42.5 22.5 42.5C16.9425 42.5 12.5 38.0575 12.5 32.5C12.5 26.9425 16.9425 22.5 22.5 22.5ZM57.5 22.5C63.0575 22.5 67.5 26.9425 67.5 32.5C67.5 38.0575 63.0575 42.5 57.5 42.5C51.9425 42.5 47.5 38.0575 47.5 32.5C47.5 26.9425 51.9425 22.5 57.5 22.5Z" fill="#68626C"/>
</svg>
