<svg width="80" height="80" viewBox="0 0 80 80" fill="none" xmlns="http://www.w3.org/2000/svg">
<path d="M18.775 65C17.5592 65.0021 16.3486 64.8424 15.175 64.525C11.6522 63.5204 8.66355 61.1751 6.85013 57.9923C5.03671 54.8094 4.54301 51.0426 5.47496 47.5L11.3 25.4C11.7536 23.6114 12.5601 21.9315 13.672 20.459C14.7839 18.9864 16.1789 17.7509 17.775 16.825C19.329 15.9249 21.0463 15.342 22.8272 15.1103C24.6081 14.8786 26.4173 15.0025 28.15 15.475C29.9918 15.9864 31.7073 16.875 33.1877 18.0843C34.6682 19.2936 35.8812 20.7973 36.75 22.5H43.25C44.115 20.7945 45.3268 19.2886 46.8078 18.0789C48.2888 16.8691 50.0062 15.9822 51.85 15.475C53.5826 15.0025 55.3918 14.8786 57.1727 15.1103C58.9537 15.342 60.6709 15.9249 62.225 16.825C63.8133 17.7485 65.2031 18.9773 66.3144 20.4404C67.4257 21.9035 68.2365 23.5721 68.7 25.35L74.525 47.5C75.4708 51.053 74.9811 54.8354 73.1614 58.0303C71.3418 61.2252 68.3384 63.576 64.8 64.575C63.0673 65.0474 61.2581 65.1714 59.4772 64.9397C57.6963 64.7079 55.979 64.1251 54.425 63.225C52.834 62.3047 51.4422 61.077 50.3305 59.6134C49.2188 58.1498 48.4096 56.4795 47.95 54.7L47.5 52.5H32.5L31.925 54.65C31.4653 56.4295 30.6561 58.0998 29.5444 59.5634C28.4328 61.027 27.0409 62.2547 25.45 63.175C23.4187 64.3466 21.1198 64.9751 18.775 65ZM24.575 20C23.0663 20.0051 21.5848 20.4013 20.275 21.15C18.2221 22.3544 16.7299 24.323 16.125 26.625L10.3 48.725C9.69043 51.0018 9.99843 53.4269 11.1578 55.4792C12.3171 57.5314 14.2352 59.0469 16.5 59.7C17.5937 59.9983 18.7358 60.0768 19.8601 59.9309C20.9844 59.785 22.0686 59.4176 23.05 58.85C24.0717 58.2601 24.9652 57.4718 25.6779 56.5316C26.3906 55.5914 26.9081 54.5181 27.2 53.375L28.75 47.5H51.25L52.775 53.375C53.072 54.5159 53.5915 55.587 54.3037 56.5265C55.0159 57.4661 55.9067 58.2557 56.925 58.85C57.9112 59.4171 58.9996 59.784 60.1278 59.9299C61.256 60.0758 62.402 59.9976 63.5 59.7C65.7674 59.053 67.6879 57.5372 68.8442 55.4822C70.0004 53.4272 70.299 50.9989 69.675 48.725L63.85 26.625C63.5597 25.4845 63.0456 24.4131 62.3374 23.4731C61.6292 22.5332 60.7412 21.7435 59.725 21.15C58.7388 20.5829 57.6504 20.2159 56.5221 20.0701C55.3939 19.9242 54.248 20.0023 53.15 20.3C51.7921 20.6871 50.5462 21.3925 49.5157 22.3578C48.4852 23.3231 47.6999 24.5203 47.225 25.85L46.625 27.5H33.375L32.775 25.85C32.2958 24.5185 31.5061 23.3204 30.4713 22.3552C29.4366 21.39 28.1865 20.6854 26.825 20.3C26.0913 20.1021 25.3349 20.0013 24.575 20Z" fill="#68626C"/>
<path d="M25 40C24.0111 40 23.0444 39.7068 22.2222 39.1573C21.3999 38.6079 20.759 37.827 20.3806 36.9134C20.0022 35.9998 19.9031 34.9945 20.0961 34.0246C20.289 33.0546 20.7652 32.1637 21.4645 31.4645C22.1637 30.7652 23.0546 30.289 24.0246 30.0961C24.9945 29.9031 25.9998 30.0022 26.9134 30.3806C27.827 30.759 28.6079 31.3999 29.1574 32.2222C29.7068 33.0444 30 34.0111 30 35C30 36.3261 29.4732 37.5979 28.5355 38.5355C27.5979 39.4732 26.3261 40 25 40Z" fill="#68626C"/>
<path d="M55 32.5C56.3807 32.5 57.5 31.3807 57.5 30C57.5 28.6193 56.3807 27.5 55 27.5C53.6193 27.5 52.5 28.6193 52.5 30C52.5 31.3807 53.6193 32.5 55 32.5Z" fill="#68626C"/>
<path d="M55 42.5C56.3807 42.5 57.5 41.3807 57.5 40C57.5 38.6193 56.3807 37.5 55 37.5C53.6193 37.5 52.5 38.6193 52.5 40C52.5 41.3807 53.6193 42.5 55 42.5Z" fill="#68626C"/>
<path d="M50 37.5C51.3807 37.5 52.5 36.3807 52.5 35C52.5 33.6193 51.3807 32.5 50 32.5C48.6193 32.5 47.5 33.6193 47.5 35C47.5 36.3807 48.6193 37.5 50 37.5Z" fill="#68626C"/>
<path d="M60 37.5C61.3807 37.5 62.5 36.3807 62.5 35C62.5 33.6193 61.3807 32.5 60 32.5C58.6193 32.5 57.5 33.6193 57.5 35C57.5 36.3807 58.6193 37.5 60 37.5Z" fill="#68626C"/>
</svg>
