<svg width="70" height="70" viewBox="0 0 70 70" fill="none" xmlns="http://www.w3.org/2000/svg">
<g clip-path="url(#clip0)">
<path d="M35.7847 26.3739C35.0187 26.0566 34.1363 26.232 33.5498 26.8185L29.4482 30.92C28.6473 31.7209 28.6473 33.0194 29.4482 33.8203C30.249 34.6212 31.5475 34.6212 32.3484 33.8203L32.9492 33.2197V40.5732C32.9492 41.7056 33.8674 42.6238 34.9999 42.6238C36.1325 42.6238 37.0507 41.7056 37.0507 40.5731V28.2685C37.0507 27.4391 36.5511 26.6912 35.7847 26.3739Z" fill="#68626C"/>
<path d="M68.4794 32.9388C66.5592 32.4243 64.5778 32.4778 62.7284 33.0677C66.8053 30.9029 69.0795 26.1174 67.8064 21.3659L66.7447 17.404C66.4515 16.31 65.3264 15.6606 64.2331 15.954C62.313 16.4685 60.6236 17.5055 59.317 18.9412C61.7708 15.0195 61.3353 9.73932 57.8638 6.26804L54.9636 3.36783C54.579 2.98324 54.0574 2.76709 53.5135 2.76709C52.9697 2.76709 52.448 2.98324 52.0635 3.36783C50.1268 5.30458 49.0601 7.87954 49.0601 10.6183C49.0601 11.1094 49.0958 11.595 49.1632 12.073C46.078 11.6359 42.8305 12.6007 40.4625 14.9687C39.6623 15.7689 39.6616 17.0681 40.4625 17.869L43.3629 20.7692C44.4413 21.8477 45.7028 22.6324 47.0477 23.1291L47.9975 26.674C48.3923 28.1472 49.0919 29.4586 50.0085 30.5613L49.059 34.1047C48.6643 35.5779 48.6155 37.0631 48.8579 38.4759L46.263 41.0707C43.0648 44.2687 42.4642 48.9767 44.247 52.7229C43.2565 53.1874 42.2313 53.5889 41.1844 53.9146C38.9161 54.62 36.8049 55.4818 34.8315 56.5057C32.815 55.5086 30.6327 54.643 28.2908 53.9146C27.3851 53.6329 26.5148 53.291 25.6689 52.8884C27.5589 49.0973 26.9722 44.3065 23.7364 41.0708L21.1415 38.476C21.3839 37.0631 21.3351 35.5779 20.9404 34.1049L19.9908 30.5613C20.9074 29.4588 21.6071 28.1474 22.002 26.6741L22.9518 23.1293C24.2967 22.6326 25.5582 21.8478 26.6366 20.7694L29.5368 17.8692C30.3377 17.0683 30.3377 15.7698 29.5368 14.9689C27.6002 13.0322 25.0254 11.9656 22.2865 11.9656C21.797 11.9656 21.3132 12.0012 20.8369 12.0682C20.9039 11.5919 20.9394 11.108 20.9394 10.6186C20.9394 7.87968 19.8727 5.30486 17.936 3.3681C17.1358 2.56775 15.8364 2.56734 15.0358 3.3681L12.136 6.26818C8.66523 9.73878 8.22855 15.0188 10.6828 18.9413C9.37603 17.5056 7.68673 16.4686 5.76666 15.9541C4.67414 15.661 3.54813 16.3102 3.255 17.4042L2.19338 21.3659C0.923131 26.1067 3.18486 30.8977 7.27111 33.0676C5.42172 32.4778 3.44053 32.4243 1.52032 32.9389C0.426296 33.2321 -0.222844 34.3566 0.0702807 35.4506L1.1319 39.4124C2.3934 44.1199 6.74748 47.1798 11.4191 47.0056C9.55499 47.4058 7.78107 48.3258 6.33568 49.7713C5.53547 50.5715 5.53478 51.8708 6.33568 52.6717L9.23602 55.5719C13.0752 59.4112 19.0996 59.5265 23.0801 56.1719C24.3641 56.8485 25.6915 57.4016 27.0731 57.8313C28.3032 58.2138 29.4791 58.6387 30.6061 59.1003C29.1183 60.1712 27.719 61.3605 26.4016 62.6778L25.3469 63.7323C24.5462 64.5332 24.5463 65.8318 25.3471 66.6325C26.1477 67.4332 27.4461 67.4336 28.2474 66.6325L29.3018 65.578C31.0195 63.8603 32.8573 62.4077 34.8746 61.176C37.0947 62.4524 39.0423 63.9217 40.6985 65.578L41.7529 66.6325C42.5541 67.4336 43.8526 67.4333 44.6532 66.6325C45.454 65.8318 45.4541 64.5332 44.6534 63.7323L43.5987 62.6777C42.2667 61.3458 40.7763 60.1247 39.1407 59.0125C40.1806 58.5797 41.2641 58.1854 42.4031 57.8311C43.9069 57.3634 45.3754 56.7615 46.7781 56.0491C50.8032 59.5675 56.9173 59.419 60.7643 55.5719L63.6646 52.6717C64.0492 52.2871 64.2654 51.7655 64.2654 51.2215C64.2654 50.6775 64.0493 50.156 63.6646 49.7713C62.2191 48.3258 60.4452 47.4058 58.5812 47.0056C63.2613 47.1804 67.6094 44.1106 68.8683 39.4124L69.9299 35.4506C70.2226 34.3564 69.5734 33.2319 68.4794 32.9388ZM6.15521 22.4275L6.59585 20.7832C8.64403 22.1864 9.76171 24.8149 9.05528 27.4507L8.61464 29.095C6.56728 27.6924 5.44865 25.0641 6.15521 22.4275ZM5.09373 38.3507L4.65308 36.7064C7.12646 36.8976 9.41007 38.613 10.1168 41.2509L10.5566 42.8923C8.03208 42.6923 5.78552 40.9329 5.09373 38.3507ZM18.464 17.399C20.327 15.9191 22.8558 15.675 24.9383 16.6673L23.7367 17.869C21.924 19.6814 19.2531 20.1235 17.0206 19.197C17.4685 18.5769 17.9499 17.9769 18.464 17.399ZM15.036 9.16839L16.2398 7.96472C17.3121 10.2047 16.9657 13.039 15.036 14.9687L13.8322 16.1723C12.7601 13.9326 13.1065 11.098 15.036 9.16839ZM13.2231 27.8835C14.0871 25.6473 16.1662 24.1537 18.4801 23.9706L18.0403 25.6121C17.3769 28.0876 15.2853 29.8056 12.8893 30.1198C12.9635 29.3657 13.0754 28.6196 13.2231 27.8835ZM14.7651 41.6506C14.4576 40.9699 14.1844 40.2744 13.9468 39.5658C13.5658 37.189 14.62 34.8445 16.5391 33.5245L16.9789 35.166C17.6431 37.6444 16.6877 40.1815 14.7651 41.6506ZM12.136 52.6712L10.9342 51.4696C13.221 50.3803 16.046 50.7808 17.9364 52.6712L19.1401 53.8751C16.9002 54.9472 14.0652 54.6006 12.136 52.6712ZM22.1442 50.7363C21.5593 50.2948 20.9811 49.8156 20.4067 49.2939C19.5181 48.2014 19.0344 46.8483 19.0344 45.4205C19.0344 44.4867 19.2411 43.5848 19.6326 42.7667L20.8365 43.9703C22.6625 45.7966 23.0981 48.4942 22.1442 50.7363ZM57.1103 30.1199C54.7145 29.8055 52.6225 28.0875 51.9593 25.6122L51.5194 23.9708C53.8333 24.154 55.9125 25.6476 56.7765 27.8836C56.9243 28.6196 57.0361 29.3658 57.1103 30.1199ZM56.0531 39.566C55.8155 40.2746 55.5422 40.9702 55.2347 41.6508C53.312 40.1815 52.3568 37.6445 53.0208 35.1661L53.4606 33.5246C55.3799 34.8445 56.434 37.1891 56.0531 39.566ZM53.76 7.96472L54.9638 9.16852C56.8931 11.0978 57.2401 13.9322 56.1677 16.1725L54.9638 14.9687C53.0345 13.0396 52.6876 10.205 53.76 7.96472ZM46.2632 17.8689L45.0594 16.6652C47.0972 15.6897 49.6358 15.8854 51.5378 17.4012C52.0512 17.9784 52.5319 18.5776 52.9792 19.1968C50.7472 20.1234 48.0756 19.6815 46.2632 17.8689ZM47.8219 50.6536C46.9132 48.4279 47.3596 45.7743 49.1633 43.9706L50.3671 42.7669C51.3306 44.7799 51.1602 47.3091 49.6475 49.2243C49.0731 49.7274 48.4615 50.2039 47.8219 50.6536ZM59.0655 51.4695L57.8638 52.6712C55.9354 54.5997 53.1008 54.9478 50.8598 53.8749L52.0635 52.6712C53.954 50.7806 56.7791 50.38 59.0655 51.4695ZM63.404 20.7833L63.8447 22.4276C64.5511 25.064 63.4329 27.6922 61.3852 29.0952C61.2292 28.5131 61.2999 28.7767 60.9446 27.4508C60.2382 24.8149 61.3559 22.1866 63.404 20.7833ZM64.906 38.3507C64.2141 40.9331 61.9679 42.6926 59.4432 42.8922L59.883 41.2507C60.5889 38.6158 62.8706 36.8974 65.3467 36.7062L64.906 38.3507Z" fill="#68626C"/>
</g>
<defs>
<clipPath id="clip0">
<rect width="70" height="70" fill="white"/>
</clipPath>
</defs>
</svg>
