<svg xmlns="http://www.w3.org/2000/svg" viewBox="0 0 184 184"><defs><style>.cls-1{fill:#f9cdd2;}.cls-2{fill:#5b393d;}.cls-3{fill:#bc7c83;}.cls-4{fill:#cc9ca1;}</style></defs><g id="Calque_5" data-name="Calque 5"><rect class="cls-1" width="184" height="184"/></g><g id="dessin"><path class="cls-2" d="M142.94,105.32c0-10.76-10.25-19.65-23.6-21.18C117.28,73.87,105.84,66,92,66S66.72,73.87,64.66,84.14c-13.35,1.53-23.6,10.42-23.6,21.18,0,9.93,8.72,18.26,20.55,20.7v20.41h0V153c20.31-5,40.57-5.67,60.74,0v-6.57h0V126C134.22,123.58,142.94,115.25,142.94,105.32Z"/><path class="cls-3" d="M61.36,72c-2.76-1.08-7.26,4.42-8.28,5.73s-5.75,6.64-4.21,9.15c1.76,2.85,11.62,12.5,17,14.28s13,2.62,16.25,5.34S122,141.28,122,141.28s9.36,8.52,13,5.1c2.72-4.13-7.28-11.87-7.28-11.87S89.71,104,86.47,101.3s-5.39-10-8.08-15.07S64.47,73.18,61.36,72Zm7.09,21.4a.92.92,0,0,1,.12,1.29l-.17.21a.93.93,0,0,1-1.31.12L58,87.31a.93.93,0,0,1-.1-1.31l.17-.2a.91.91,0,0,1,1.29-.11Zm2.75-1.84a1.06,1.06,0,1,1-1.36,1.62L57.68,82.92a1.05,1.05,0,0,1-.13-1.49A1.07,1.07,0,0,1,59,81.3Zm1.33-3a.93.93,0,0,1,.12,1.3l-.17.2a.93.93,0,0,1-1.31.12L62,82.44a.92.92,0,0,1-.1-1.3l.17-.21a.92.92,0,0,1,1.29-.11Z"/><path class="cls-4" d="M134.2,89.86c.91-3.93-.33-8-3.69-12h0c-3.35-4-7.1-5.92-11.13-5.71-11.12.59-22.15,16.95-30.2,28.9-2.38,3.54-4.49,6.66-6.18,8.72-.08-.14-.12-.23-.12-.23l-33.36,28a16,16,0,0,0,3.26,5.16,16.17,16.17,0,0,0,4.51,4.11L89.4,119.89l.06.09c2.19-1.47,6.3-3.29,11.05-5.4C113.67,108.73,131.7,100.71,134.2,89.86Zm-.78-.18c-2.09,9-15.72,16.2-27.78,21.71,8.06-3.83,16.41-8.51,20.18-14.17,3.82-3.32,6.56-6.83,7.29-10.47a9.16,9.16,0,0,0,.19-2.14A10.5,10.5,0,0,1,133.42,89.68ZM131,82.52a8.76,8.76,0,0,1-.92,2.62,11.49,11.49,0,0,0-1.62-3.43,13,13,0,0,0,2-2.5A4.81,4.81,0,0,1,131,82.52Zm-3.44,10.87a10.54,10.54,0,0,0,.84-2.42,9.11,9.11,0,0,0,.2-2.2c.36-.44.68-.87,1-1.31a8.54,8.54,0,0,1-.17,1.88,12.21,12.21,0,0,1-1.91,4.24A1.05,1.05,0,0,0,127.58,93.39Zm.93-5.79a10.91,10.91,0,0,0-1.71-4.19c.4-.39.77-.75,1.11-1.1a10.19,10.19,0,0,1,1.59,3.86A16.78,16.78,0,0,1,128.51,87.6Zm-2.15-4.83c-.21-.28-.42-.57-.65-.84s-.48-.54-.72-.8c.44-.33.86-.63,1.26-.91.22.23.43.46.65.71s.39.5.57.75ZM128,81.1c-.17-.23-.34-.46-.53-.69s-.39-.43-.59-.65c1.53-1,2.58-1.54,3-1.36h0C130,78.82,129.31,79.77,128,81.1Zm1.16-3.37a13.67,13.67,0,0,0-2.79,1.5,11.65,11.65,0,0,0-3.11-2.18,8.74,8.74,0,0,1,2.74-.46A4.85,4.85,0,0,1,129.2,77.73Zm-3.48,2c-.41.28-.83.58-1.28.91a10.8,10.8,0,0,0-3.83-2.41,16.82,16.82,0,0,1,1.58-.73A10.23,10.23,0,0,1,125.72,79.69Zm-6.25-1.82a9.44,9.44,0,0,0-2.2-.19,11.81,11.81,0,0,0-2.53.41l-.19,0a12,12,0,0,1,4.5-1.14,9,9,0,0,1,1.88.15C120.45,77.35,120,77.6,119.47,77.87Zm.14.87a9.58,9.58,0,0,1,4.17,2.34l-.59.45a12.86,12.86,0,0,0-3.83-2.64A2.07,2.07,0,0,1,119.61,78.74Zm4.73,2.88c.25.26.51.53.75.82s.47.59.68.88l-.56.52c-.23-.3-.45-.6-.7-.9s-.52-.58-.78-.86ZM126.2,84a9.53,9.53,0,0,1,1.59,4.51l-.19.22a12.89,12.89,0,0,0-1.94-4.23Zm-9.88,20.4a65.44,65.44,0,0,0,5.56-3.87c-4.68,4.28-11.81,7.95-18.47,11A130.49,130.49,0,0,0,116.32,104.38Zm13.91-14.87a9.29,9.29,0,0,0,.11-3.15,10.59,10.59,0,0,0,1.48-3.71,5.67,5.67,0,0,0,.07-.91,8.48,8.48,0,0,1,.43,4.85,14.8,14.8,0,0,1-3.5,6.47A12.24,12.24,0,0,0,130.23,89.51Zm-4.17-13.72a10.45,10.45,0,0,0-3.91.81,9.32,9.32,0,0,0-3.12-.44,12,12,0,0,0-3.74.77,14.78,14.78,0,0,1,7-2.33A8.52,8.52,0,0,1,127,75.87,5.5,5.5,0,0,0,126.06,75.79Zm-19.32,6.69c-1.61,1.44-3.21,3.07-4.79,4.8a130.65,130.65,0,0,0-9.29,11.47C96.86,92.72,101.71,86.34,106.74,82.48ZM85.53,109.82c1.56-1.89,3.39-4.31,5.4-7,4.53-6,10.31-13.63,16.26-19.45a21.64,21.64,0,0,1,7.74-4.53h.1a8.75,8.75,0,0,1,2.45.23c-8.19,5.4-17.94,16.39-25.64,25.07-2.94,3.31-5.53,6.23-7.43,8.12-.13-.22-.27-.43-.39-.64C84.49,111.12,85,110.51,85.53,109.82Zm6.91-5.12c7.46-8.4,17.77-20,26.07-25.3a11.85,11.85,0,0,1,4,2.62C115.7,87.29,105.17,96.65,94,106.69c-3.37,3-6.31,5.67-8.33,7.43-.29-.38-.56-.77-.82-1.15C86.79,111.07,89.43,108.1,92.44,104.7Zm2.11,2.59c7.47-6.72,20.52-18.46,28.54-24.71.27.28.54.56.8.87s.49.62.72.93c-7.55,6.82-21.38,17.64-29.29,23.83-3.58,2.8-6.7,5.25-8.79,6.94l-.35-.39C88.2,113,91.16,110.33,94.55,107.29Zm1.27,1.56c11.82-9.25,22.87-18,29.24-23.82A11.71,11.71,0,0,1,127,89.45c-6.64,7.26-19.87,15.4-29.45,21.29-3.83,2.35-7.19,4.42-9.4,6q-.5-.47-1-1C89.17,114.05,92.27,111.62,95.82,108.85Zm2.1,2.57c9.89-6.07,22.4-13.77,29.15-20.89a8.73,8.73,0,0,1-.21,2.44s0,.07,0,.1a21.82,21.82,0,0,1-5.8,6.84c-6.77,4.85-15.29,9.21-22,12.63-3,1.52-5.67,2.91-7.81,4.12-.73.38-1.38.75-2,1.1l-.57-.49C90.9,115.74,94.19,113.72,97.92,111.42ZM119.42,73a10.4,10.4,0,0,1,5,1,9.42,9.42,0,0,0-2.14-.19c-3.7.09-7.64,2.18-11.57,5.36-6.24,2.74-12.3,10.16-17.48,17.44C100.71,85.68,110.12,73.48,119.42,73Z"/></g></svg>