<svg xmlns="http://www.w3.org/2000/svg" viewBox="0 0 184 184"><defs><style>.cls-1{fill:#f9cdd2;}.cls-2{fill:#5b393d;}.cls-3{fill:#9c6168;}.cls-4{fill:#bc7c83;}.cls-5{fill:#e2c6c9;}.cls-6{fill:#c79197;}</style></defs><g id="Calque_5" data-name="Calque 5"><rect class="cls-1" width="184" height="184"/></g><g id="dessin"><path class="cls-2" d="M107.35,70.91c-.64-2,3.17-3.73,4.78-2.53l1.28-9,1.14-1.11c-.1.71-.22,1.5-.33,2.33-.5,3.51-1.1,7.74-1.27,9C113.18,72.22,108.05,73.3,107.35,70.91Z"/><path class="cls-2" d="M114.55,58.27c.16-1.17.29-2.09.35-2.53l-11.37.6-1.78,12.54a1.56,1.56,0,0,0-.53-.27c-1.79-.59-4.83,1-4.25,2.8a1.66,1.66,0,0,0,.12.31,1.77,1.77,0,0,0,1.12.88c1.5.45,3.82-.3,4.24-1.71,0,0,.1-.66.24-1.66L103,67.3c.49-3.47,1.16-8.23,1.19-8.41l9.39-.45-.13.94ZM104.28,58l.11-.78,9.39-.45-.1.73Z"/><path class="cls-3" d="M131.33,76.52l-.24.3A2,2,0,0,0,131,77c-.75-.43-2.08.19-3.06,1.45a4.5,4.5,0,0,0-.86,1.82,3.9,3.9,0,0,0-2.17,1.55,3.72,3.72,0,0,0-.92,2.7l-4.21,3.28-1.12.86L115,92.27l-32.2,32.2c-.42,0-.86.08-1.29.15a33.54,33.54,0,0,1-8.62.38l19.52-19.52,16-16,5.5-5.5L115,82.56l4.7-6,4.82-6.22.25-.29Z"/><path class="cls-4" d="M141.49,62.1a5.72,5.72,0,0,0-1,1,3.26,3.26,0,0,0-.79,3.06c-.07.12-.15.23-.22.36a10.61,10.61,0,0,0-.58,1.29,8.85,8.85,0,0,0-.62,3.09A2.5,2.5,0,0,0,138,71a2.59,2.59,0,0,0-1.54,2.18,2.54,2.54,0,0,0-.81.16,2.58,2.58,0,0,0-.53.32,2.36,2.36,0,0,0-.79,1.06,6.61,6.61,0,0,0-.83.26,5.51,5.51,0,0,0-2.21,1.57L124.81,70l-.25.29s-.87-3.2,2.72-7.23,9.84-5.6,12.51-5.7a1,1,0,0,0,.23,0A6.21,6.21,0,0,0,141.49,62.1Z"/><path class="cls-2" d="M51.74,83.63c-1.53-2.63,3.25-6.18,5.88-5l-1-12.94,1.24-1.9c.08,1,.17,2.15.26,3.34.4,5,.87,11.14,1,12.91C60.26,83.66,53.45,86.75,51.74,83.63Z"/><path class="cls-2" d="M57.85,63.78c-.13-1.69-.24-3-.29-3.64L41.89,64.5l1.41,18a2.31,2.31,0,0,0-.83-.21c-2.67-.27-6.43,2.85-5,5.22a2.17,2.17,0,0,0,.25.39,2.53,2.53,0,0,0,1.84.88c2.23.17,5.23-1.6,5.39-3.69,0,0-.07-.94-.19-2.39L44.49,80c-.39-5-.93-11.83-1-12.09l13-3.54.11,1.36ZM43.44,66.55l-.09-1.12,13-3.53.08,1Z"/><path class="cls-4" d="M113.81,129.38l-4.28-31.6-1.12-8.27L106.16,72.8c-18.46,7-38.91,10.27-62.09,8.4l7.64,56.5a9.05,9.05,0,0,0,3,5.52l14-14c-3-1.7-5-4.19-5.37-7.15A29.84,29.84,0,0,0,72.93,125a33.52,33.52,0,0,0,8.62-.38c.44-.07.87-.11,1.29-.15,9.15-.78,17,3.35,17.85,9.55-8.17-3.9-13.19-3.22-18.22-2.55a25.13,25.13,0,0,1-6.65,0l-5.36,5.36-9.6,9.59,17.75,7.47a14.4,14.4,0,0,0,14.28-2l17-13.71A9.75,9.75,0,0,0,113.81,129.38ZM71,105.8c-.25,2.24-3.68,3.69-7.68,3.24s-7-2.59-6.83-4.82,3.71-3.66,7.7-3.24S71.28,103.58,71,105.8Zm15.66-2.11c-.81-2.09,1.55-5,5.31-6.46,3.45-1.37,6.89-1,8,.66a2.1,2.1,0,0,1,.22.42c.83,2.08-1.52,5-5.28,6.46a12.69,12.69,0,0,1-2.53.71C89.7,106,87.34,105.3,86.7,103.69Z"/><path class="cls-3" d="M82.84,124.47l-7,7-5.36,5.36L51.33,156l-3,3a2.84,2.84,0,0,1-4-.33l-.41-.4a2.85,2.85,0,0,1-.32-4l1.76-1.76,9.34-9.34,14-14L72.93,125a33.52,33.52,0,0,0,8.62-.38C82,124.55,82.42,124.51,82.84,124.47Z"/><path class="cls-2" d="M130.86,110.28a0,0,0,0,1,0,0,0,0,0,0,1,0,0Z"/><path class="cls-2" d="M130.49,112.47c-.21,0-.38-.29-.43-.7-.17-.23-.27-.71-.43-1a1.1,1.1,0,0,0-.23-.25c-.66,0-1.16-.22-1.16-.45,0-.07.06-.15.17-.21l-20.87,1.93-2.63,26a3.57,3.57,0,0,0-1.12-.51c-3.73-1.07-9.87,2.4-8.52,6.12a3.45,3.45,0,0,0,.25.63,3.65,3.65,0,0,0,2.39,1.71c3.12.81,7.84-.92,8.6-3.85,0,0,.14-1.37.36-3.46l.4-4C108,127.27,109,117.41,109,117l19.32-1.69-.2,2-1.88,18.65c-3.44-2.33-11.14,1.49-9.65,5.62,1.62,4.86,12.11,2.22,11.42-3.23.25-2.54,1.14-11.32,1.88-18.59.18-1.73.34-3.36.49-4.82.09-.92.18-1.77.25-2.52A.23.23,0,0,1,130.49,112.47Zm-21.27,2.68.16-1.61,19.32-1.7-.15,1.51Z"/><path class="cls-5" d="M130.94,109.67v.09s0-.06,0-.08Z"/><polygon class="cls-5" points="130.91 109.68 130.91 109.68 130.91 109.67 130.91 109.68"/><path class="cls-5" d="M130.83,110.84v0Z"/><path class="cls-5" d="M130.83,110.84v0Z"/><path class="cls-6" d="M145.36,62.15c-.18.76-.38,1.57-.62,2.37a45.28,45.28,0,0,1-2.65,7,8.34,8.34,0,0,1,.14,1.52c0,3-1.58,5.38-3.54,5.38a2.84,2.84,0,0,1-2.2-1.17,9.45,9.45,0,0,1-1.93.62,6,6,0,0,1-2.2.11l0,0h0l-.81.64a1.87,1.87,0,0,1,0,.34c0,.75-.41,1.36-.91,1.36h0c-.12.53-.46.91-.85.91a.9.9,0,0,1-.76-.64l-.56.44-1.54,2c-1,1-2.86,2-2.93,1.5a3.41,3.41,0,0,1,.92-2.7A3.9,3.9,0,0,1,127,80.25a4.5,4.5,0,0,1,.86-1.82c1-1.26,2.31-1.88,3.06-1.45a2,2,0,0,1,.14-.22l.24-.3a5.51,5.51,0,0,1,2.21-1.57,6.61,6.61,0,0,1,.83-.26,2.36,2.36,0,0,1,.79-1.06,2.58,2.58,0,0,1,.53-.32,2.54,2.54,0,0,1,.81-.16A2.59,2.59,0,0,1,138,70.91a2.5,2.5,0,0,1,.25-.09,8.85,8.85,0,0,1,.62-3.09,10.61,10.61,0,0,1,.58-1.29c.07-.13.15-.24.22-.36A3.26,3.26,0,0,1,140.5,63a5.72,5.72,0,0,1,1-1A6.21,6.21,0,0,1,140,57.27c2.85-.25,4.44-3.13,5.85-1.72C146.45,56.13,146.17,58.87,145.36,62.15Z"/><path class="cls-6" d="M144.55,146.92c-1-.7-3.35-1.25-6.38-1.47a4.44,4.44,0,0,0-3.53-1.29c-1.7,0-3.12.58-3.59,1.38-3.43.35-5.82,1.14-5.82,2.05,0,1.21,4.21,2.2,9.48,2.25.42,1.53,3,2.71,6,2.71,3.37,0,6.11-1.41,6.11-3.16C146.87,148.39,146,147.5,144.55,146.92Z"/><path class="cls-6" d="M134.54,87.75c0,1.24-.67,2.25-1.5,2.25s-1.5-1-1.5-2.25S133,84,133,84,134.54,86.51,134.54,87.75Z"/><path class="cls-6" d="M140.87,135.34c0,1.47-.87,2.66-2,2.66s-2-1.19-2-2.66,2-4.44,2-4.44S140.87,133.87,140.87,135.34Z"/><path class="cls-6" d="M131,110.54a.41.41,0,0,1-.12.3v0a1.8,1.8,0,0,1,.11.65,1.33,1.33,0,0,1-.27.91h0a.27.27,0,0,1-.18.07c-.2,0-.37-.29-.43-.7-.17-.23-.27-.71-.43-1a.92.92,0,0,0-.23-.25c-.65,0-1.15-.22-1.15-.45a.28.28,0,0,1,.16-.21,2.56,2.56,0,0,1,1.19-.24,4.53,4.53,0,0,1,.68.06l.62,0h0s0,0,0,.08a1.1,1.1,0,0,1,0,.18.78.78,0,0,1-.07.33h0a0,0,0,0,0,0,0A.52.52,0,0,1,131,110.54Z"/><path class="cls-6" d="M125,135.34s.82-.68,1.19-.41a2.31,2.31,0,0,1,.73,1.57c0,.55,0,1.75-.36,1.38s-.37-1.2-.56-.83a2.22,2.22,0,0,0,0,1.56c.19.83-.55.93-.55.56s-.55-1.29-.64-2A6,6,0,0,1,125,135.34Z"/></g></svg>