<svg xmlns="http://www.w3.org/2000/svg" viewBox="0 0 184 184"><defs><style>.cls-1{fill:#f9cdd2;}.cls-2{fill:#5b393d;}.cls-3{fill:#9c6168;}.cls-4{fill:#bc7c83;}.cls-5{fill:#cc9ca1;}</style></defs><g id="Calque_5" data-name="Calque 5"><rect class="cls-1" width="184" height="184"/></g><g id="dessin"><path class="cls-2" d="M123.37,165.59l-9.31-93.11c1.56-1.55,0-4.65,0-4.65,4.66,0,4.66,0,4.66-4.66A11.56,11.56,0,0,0,115,60.83c2.82-4.24,4.81-8.34,1.15-11.43V47.12L109.41,43l-36,28.6a.07.07,0,0,0,0,.12c.31.1,1.11.6,1.11,3.09a9.84,9.84,0,0,1-1.81,5.45s-2.86,4,3.36,5.41c1.55,3.11,2.21.15,2.21.15s.89-.15.89,1.4c-.94-.06-.84,1.89,0,2,0,1.56-1.55,77.18-1.55,77.18-2,.18-2.44,1.55,0,1.55v1.56c-3.2-.07-3.2,2.79.23,2.79H90.4c2.29,0,2.86-2.86,0-2.86v-1.14c1.15-.57,1.08-1.74-1.14-2.29L88.12,89.4q1.18-1.62-.57-2.28l.57-1.72c-.08-.21,2.66,1.16,3.43,0,1-1.5,1.14-4.57-2.29-4.57v-.57L103,70.55s-.58,2.85,1.14,2.85c0,1.15,3.43,92,3.43,92-2,1.25-2.54,2.42-.57,3.43v.57c-2.86,0-3.43,3.43,0,3.43h17.71c2.86,0,3.43-3.43,0-3.43v-1.14C126,167.26,125.41,166.37,123.37,165.59Z"/><path class="cls-3" d="M57,97.89c.27,2.4,4.35,4.07,4.35,4.07l1.05-13.21s1.74,10,3.84,15.86c1.87-1.85,4.72,0,3.22-.21s-3.7,2.53-3.7,2.53l.12,3.86-.3.23,11.34,61c.09.46-.36.93-1,1s-1.22-.15-1.31-.61L63.33,112c-.55-.08-1.17-.28-1.2-.78-1.93,1-2.62,3.84-2.62,3.84S57.82,103.92,57,97.89Z"/><ellipse class="cls-4" cx="70.98" cy="148.8" rx="23.72" ry="11.67" transform="translate(-85.61 200.36) rotate(-82.73)"/><path class="cls-5" d="M73.24,149.26l-.2.11H73c0-.1,0-.21,0-.31-.1-.48-.29-1-.43-1.44a4.45,4.45,0,0,1-.19-1.42l.2-2.74c.14-1.83.3-3.66.49-5.48s.4-3.65.65-5.47c.21-1.56.44-3.12.72-4.68a.72.72,0,0,0-.62-.85.73.73,0,0,0-.81.67c-.11,1.58-.29,3.15-.47,4.71q-.33,2.73-.75,5.45t-.9,5.43l-.5,2.71a4.14,4.14,0,0,1-.54,1.32c-.26.43-.56.85-.77,1.28,0,.1-.08.2-.12.3h-.06l-.17-.16L67,147.11l-.34,2.66-.34,2.66,2-1.1.21-.12.18,0v0c.09.47.22.95.31,1.42a5.57,5.57,0,0,1,.1,1.4c-.11,1.84-.23,3.67-.4,5.5-.29,3.41-.64,6.81-1.18,10.18a.72.72,0,0,0,.62.83h0A.72.72,0,0,0,69,170c.33-3.4.85-6.78,1.42-10.16.3-1.81.64-3.61,1-5.41a6,6,0,0,1,.45-1.33c.21-.44.45-.87.66-1.3,0,0,0,0,0,0l.19,0,.17.16,1.63,1.56.33-2.66.34-2.65Z"/><path class="cls-5" d="M67.93,172.7c-6.6-.84-10.59-12.25-8.91-25.43s8.42-23.22,15-22.38,10.59,12.25,8.9,25.43S74.52,173.54,67.93,172.7Zm6-47c-6.17-.79-12.52,8.95-14.15,21.72s2.07,23.79,8.24,24.57S80.54,163,82.17,150.22,80.11,126.43,73.93,125.65Z"/></g></svg>