<svg xmlns="http://www.w3.org/2000/svg" viewBox="0 0 96.88 70.39"><defs><style>.cls-1{fill:none;stroke:#68626c;stroke-linecap:round;stroke-miterlimit:10;stroke-width:8px;}.cls-2{fill:#68626c;}</style></defs><g id="Calque_2" data-name="Calque 2"><g id="Calque_1-2" data-name="Calque 1"><path class="cls-1" d="M92.54,46.7,86.39,17.05a16.36,16.36,0,0,0-31.23-2.72H41.72a16.35,16.35,0,0,0-11.88-10h0A16.38,16.38,0,0,0,10.49,17.05L4.34,46.7a16.37,16.37,0,0,0,32.05,6.65l.84-4H59.65l.84,4a16.38,16.38,0,0,0,19.35,12.7h0A16.37,16.37,0,0,0,92.54,46.7Z"/><circle class="cls-2" cx="26.4" cy="28.85" r="6.35"/><circle class="cls-2" cx="71.09" cy="22.06" r="3.13"/><circle class="cls-2" cx="77.35" cy="28.31" r="3.13"/><circle class="cls-2" cx="64.35" cy="28.31" r="3.13"/><circle class="cls-2" cx="71.09" cy="35.2" r="3.13"/></g></g></svg>