<svg width="55" height="58" viewBox="0 0 55 58" fill="none" xmlns="http://www.w3.org/2000/svg">
<g clip-path="url(#clip0)">
<path d="M27.5 5C23.75 5 20.8203 6.38021 18.7109 9.14062C16.6016 11.901 15.5469 15.4297 15.5469 19.7266C15.5208 25.0651 17.2396 29.2969 20.7031 32.4219C21.1458 32.8385 21.3021 33.3724 21.1719 34.0234L20.2734 35.8984C19.987 36.5234 19.5638 37.0117 19.0039 37.3633C18.444 37.7148 17.2656 38.2161 15.4688 38.8672C15.3906 38.8932 13.7435 39.4271 10.5273 40.4688C7.3112 41.5104 5.59896 42.0833 5.39062 42.1875C3.20312 43.099 1.77083 44.0495 1.09375 45.0391C0.364583 46.6797 0 50.8333 0 57.5H55C55 50.8333 54.6354 46.6797 53.9062 45.0391C53.2292 44.0495 51.7969 43.099 49.6094 42.1875C49.401 42.0833 47.6888 41.5104 44.4727 40.4688C41.2565 39.4271 39.6094 38.8932 39.5312 38.8672C37.7344 38.2161 36.556 37.7148 35.9961 37.3633C35.4362 37.0117 35.013 36.5234 34.7266 35.8984L33.8281 34.0234C33.6979 33.3724 33.8542 32.8385 34.2969 32.4219C37.7604 29.2969 39.4792 25.0651 39.4531 19.7266C39.4531 15.4297 38.3984 11.901 36.2891 9.14062C34.1797 6.38021 31.25 5 27.5 5Z" fill="#68626C"/>
</g>
<defs>
<clipPath id="clip0">
<rect width="55" height="57.5" fill="white"/>
</clipPath>
</defs>
</svg>
