<svg xmlns="http://www.w3.org/2000/svg" viewBox="0 0 94.34 70.3"><defs><style>.cls-1,.cls-2,.cls-3{fill:none;stroke:#68626c;stroke-miterlimit:10;}.cls-1,.cls-3{stroke-linecap:round;}.cls-1,.cls-2{stroke-width:6px;}.cls-3{stroke-width:5px;}</style></defs><g id="Calque_2" data-name="Calque 2"><g id="Calque_1-2" data-name="Calque 1"><path class="cls-1" d="M67,8.26s12.87,12.2,9.39,29.52c-2.71,13.42-17.6,19.75-21,20.82-4.69,1.49-11.33,3.54-15.08,8.7"/><path class="cls-1" d="M79.62,23.26s6.59-1.31,7.93-5.89c2.9-9.94-9.42-14-9.42-14a13.77,13.77,0,0,0-3.93,9.93C74.19,22.24,79.62,23.26,79.62,23.26Z"/><path class="cls-1" d="M73.09,22.63s-1.87-7.45-8-9.42C60,11.58,54,12.74,54,12.74s4.35,10.48,8.51,11.94C67.2,26.32,72.74,25.67,73.09,22.63Z"/><path class="cls-1" d="M78.78,43.35s4.92,2.39,8.91-.76c7-5.52,1.81-16.14,1.81-16.14s-11.18,4.26-12.22,8.92A11.34,11.34,0,0,0,78.78,43.35Z"/><path class="cls-1" d="M75.4,41.47s-3.84,2.74-9.73-1.95C63.52,37.82,61,28.14,61,28.14s13,.37,14.73,5.34S75.4,41.47,75.4,41.47Z"/><path class="cls-2" d="M59.54,57.19c-1.77-2.63-3.19-3.82-4.39-7.16s4-10.65,4-10.65,5.56,3.77,6,7.07C66.17,54.82,59.54,57.19,59.54,57.19Z"/><path class="cls-2" d="M66.75,57.16a8.11,8.11,0,0,1,6.67-6.64,35.42,35.42,0,0,1,11.8.32S81,60.61,74.79,61.65A7.05,7.05,0,0,1,66.75,57.16Z"/><path class="cls-1" d="M27.37,8.25S14.49,20.45,18,37.77c2.7,13.41,17.6,19.75,21,20.82,4.69,1.49,11.33,3.53,15.09,8.7"/><path class="cls-1" d="M14.72,23.25s-6.59-1.31-7.93-5.9c-2.9-9.94,9.42-14,9.42-14a13.74,13.74,0,0,1,3.92,9.93C20.14,22.23,14.72,23.25,14.72,23.25Z"/><path class="cls-1" d="M21.25,22.62s1.87-7.45,8-9.42c5.07-1.63,11.08-.48,11.08-.48s-4.35,10.49-8.51,12C27.14,26.31,21.6,25.65,21.25,22.62Z"/><path class="cls-1" d="M15.56,43.34s-4.93,2.39-8.91-.77c-7-5.51-1.82-16.13-1.82-16.13S16,30.7,17.06,35.36A11.4,11.4,0,0,1,15.56,43.34Z"/><path class="cls-1" d="M18.93,41.46s3.84,2.73,9.74-2c2.14-1.7,4.71-11.38,4.71-11.38s-13.05.36-14.72,5.34S18.93,41.46,18.93,41.46Z"/><path class="cls-2" d="M34.8,57.18C36.56,54.54,38,53.36,39.18,50s-4-10.64-4-10.64-5.55,3.77-6,7.06C28.17,54.81,34.8,57.18,34.8,57.18Z"/><path class="cls-2" d="M27.58,57.15a8.08,8.08,0,0,0-6.66-6.64,35.62,35.62,0,0,0-11.81.31s4.25,9.78,10.43,10.81A7,7,0,0,0,27.58,57.15Z"/><line class="cls-3" x1="41.64" y1="29.45" x2="46.57" y2="24.52"/><line class="cls-3" x1="46.87" y1="39.99" x2="46.87" y2="24.52"/></g></g></svg>