<svg xmlns="http://www.w3.org/2000/svg" viewBox="0 0 95.9 78.09"><defs><style>.cls-1,.cls-2,.cls-3{fill:none;stroke:#68626c;stroke-miterlimit:10;}.cls-1,.cls-3{stroke-linecap:round;}.cls-1,.cls-2{stroke-width:6px;}.cls-3{stroke-width:5px;}</style></defs><g id="Calque_2" data-name="Calque 2"><g id="Calque_1-2" data-name="Calque 1"><path class="cls-1" d="M29.54,11.19S14.92,28.26,18.41,45.58C21.12,59,36,65.33,39.37,66.39c4.69,1.5,11.33,3.54,15.08,8.7"/><path class="cls-1" d="M18.92,23.47S12.33,22.16,11,17.58c-2.9-9.94,9.42-14,9.42-14a13.77,13.77,0,0,1,3.93,9.93C24.34,22.45,18.92,23.47,18.92,23.47Z"/><path class="cls-1" d="M23.15,23.83s1.87-7.45,8-9.42c5.07-1.63,11.08-.47,11.08-.47s-4.35,10.48-8.51,11.94C29,27.52,23.5,26.87,23.15,23.83Z"/><path class="cls-1" d="M15.56,44.72S10.63,47.11,6.65,44c-7-5.52-1.82-16.14-1.82-16.14S16,32.08,17.06,36.74A11.4,11.4,0,0,1,15.56,44.72Z"/><path class="cls-1" d="M20.27,44.39s3.84,2.74,9.73-1.94c2.15-1.71,4.72-11.38,4.72-11.38s-13,.36-14.73,5.33S20.27,44.39,20.27,44.39Z"/><path class="cls-2" d="M30.26,61.1c2.52-1.93,4.24-2.6,6.45-5.39s-.38-11.36-.38-11.36-6.47,1.79-7.91,4.78C24.74,56.73,30.26,61.1,30.26,61.1Z"/><path class="cls-2" d="M24.34,60.38a8.11,8.11,0,0,0-6.67-6.64,35.81,35.81,0,0,0-11.81.32s4.25,9.77,10.44,10.81A7,7,0,0,0,24.34,60.38Z"/><line class="cls-3" x1="43.07" y1="37.26" x2="48" y2="32.33"/><line class="cls-3" x1="48.31" y1="47.79" x2="48.31" y2="32.33"/><path class="cls-1" d="M66.36,11S81,28,77.48,45.35c-2.7,13.42-17.6,19.75-21,20.82-4.69,1.49-11.33,3.54-15.08,8.7"/><path class="cls-1" d="M77,23.25s6.59-1.31,7.93-5.9c2.9-9.94-9.42-14-9.42-14a13.77,13.77,0,0,0-3.93,9.93C71.55,22.23,77,23.25,77,23.25Z"/><path class="cls-1" d="M72.75,23.61s-1.87-7.45-8-9.42c-5.08-1.63-11.09-.48-11.09-.48s4.36,10.48,8.52,12C66.86,27.3,72.4,26.64,72.75,23.61Z"/><path class="cls-1" d="M80.34,44.5s4.92,2.38,8.91-.77c7-5.51,1.81-16.14,1.81-16.14s-11.18,4.26-12.22,8.92A11.38,11.38,0,0,0,80.34,44.5Z"/><path class="cls-1" d="M75.63,44.17s-3.84,2.73-9.74-2c-2.14-1.7-4.71-11.38-4.71-11.38s13.05.36,14.72,5.34S75.63,44.17,75.63,44.17Z"/><path class="cls-2" d="M65.63,60.87c-2.51-1.93-4.24-2.6-6.45-5.38s.39-11.37.39-11.37,6.47,1.8,7.91,4.78C71.15,56.5,65.63,60.87,65.63,60.87Z"/><path class="cls-2" d="M71.56,60.16a8.1,8.1,0,0,1,6.66-6.64A35.62,35.62,0,0,1,90,53.83S85.79,63.61,79.6,64.64A7,7,0,0,1,71.56,60.16Z"/></g></g></svg>