<svg xmlns="http://www.w3.org/2000/svg" viewBox="0 0 69.67 67.79"><defs><style>.cls-1,.cls-2,.cls-3{fill:none;stroke:#68626c;stroke-miterlimit:10;}.cls-1,.cls-3{stroke-linecap:round;}.cls-1,.cls-2{stroke-width:4px;}.cls-3{stroke-width:6px;}</style></defs><g id="Calque_2" data-name="Calque 2"><g id="Calque_1-2" data-name="Calque 1"><path class="cls-1" d="M19.65,10.32S7.14,23.09,10.46,36.37,32,57.3,35,59.09s7.38,4.34,8.65,6.64"/><path class="cls-1" d="M14.38,17.38A6.38,6.38,0,0,1,9.9,13.13C9,9.73,15.48,2.75,15.48,2.75a9.39,9.39,0,0,1,2.9,7.31A9.78,9.78,0,0,1,14.38,17.38Z"/><path class="cls-1" d="M15.31,17.38a7,7,0,0,1,5.28-4.93,7.37,7.37,0,0,1,7.15,2.46s-3.92,4.86-6.22,5.54S16.33,19.41,15.31,17.38Z"/><path class="cls-1" d="M8.67,30.15s-1.7,0-3.91-2.38,0-10.39,0-10.39,6.13,1.44,6.3,4.09S8.67,30.15,8.67,30.15Z"/><path class="cls-1" d="M11.06,31.13s3.87.47,5.66-1,4-9.55,4-9.55-6.51-1-7.91,3.16A35.7,35.7,0,0,0,11.06,31.13Z"/><path class="cls-1" d="M12,43.26s-.48-4.21-2.09-6.13-7.74-3.57-7.74-3.57a9.16,9.16,0,0,0,3.32,8.93C10.08,46.07,12,43.26,12,43.26Z"/><path class="cls-2" d="M14.1,42.49s4-2.17,5-4.46-1.53-9-1.53-9S13.14,30.24,12,32.41,14.1,42.49,14.1,42.49Z"/><path class="cls-2" d="M23.61,51.56c.13-1.53,1.28-3.49,1.28-6.15s-5.51-6.48-5.51-6.48S16.28,43,17,45.41,23.61,51.56,23.61,51.56Z"/><path class="cls-2" d="M20.67,52.32a5.53,5.53,0,0,0-5.36-3.57,24.56,24.56,0,0,0-7.89,1.78s4.16,6,8.45,5.88A4.83,4.83,0,0,0,20.67,52.32Z"/><path class="cls-1" d="M50,10.39s12.51,12.77,9.19,26S37.7,57.37,34.66,59.16,27.29,63.5,26,65.79"/><path class="cls-1" d="M55.28,17.44s3.6-.84,4.49-4.24S54.19,2.82,54.19,2.82a9.39,9.39,0,0,0-2.9,7.31A9.76,9.76,0,0,0,55.28,17.44Z"/><path class="cls-1" d="M54.36,17.44a6.94,6.94,0,0,0-5.28-4.92A7.36,7.36,0,0,0,41.93,15s3.92,4.86,6.21,5.54S53.33,19.48,54.36,17.44Z"/><path class="cls-1" d="M61,30.22s1.71,0,3.92-2.38,0-10.4,0-10.4-6.13,1.45-6.3,4.1S61,30.22,61,30.22Z"/><path class="cls-1" d="M58.6,31.2s-3.86.47-5.65-1-4-9.55-4-9.55,6.52-1,7.92,3.16A36,36,0,0,1,58.6,31.2Z"/><path class="cls-1" d="M57.68,43.33s.48-4.22,2.09-6.13,7.74-3.58,7.74-3.58a9.17,9.17,0,0,1-3.32,8.94C59.59,46.13,57.68,43.33,57.68,43.33Z"/><path class="cls-2" d="M55.57,42.56s-4-2.17-5-4.47S52.06,29,52.06,29s4.47,1.26,5.62,3.43S55.57,42.56,55.57,42.56Z"/><path class="cls-2" d="M46.06,51.62c-.13-1.53-1.28-3.49-1.28-6.15S50.29,39,50.29,39s3.09,4.09,2.41,6.47S46.06,51.62,46.06,51.62Z"/><path class="cls-2" d="M49,52.39a5.55,5.55,0,0,1,5.37-3.57,24.27,24.27,0,0,1,7.89,1.78s-4.16,6-8.45,5.87A4.83,4.83,0,0,1,49,52.39Z"/><line class="cls-3" x1="30.22" y1="29.94" x2="35.15" y2="25.01"/><line class="cls-3" x1="35.46" y1="40.48" x2="35.46" y2="25.01"/></g></g></svg>