<svg id="Calque_15" data-name="Calque 15" xmlns="http://www.w3.org/2000/svg" viewBox="0 0 1660 1190"><defs><style>.cls-1{fill:#cae2e6;}.cls-2{fill:#284246;}.cls-3{fill:#3c6269;}.cls-4{fill:#325257;}.cls-5{fill:#46737a;}.cls-6{fill:#578e97;}.cls-7{fill:#64a3ae;}.cls-8{fill:#6aaeba;}.cls-9{fill:#50838b;}.cls-10{fill:#e240da;}.cls-11{fill:#88bec8;}</style></defs><rect class="cls-1" width="1660" height="1190.87"/><path class="cls-2" d="M1530.5,466.5v-3l-10-1.53-3-.47-.06-.1-3.56-6.44-.84-1.53L1470.5,376.5l-.8-18.5h1.3v-1h-1.35l-.15-3.5-.3,3.5H1468v1h1.11l-1.61,18.5-27,52-15-13h-6v-15l-2-4v-2l2-3-2-1v-31h2l-13-63-9,57-12-34v-12h-3l-4,12-5,1-4-9-40-215-36,215-8,21h-5v3l-8,21h-5l-10-64-10,68-2,2V373h2.5v14l-9-12-38,67-15.5-1.5-2.12,4.78L997,470l-.46,1.33,0-.83-6-5-10-10-16-3v-49l4-5-3-4v-49l3-4-3-4v-36h-1.63l-.22-.8h1v-4.8H967v-1.2h-2.4v-2.4h-1.2v2.4h-1.35l-7.45-28V262.9H957v-1.2h-2.4v-2.4h-1.2v2.4H951v1.2h2.4v3.39l-5.89,28.41h-.91v-2.4h-1.2v2.4H943v1.2h2.4v4.8h.87l-.17.8h-1.6l-1,12v13l-15-3-10-8-18-68h-.23c1.64-.62,2.73-1.7,2.73-2.93s-1.24-2.46-3.08-3.06A7.09,7.09,0,0,0,905,235a7,7,0,0,0-4.73-6.38L897.74,209c1.29-.17,2.26-.75,2.26-1.45s-1.16-1.39-2.64-1.48l-.78-6-.61,6.1c-1.15.21-2,.75-2,1.4s.7,1.1,1.7,1.35l-2,19.77a6.69,6.69,0,0,0,.36,12.89c-1.84.6-3.08,1.74-3.08,3.06s1.09,2.31,2.73,2.93h-.23l-19,71-10,6-14,4v-24h-1.63l-.22-.8h1v-4.8H852v-1.2h-2.4v-2.4h-1.2v2.4h-1.35l-7.45-28V265.9H842v-1.2h-2.4v-2.4h-1.2v2.4H836v1.2h2.4v3.39l-5.89,28.41h-.91v-2.4h-1.2v2.4H828v1.2h2.4v4.8h.87l-.17.8h-1.6v32l-6,4v9h3v45l-2,2v6c2,1,2,5,2,5h-3l-3,8h2v7h-1v3h2v4h1v16h-1v4h-7l-11,10h3v39l-4,7h2V514H806V707h724V514h-19.06l19.56-.5-2-24.54-1-12.46,1-10ZM936,448V417.77s2.25-4.77,4.5-4.77,4.5,4.77,4.5,4.77V448Zm27.4-152.1v3.85l-1-3.85Zm-16.8,0h.66l-.66,3.2ZM935,355s2.75-6,5.5-6,5.5,6,5.5,6v38H935Zm-86,4.77s2.25-4.77,4.5-4.77,4.5,4.77,4.5,4.77V390h-9Zm0,60s2.25-4.77,4.5-4.77,4.5,4.77,4.5,4.77V450h-9Zm-.6-120.87v3.85l-1-3.85ZM833,355s2.75-6,5.5-6,5.5,6,5.5,6v38H833Zm0,65.77s2.25-4.77,4.5-4.77,4.5,4.77,4.5,4.77V451h-9ZM831.6,298.9h.66l-.66,3.2Z"/><path class="cls-3" d="M1660,472.76v718.11H1198.63c-19.86-16.63-61.81-49.76-96.63-77.06l-22-17.21V674.07h-6l4-48.81s-14-6-1-10c2-5,4-7,4-7l1-20.91,4,1,1-5,6-2,5.13-2.33,18.4-8.34L1227,520.67v-6l80-21.91,1-19.92,1.5-3.49,7-1,2,8v12l26-7-1-9,4-8,46-7,4,8v14.94h8l-1-8,3-6,25-2,1,21.91h3V472.36l2-3,21-3,7,7-1,16.94h9v-5h8l1-15.94,20-3v-6h3l1-7h6l.38,1.53,1.62,6.44h5l0,.57,1,10.39,5,5v12l2-.33,34-5.64h6v-12h10v3l18,1v5l18,2,16-41.84,5-4h6l5,4Z"/><polygon class="cls-4" points="980.5 549.5 980.5 541.5 983 539 974 524 946 526 928 513 901 420 877 498 848 501 813 532 798 531 789 538 756 534 697 568 718.5 677.5 877 708.81 877 729 1003 729 1003 702.53 1003.5 702.5 1003.5 612.5 1003.5 572.5 1006.5 570.5 1013.5 570.5 1015.5 567.5 980.5 549.5"/><path class="cls-5" d="M779.5,1200.5v-.14S779.45,1200.45,779.5,1200.5ZM652.33,784H672.5v-.5ZM858,679l-52-28.25L793.47,644,777,635H755v-4h-.5V616.5h3v-4l-18-7-41.31-31.42L668.5,551.5l-114-20-101-75-11,1v-3h-15v3l-191,14-4,3h-8v6l-159,99-40,19v2h-6l6,5v4h5l8,6v14h-5l1,3h4l4,1-3,124-10,3v7l0,.5-1,17.5H29v405.37H802V784l1-.86L834.6,756,877,719.58l3-2.58V685Z"/><polygon class="cls-6" points="793.98 1190.87 446 1190.87 446 953 450 953.17 450 951 502 951 502 955 514 955 515.04 952.75 519.08 944 519.09 943.97 520 942 529 939 548 933 548.78 932 555 924 559.17 920 563.35 916 567.52 912 571.7 908 575.87 904 580.05 900 584.22 896 588.39 892 592.57 888 596.74 884 600.92 880 605.09 876 609.26 872 613.44 868 617.61 864 619.7 862 621.79 860 622.83 859 625.96 856 627 855 645 851 646.03 850 649.14 847 652.24 844 655.34 841 658.45 838 661.55 835 664.66 832 667.76 829 669 827.8 670.86 826 673.97 823 675 822 691 815 770.9 818.13 781 818.53 793 819 793.98 1190.87"/><rect class="cls-7" x="661" y="812" width="12" height="3"/><rect class="cls-7" x="658" y="815" width="14" height="3"/><rect class="cls-7" x="655" y="818" width="17" height="3"/><rect class="cls-7" x="652" y="820" width="20" height="3"/><rect class="cls-7" x="622" y="856" width="30" height="3"/><rect class="cls-7" x="624.45" y="853" width="30" height="3"/><rect class="cls-7" x="626.91" y="850" width="30" height="3"/><rect class="cls-7" x="629.36" y="847" width="30" height="3"/><rect class="cls-7" x="631.82" y="844" width="30" height="3"/><rect class="cls-7" x="634.27" y="841" width="30" height="3"/><rect class="cls-7" x="636.73" y="838" width="30" height="3"/><rect class="cls-7" x="639.18" y="835" width="30" height="3"/><rect class="cls-7" x="641.64" y="832" width="30" height="3"/><rect class="cls-7" x="644.09" y="829" width="30" height="3"/><rect class="cls-7" x="646.55" y="826" width="30" height="3"/><rect class="cls-7" x="649" y="823" width="30" height="3"/><rect class="cls-7" x="597" y="860" width="32" height="4"/><rect class="cls-7" x="592.9" y="864" width="32" height="4"/><rect class="cls-7" x="588.8" y="868" width="32" height="4"/><rect class="cls-7" x="584.7" y="872" width="32" height="4"/><rect class="cls-7" x="580.6" y="876" width="32" height="4"/><rect class="cls-7" x="576.5" y="880" width="32" height="4"/><rect class="cls-7" x="572.4" y="884" width="32" height="4"/><rect class="cls-7" x="568.3" y="888" width="32" height="4"/><rect class="cls-7" x="564.2" y="892" width="32" height="4"/><rect class="cls-7" x="560.1" y="896" width="32" height="4"/><rect class="cls-7" x="556" y="900" width="32" height="4"/><rect class="cls-7" x="551.9" y="904" width="32" height="4"/><rect class="cls-7" x="547.8" y="908" width="32" height="4"/><rect class="cls-7" x="543.7" y="912" width="32" height="4"/><rect class="cls-7" x="539.6" y="916" width="32" height="4"/><rect class="cls-7" x="535.5" y="920" width="32" height="4"/><rect class="cls-7" x="531.4" y="924" width="32" height="4"/><rect class="cls-7" x="527.3" y="928" width="32" height="4"/><rect class="cls-7" x="523.2" y="932" width="32" height="4"/><rect class="cls-7" x="519.1" y="936" width="32" height="4"/><rect class="cls-7" x="515" y="940" width="32" height="4"/><polygon class="cls-7" points="500 954 524 952 524 955 501 958 500 954"/><polygon class="cls-7" points="504.13 956.71 528.13 954.71 528.13 957.71 505.13 960.71 504.13 956.71"/><polygon class="cls-7" points="508.25 959.42 532.25 957.42 532.25 960.42 509.25 963.42 508.25 959.42"/><polygon class="cls-7" points="512.38 962.13 536.38 960.13 536.38 963.13 513.38 966.13 512.38 962.13"/><polygon class="cls-7" points="516.5 964.83 540.5 962.83 540.5 965.83 517.5 968.83 516.5 964.83"/><polygon class="cls-7" points="520.63 967.54 544.63 965.54 544.63 968.54 521.63 971.54 520.63 967.54"/><polygon class="cls-7" points="524.75 970.25 548.75 968.25 548.75 971.25 525.75 974.25 524.75 970.25"/><polygon class="cls-7" points="528.88 972.96 552.88 970.96 552.88 973.96 529.88 976.96 528.88 972.96"/><polygon class="cls-7" points="533 975.67 557 973.67 557 976.67 534 979.67 533 975.67"/><polygon class="cls-7" points="537.13 978.38 561.13 976.38 561.13 979.38 538.13 982.38 537.13 978.38"/><polygon class="cls-7" points="541.25 981.08 565.25 979.08 565.25 982.08 542.25 985.08 541.25 981.08"/><polygon class="cls-7" points="545.38 983.79 569.38 981.79 569.38 984.79 546.38 987.79 545.38 983.79"/><polygon class="cls-7" points="549.5 986.5 573.5 984.5 573.5 987.5 550.5 990.5 549.5 986.5"/><polygon class="cls-7" points="553.63 989.21 577.63 987.21 577.63 990.21 554.63 993.21 553.63 989.21"/><polygon class="cls-7" points="557.75 991.92 581.75 989.92 581.75 992.92 558.75 995.92 557.75 991.92"/><polygon class="cls-7" points="561.88 994.63 585.88 992.63 585.88 995.63 562.88 998.63 561.88 994.63"/><polygon class="cls-7" points="566 997.33 590 995.33 590 998.33 567 1001.33 566 997.33"/><polygon class="cls-7" points="570.13 1000.04 594.13 998.04 594.13 1001.04 571.13 1004.04 570.13 1000.04"/><polygon class="cls-7" points="574.25 1002.75 598.25 1000.75 598.25 1003.75 575.25 1006.75 574.25 1002.75"/><polygon class="cls-7" points="578.38 1005.46 602.38 1003.46 602.38 1006.46 579.38 1009.46 578.38 1005.46"/><polygon class="cls-7" points="582.5 1008.17 606.5 1006.17 606.5 1009.17 583.5 1012.17 582.5 1008.17"/><polygon class="cls-7" points="586.63 1010.88 610.63 1008.88 610.63 1011.88 587.63 1014.88 586.63 1010.88"/><polygon class="cls-7" points="590.75 1013.58 614.75 1011.58 614.75 1014.58 591.75 1017.58 590.75 1013.58"/><polygon class="cls-7" points="594.88 1016.29 618.88 1014.29 618.88 1017.29 595.88 1020.29 594.88 1016.29"/><polygon class="cls-7" points="599 1019 623 1017 623 1020 600 1023 599 1019"/><polygon class="cls-7" points="650 1023 627 1029 600 1023 623 1020 650 1023"/><polygon class="cls-7" points="627 1029 650 1023 650 1026 627 1032 627 1029"/><polygon class="cls-7" points="629.9 1031.02 652.88 1024.95 652.88 1027.95 629.91 1034.02 629.9 1031.02"/><polygon class="cls-7" points="632.8 1033.05 655.75 1026.9 655.77 1029.9 632.82 1036.05 632.8 1033.05"/><polygon class="cls-7" points="635.7 1035.07 658.63 1028.85 658.65 1031.85 635.73 1038.07 635.7 1035.07"/><polygon class="cls-7" points="638.6 1037.1 661.5 1030.8 661.54 1033.8 638.63 1040.09 638.6 1037.1"/><polygon class="cls-7" points="641.5 1039.12 664.38 1032.75 664.42 1035.75 641.54 1042.12 641.5 1039.12"/><polygon class="cls-7" points="644.39 1041.14 667.25 1034.7 667.31 1037.7 644.45 1044.14 644.39 1041.14"/><polygon class="cls-7" points="647.29 1043.17 670.13 1036.65 670.19 1039.65 647.36 1046.16 647.29 1043.17"/><polygon class="cls-7" points="650.19 1045.19 673 1038.6 673.08 1041.6 650.27 1048.19 650.19 1045.19"/><polygon class="cls-7" points="653.09 1047.22 675.88 1040.56 675.96 1043.55 653.18 1050.21 653.09 1047.22"/><polygon class="cls-7" points="655.99 1049.24 678.75 1042.51 678.85 1045.5 656.09 1052.23 655.99 1049.24"/><polygon class="cls-7" points="658.89 1051.26 681.63 1044.46 681.73 1047.45 659 1054.26 658.89 1051.26"/><polygon class="cls-7" points="661.79 1053.29 684.5 1046.41 684.62 1049.4 661.9 1056.28 661.79 1053.29"/><polygon class="cls-7" points="664.69 1055.31 687.38 1048.36 687.5 1051.35 664.81 1058.3 664.69 1055.31"/><polygon class="cls-7" points="667.59 1057.34 690.25 1050.31 690.39 1053.3 667.72 1060.33 667.59 1057.34"/><polygon class="cls-7" points="670.49 1059.36 693.13 1052.26 693.27 1055.25 670.63 1062.35 670.49 1059.36"/><polygon class="cls-7" points="673.38 1061.38 696 1054.21 696.16 1057.2 673.54 1064.38 673.38 1061.38"/><polygon class="cls-7" points="676.28 1063.41 698.88 1056.16 699.04 1059.15 676.45 1066.4 676.28 1063.41"/><polygon class="cls-7" points="679.18 1065.43 701.75 1058.11 701.93 1061.1 679.36 1068.42 679.18 1065.43"/><polygon class="cls-7" points="682.08 1067.46 704.63 1060.06 704.81 1063.05 682.27 1070.44 682.08 1067.46"/><polygon class="cls-7" points="684.98 1069.48 707.5 1062.01 707.7 1065 685.17 1072.47 684.98 1069.48"/><polygon class="cls-7" points="687.88 1071.5 710.38 1063.96 710.58 1066.95 688.08 1074.49 687.88 1071.5"/><polygon class="cls-7" points="690.78 1073.53 713.25 1065.91 713.47 1068.9 690.99 1076.52 690.78 1073.53"/><polygon class="cls-7" points="693.68 1075.55 716.13 1067.86 716.35 1070.85 693.9 1078.54 693.68 1075.55"/><polygon class="cls-7" points="696.58 1077.58 719 1069.81 719.24 1072.8 696.81 1080.56 696.58 1077.58"/><polygon class="cls-7" points="699.48 1079.6 721.88 1071.76 722.12 1074.75 699.72 1082.59 699.48 1079.6"/><polygon class="cls-7" points="702.37 1081.62 724.75 1073.71 725 1076.7 702.63 1084.61 702.37 1081.62"/><polygon class="cls-7" points="705.27 1083.65 727.63 1075.66 727.89 1078.65 705.54 1086.63 705.27 1083.65"/><polygon class="cls-7" points="708.17 1085.67 730.5 1077.62 730.77 1080.6 708.45 1088.66 708.17 1085.67"/><polygon class="cls-7" points="711.07 1087.7 733.38 1079.57 733.66 1082.55 711.35 1090.68 711.07 1087.7"/><polygon class="cls-7" points="713.97 1089.72 736.25 1081.52 736.54 1084.5 714.26 1092.7 713.97 1089.72"/><polygon class="cls-7" points="716.87 1091.74 739.13 1083.47 739.43 1086.45 717.17 1094.73 716.87 1091.74"/><polygon class="cls-7" points="719.77 1093.77 742 1085.42 742.31 1088.4 720.08 1096.75 719.77 1093.77"/><polygon class="cls-7" points="722.67 1095.79 744.88 1087.37 745.2 1090.35 722.99 1098.77 722.67 1095.79"/><polygon class="cls-7" points="725.57 1097.82 747.75 1089.32 748.08 1092.3 725.9 1100.8 725.57 1097.82"/><polygon class="cls-7" points="728.47 1099.84 750.63 1091.27 750.97 1094.25 728.81 1102.82 728.47 1099.84"/><polygon class="cls-7" points="731.36 1101.86 753.5 1093.22 753.85 1096.2 731.72 1104.84 731.36 1101.86"/><polygon class="cls-7" points="734.26 1103.89 756.38 1095.17 756.74 1098.15 734.62 1106.87 734.26 1103.89"/><polygon class="cls-7" points="757 1098 772 1099 767 1108 734 1107 757 1098"/><rect class="cls-7" x="735" y="1107" width="33" height="4"/><rect class="cls-7" x="733" y="1111" width="32.89" height="4"/><rect class="cls-7" x="731" y="1115" width="32.78" height="4"/><rect class="cls-7" x="729" y="1119" width="32.67" height="4"/><rect class="cls-7" x="727" y="1123" width="32.56" height="4"/><rect class="cls-7" x="725" y="1127" width="32.44" height="4"/><rect class="cls-7" x="723" y="1131" width="32.33" height="4"/><rect class="cls-7" x="721" y="1135" width="32.22" height="4"/><rect class="cls-7" x="719" y="1139" width="32.11" height="4"/><rect class="cls-7" x="717" y="1143" width="32" height="4"/><polygon class="cls-7" points="740.82 1156.78 706.15 1155.38 706.33 1151.38 741 1152.78 740.82 1156.78"/><polygon class="cls-7" points="739.42 1160.56 704.05 1159.13 704.22 1155.13 739.6 1156.56 739.42 1160.56"/><polygon class="cls-7" points="738.02 1164.34 701.94 1162.88 702.12 1158.88 738.2 1160.34 738.02 1164.34"/><polygon class="cls-7" points="736.61 1168.11 699.84 1166.63 700.02 1162.63 736.79 1164.12 736.61 1168.11"/><polygon class="cls-7" points="735.21 1171.89 697.74 1170.38 697.92 1166.38 735.39 1167.9 735.21 1171.89"/><polygon class="cls-7" points="733.81 1175.67 695.64 1174.13 695.82 1170.13 733.99 1171.67 733.81 1175.67"/><polygon class="cls-7" points="732.41 1179.45 693.54 1177.88 693.72 1173.88 732.59 1175.45 732.41 1179.45"/><polygon class="cls-7" points="731 1183.23 691.44 1181.63 691.61 1177.63 731.18 1179.23 731 1183.23"/><polygon class="cls-7" points="729.6 1187.01 689.33 1185.38 689.51 1181.38 729.78 1183.01 729.6 1187.01"/><polygon class="cls-7" points="728.2 1190.78 687.23 1189.13 687.41 1185.13 728.38 1186.79 728.2 1190.78"/><polygon class="cls-7" points="726.98 1190.57 726.97 1190.73 726.96 1190.87 685.22 1190.87 685.31 1188.88 687.24 1188.96 726.98 1190.57"/><polygon class="cls-7" points="652 862 598 862 622 859 652 859 652 862"/><polygon class="cls-7" points="515 944 507 944 456 950 456 953 500 954 524 952 524.02 943.93 515 944"/><polygon class="cls-7" points="712 1147 745.73 1147.06 742 1155 706 1152 708 1148 712 1147"/><rect class="cls-6" x="669" y="794" width="112" height="135"/><path class="cls-8" d="M796.53,718l.32-1.09A3.65,3.65,0,0,0,800,713.5a3.5,3.5,0,0,0-2.31-3.15V709l-2.31-30,3.46-1V668s-1.15-2-4.62-2c0-7-4.63-118-4.63-118l-8.09-5-8.09,5s-4.63,111-4.63,118c-3.47,0-4.62,2-4.62,2v10l3.46,1-2.31,30v1.35A3.5,3.5,0,0,0,763,713.5a3.65,3.65,0,0,0,3.15,3.41l.32,1.09v9h-2.31v43h34.68V727h-2.31Z"/><path class="cls-8" d="M1122.53,718l.32-1.09a3.65,3.65,0,0,0,3.15-3.41,3.5,3.5,0,0,0-2.31-3.15V709l-2.31-30,3.46-1V668s-1.15-2-4.62-2c0-7-4.63-118-4.63-118l-8.09-5-8.09,5s-4.63,111-4.63,118c-3.47,0-4.62,2-4.62,2v10l3.46,1-2.31,30v1.35a3.5,3.5,0,0,0-2.31,3.15,3.65,3.65,0,0,0,3.15,3.41l.32,1.09v9h-2.31v43h34.68V727h-2.31Z"/><path class="cls-9" d="M1500,1190.87h-71.7c-2.24-2.74-4.52-5.47-6.8-8.22s-4.65-5.56-7-8.35c-11.48-13.62-23.35-27.31-35.47-41l-4.7-5.28q-4.14-4.65-8.33-9.28l-1.49-1.65q-4.92-5.45-9.88-10.88-9.51-10.43-19.13-20.74-4-4.29-8-8.55-13.21-14.09-26.5-27.91-4.5-4.68-9-9.33c-15.14-15.65-30.18-30.92-44.91-45.65q-4-4-7.95-7.93c-13.42-13.35-26.52-26.21-39.14-38.47l-7-6.78q-12-11.64-23.39-22.46l-7.29-6.95c-12.69-12.06-24.55-23.19-35.32-33.23l-5-4.65-7.79-7.22q-4.65-4.3-9-8.25c-10.12-9.31-18.65-17.07-25.26-23l-.62-.57c-9.24-8.34-14.54-13-14.91-13.36l15.53-17.6,21.53-24.39c.54.48,43.33,38.31,103.08,95.17l3.15,3q12.88,12.27,26.7,25.65,10.9,10.56,22.28,21.71,7,6.87,13.86,13.66l8,7.9q6.78,6.75,13.43,13.42,4.55,4.55,9,9.05,13.53,13.66,26.5,27l8,8.26q15.69,16.25,30.5,32,9.23,9.8,18.1,19.4,5,5.43,9.93,10.8,8.6,9.4,16.85,18.59,5.38,6,10.62,11.9,7.65,8.64,15,17.1,5.07,5.84,10,11.58,19.65,23,37,44.57,5.1,6.35,10,12.59Q1496.82,1186.73,1500,1190.87Z"/><path class="cls-9" d="M1639.24,1190.87h-76.41c-2.42-2.48-4.88-5-7.39-7.5-18.83-18.95-39.83-39-61.94-59.42q-5-4.59-10-9.19c-12.12-11.08-24.51-22.22-37-33.32l-10-8.85-3.52-3.1-5.26-4.62c-2.07-1.82-4.15-3.64-6.22-5.44q-3.49-3.08-7-6.11-4.32-3.77-8.65-7.51-5.4-4.68-10.79-9.32-14.68-12.65-29.06-24.84c-10.39-8.82-20.59-17.41-30.5-25.71l-8-6.68c-9.14-7.64-18-15-26.5-22l-9-7.43-10.24-8.41q-4.37-3.58-8.56-7c-15-12.25-28.13-22.89-38.74-31.42-17.59-14.16-28.23-22.56-28.79-23l2.09-2.65,1.23-1.56L1240.33,836c4.63,3.65,47.09,37.17,104.14,84.4q10.46,8.65,21.53,17.91l11.82,9.89,8.15,6.86c9.33,7.86,18.87,15.94,28.53,24.2q3.49,3,7,6l2.18,1.87q5.37,4.62,10.8,9.29l2,1.75q5,4.3,10,8.66,8.7,7.55,17.43,15.21l5.26,4.62q7.17,6.3,14.31,12.66l5,4.44c.85.76,1.7,1.51,2.54,2.28l2.47,2.2c21.29,19,42.2,38.22,61.94,57q5.05,4.8,10,9.55c9.33,9,18.36,17.81,27,26.47q5.1,5.1,10,10.12l4.66,4.79q9.63,9.95,18.38,19.44l2.38,2.6c1.58,1.74,3.14,3.45,4.68,5.16Q1636,1187.14,1639.24,1190.87Z"/><polygon class="cls-6" points="1565.44 993.2 1565.44 1190.87 1555.44 1190.87 1555.44 989.91 1565.44 993.2"/><polygon class="cls-6" points="1602.44 1005.39 1602.44 1190.87 1592.44 1190.87 1592.44 1002.09 1602.44 1005.39"/><path class="cls-6" d="M1414.5,1003v27.92l7-12.08V990.88Zm0,0v27.92l7-12.08V990.88Zm0,0v27.92l7-12.08V990.88Zm0,0v27.92l7-12.08V990.88Zm0,0v27.92l7-12.08V990.88Zm0,0v27.92l7-12.08V990.88Zm0,0v27.92l7-12.08V990.88Zm0,0v27.92l7-12.08V990.88Zm0,0v27.92l7-12.08V990.88Zm0,0v27.92l7-12.08V990.88Zm0,0v27.92l7-12.08V990.88Zm0,0v27.92l7-12.08V990.88Zm0,0v27.92l7-12.08V990.88Zm0,0v27.92l7-12.08V990.88Zm0,0v27.92l7-12.08V990.88Zm0,0v27.92l7-12.08V990.88Zm0,0v27.92l7-12.08V990.88Zm0,0v27.92l7-12.08V990.88Zm0,0v27.92l7-12.08V990.88Zm0,0v27.92l7-12.08V990.88Zm0,0v27.92l7-12.08V990.88Zm0,0v27.92l7-12.08V990.88Zm0,0v27.92l7-12.08V990.88Zm187.94,111.48-10-15.87v13.12l10,15.87,11,17.53,4-6.83Zm8.48-106.26-8.48,6.73v8.92l16.43-13ZM1414.5,1003v27.92l7-12.08V990.88Zm187.94,111.48-10-15.87v13.12l10,15.87,11,17.53,4-6.83Zm8.48-106.26-8.48,6.73v8.92l16.43-13ZM1414.5,1003v27.92l7-12.08V990.88Zm187.94,111.48-10-15.87v13.12l10,15.87,11,17.53,4-6.83Zm8.48-106.26-8.48,6.73v8.92l16.43-13ZM1414.5,1003v27.92l7-12.08V990.88Zm187.94,111.48-10-15.87v13.12l10,15.87,11,17.53,4-6.83Zm8.48-106.26-8.48,6.73v8.92l16.43-13ZM1414.5,1003v27.92l7-12.08V990.88Zm187.94,111.48-10-15.87v13.12l10,15.87,11,17.53,4-6.83Zm8.48-106.26-8.48,6.73v8.92l16.43-13ZM1414.5,1003v27.92l7-12.08V990.88Zm187.94,111.48-10-15.87v13.12l10,15.87,11,17.53,4-6.83Zm8.48-106.26-8.48,6.73v8.92l16.43-13ZM1414.5,1003v27.92l7-12.08V990.88Zm187.94,111.48-10-15.87v13.12l10,15.87,11,17.53,4-6.83Zm8.48-106.26-8.48,6.73v8.92l16.43-13ZM1414.5,1003v27.92l7-12.08V990.88Zm187.94,111.48-10-15.87v13.12l10,15.87,11,17.53,4-6.83Zm8.48-106.26-8.48,6.73v8.92l16.43-13ZM1414.5,1003v27.92l7-12.08V990.88Zm187.94,111.48-10-15.87v13.12l10,15.87,11,17.53,4-6.83Zm8.48-106.26-8.48,6.73v8.92l16.43-13ZM1414.5,1003v27.92l7-12.08V990.88Zm187.94,111.48-10-15.87v13.12l10,15.87,11,17.53,4-6.83Zm8.48-106.26-8.48,6.73v8.92l16.43-13ZM1414.5,1003v27.92l7-12.08V990.88Zm187.94,111.48-10-15.87v13.12l10,15.87,11,17.53,4-6.83Zm8.48-106.26-8.48,6.73v8.92l16.43-13ZM1414.5,1003v27.92l7-12.08V990.88Zm187.94,111.48-10-15.87v13.12l10,15.87,11,17.53,4-6.83Zm8.48-106.26-8.48,6.73v8.92l16.43-13ZM1414.5,1003v27.92l7-12.08V990.88Zm187.94,111.48-10-15.87v13.12l10,15.87,11,17.53,4-6.83Zm8.48-106.26-8.48,6.73v8.92l16.43-13ZM1414.5,1003v27.92l7-12.08V990.88Zm236.1,187.91-15.69-24.9-2.55-4-.35-42.11-.06-6.59-.28-33.59-.27-32.65,3.08,0,0-7-3.18,0-.21-25.14-.19-22.53-20,15.87-8.48,6.73-10,7.92-21.11,16.74-5.89,0-10-.07h-.25l-39.46-62.64-5.82-9.23-4.84,5.72L1493.5,987l-10,11.83-1.24,1.47-31.68-31.68-14.08-14.07-5.72-5.73L1421,939,1416,944h0l3.48,3.49-41.7.73-11.82.21-5.06.09.12,7,4.94-.09,20-.35,28.53-.5v126l-3.62,4.28-36.55,43.27-8.33,9.86-17.17,20.32,5.34,4.52,11.83-14,13-15.42,35.47-42v99.51h7V1083.08l11.48-13.59,3.52-4.16,10-11.84,22.69-26.85,13.51-16,.8.8L1488,1016,1493,1011l-5.74-5.75,6.27-7.42,15.59-18.45,37.8,60-53.39-.37-5,0,0,4.74V1046l2.55,0h2.47l57.82.4,4.12,6.54,10,15.87,27,42.85,10,15.87,11,17.53,11.9,18.88.1,11.57,0,6.61.07,8.72h7l-.06-7.57-.07-8.07,9.86,15.64ZM1463.93,1022l-17.43,20.62-10,11.84-8.78,10.39-6.22,7.36V949.45l56.23,56.23Zm128.51,9.74,10-7.93,16.43-13,5.19-4.11,0,5.84.23,27.4-21.9-.15-10-.07-9.94-.07Zm-31.82,16.3-1-1.57,3,0Zm56.83,90.2-15-23.82-10-15.87-27-42.85-1.07-1.7,1.07-.85,8.31-6.59,18.69.13,10,.07,22,.15.3,35.67.2,24.45.15,18.09.21,25.52Zm-203-135.3v27.92l7-12.08V990.88Zm196.42,5.22-8.48,6.73v8.92l16.43-13Zm-8.48,106.26-10-15.87v13.12l10,15.87,11,17.53,4-6.83ZM1414.5,1003v27.92l7-12.08V990.88Zm196.42,5.22-8.48,6.73v8.92l16.43-13Zm-8.48,106.26-10-15.87v13.12l10,15.87,11,17.53,4-6.83ZM1414.5,1003v27.92l7-12.08V990.88Zm196.42,5.22-8.48,6.73v8.92l16.43-13Zm-8.48,106.26-10-15.87v13.12l10,15.87,11,17.53,4-6.83ZM1414.5,1003v27.92l7-12.08V990.88Zm196.42,5.22-8.48,6.73v8.92l16.43-13Zm-8.48,106.26-10-15.87v13.12l10,15.87,11,17.53,4-6.83ZM1414.5,1003v27.92l7-12.08V990.88Zm196.42,5.22-8.48,6.73v8.92l16.43-13Zm-8.48,106.26-10-15.87v13.12l10,15.87,11,17.53,4-6.83ZM1414.5,1003v27.92l7-12.08V990.88Zm196.42,5.22-8.48,6.73v8.92l16.43-13Zm-8.48,106.26-10-15.87v13.12l10,15.87,11,17.53,4-6.83ZM1414.5,1003v27.92l7-12.08V990.88Zm196.42,5.22-8.48,6.73v8.92l16.43-13Zm-8.48,106.26-10-15.87v13.12l10,15.87,11,17.53,4-6.83ZM1414.5,1003v27.92l7-12.08V990.88Zm196.42,5.22-8.48,6.73v8.92l16.43-13Zm-8.48,106.26-10-15.87v13.12l10,15.87,11,17.53,4-6.83ZM1414.5,1003v27.92l7-12.08V990.88Zm196.42,5.22-8.48,6.73v8.92l16.43-13Zm-8.48,106.26-10-15.87v13.12l10,15.87,11,17.53,4-6.83ZM1414.5,1003v27.92l7-12.08V990.88Zm196.42,5.22-8.48,6.73v8.92l16.43-13Zm-8.48,106.26-10-15.87v13.12l10,15.87,11,17.53,4-6.83ZM1414.5,1003v27.92l7-12.08V990.88Zm196.42,5.22-8.48,6.73v8.92l16.43-13Zm-8.48,106.26-10-15.87v13.12l10,15.87,11,17.53,4-6.83ZM1414.5,1003v27.92l7-12.08V990.88Zm196.42,5.22-8.48,6.73v8.92l16.43-13Zm-8.48,106.26-10-15.87v13.12l10,15.87,11,17.53,4-6.83ZM1414.5,1003v27.92l7-12.08V990.88Zm0,0v27.92l7-12.08V990.88Zm0,0v27.92l7-12.08V990.88Zm0,0v27.92l7-12.08V990.88Zm0,0v27.92l7-12.08V990.88Zm0,0v27.92l7-12.08V990.88Zm0,0v27.92l7-12.08V990.88Zm0,0v27.92l7-12.08V990.88Zm0,0v27.92l7-12.08V990.88Zm0,0v27.92l7-12.08V990.88Zm0,0v27.92l7-12.08V990.88Zm0,0v27.92l7-12.08V990.88Zm0,0v27.92l7-12.08V990.88Zm0,0v27.92l7-12.08V990.88Zm0,0v27.92l7-12.08V990.88Zm0,0v27.92l7-12.08V990.88Zm0,0v27.92l7-12.08V990.88Zm0,0v27.92l7-12.08V990.88Zm0,0v27.92l7-12.08V990.88Zm0,0v27.92l7-12.08V990.88Zm0,0v27.92l7-12.08V990.88Zm0,0v27.92l7-12.08V990.88Zm0,0v27.92l7-12.08V990.88Zm0,0v27.92l7-12.08V990.88Z"/><path class="cls-6" d="M1366,820v370.87H1160.38c-19.44-16.93-38.83-34.16-58.38-50.62V950H803V756h346v64Z"/><polygon class="cls-6" points="909 1146 909 1190.87 795 1190.87 795 1146 839 1146 839 1106 879 1106 879 1146 909 1146"/><path d="M837,778.5v.24c-.67.11-1.34.23-2,.36v-.6Z"/><polygon points="857.5 941.5 857.5 941.85 857.01 941.85 857 941.5 857.5 941.5"/><path d="M932.45,784.43c-7.32-1.55-14.68-2.93-22-4.08,2.51.33,5.2.72,8.06,1.15C922.11,782.05,926.86,783.06,932.45,784.43Z"/><path d="M819,936.5h-.5v0Z"/><path d="M933.5,802c-1.93,0-3.5.45-3.5,1s.88.77,2.14.92l.64.06h0l.7,0c1.93,0,3.5-.45,3.5-1S935.43,802,933.5,802Z"/><polygon points="857.5 941.5 857.5 941.85 857.01 941.85 857 941.5 857.5 941.5"/><path d="M819.05,936c0,.18,0,.34,0,.48h-.53V936Z"/><polygon points="857.5 941.5 857.5 941.85 857.01 941.85 857 941.5 857.5 941.5"/><path d="M937,803c0,.55-1.57,1-3.5,1l-.7,0h0l-.64-.06c-1.26-.15-2.14-.51-2.14-.92s1.57-1,3.5-1S937,802.45,937,803Z"/><path class="cls-10" d="M837,778.5v.24c-.67.11-1.34.23-2,.36v-.6Z"/><path class="cls-10" d="M932.45,784.43c-7.32-1.55-14.68-2.93-22-4.08,2.51.33,5.2.72,8.06,1.15C922.11,782.05,926.86,783.06,932.45,784.43Z"/><path class="cls-10" d="M937,803c0,.55-1.57,1-3.5,1l-.7,0h0l-.64-.06c-1.26-.15-2.14-.51-2.14-.92s1.57-1,3.5-1S937,802.45,937,803Z"/><path class="cls-8" d="M1395.06,1036.49q5.39,4.63,10.79,9.32l8.65-14.93V1003Zm0,0q5.39,4.63,10.79,9.32l8.65-14.93V1003Zm0,0q5.39,4.63,10.79,9.32l8.65-14.93V1003Zm0,0q5.39,4.63,10.79,9.32l8.65-14.93V1003Zm0,0q5.39,4.63,10.79,9.32l8.65-14.93V1003Zm0,0q5.39,4.63,10.79,9.32l8.65-14.93V1003Zm0,0q5.39,4.63,10.79,9.32l8.65-14.93V1003Zm0,0q5.39,4.63,10.79,9.32l8.65-14.93V1003Zm0,0q5.39,4.63,10.79,9.32l8.65-14.93V1003Zm0,0q5.39,4.63,10.79,9.32l8.65-14.93V1003Zm0,0q5.39,4.63,10.79,9.32l8.65-14.93V1003Zm0,0q5.39,4.63,10.79,9.32l8.65-14.93V1003Zm0,0q5.39,4.63,10.79,9.32l8.65-14.93V1003Zm0,0q5.39,4.63,10.79,9.32l8.65-14.93V1003Zm0,0q5.39,4.63,10.79,9.32l8.65-14.93V1003Zm0,0q5.39,4.63,10.79,9.32l8.65-14.93V1003Zm0,0q5.39,4.63,10.79,9.32l8.65-14.93V1003Zm0,0q5.39,4.63,10.79,9.32l8.65-14.93V1003Zm0,0q5.39,4.63,10.79,9.32l8.65-14.93V1003Zm0,0q5.39,4.63,10.79,9.32l8.65-14.93V1003Zm0,0q5.39,4.63,10.79,9.32l8.65-14.93V1003Zm0,0q5.39,4.63,10.79,9.32l8.65-14.93V1003Zm0,0q5.39,4.63,10.79,9.32l8.65-14.93V1003Zm0,0q5.39,4.63,10.79,9.32l8.65-14.93V1003Zm0,0q5.39,4.63,10.79,9.32l8.65-14.93V1003Zm0,0q5.39,4.63,10.79,9.32l8.65-14.93V1003Zm0,0q5.39,4.63,10.79,9.32l8.65-14.93V1003Zm0,0q5.39,4.63,10.79,9.32l8.65-14.93V1003Zm0,0q5.39,4.63,10.79,9.32l8.65-14.93V1003Zm0,0q5.39,4.63,10.79,9.32l8.65-14.93V1003Zm0,0q5.39,4.63,10.79,9.32l8.65-14.93V1003Zm0,0q5.39,4.63,10.79,9.32l8.65-14.93V1003Zm0,0q5.39,4.63,10.79,9.32l8.65-14.93V1003Zm0,0q5.39,4.63,10.79,9.32l8.65-14.93V1003Zm0,0q5.39,4.63,10.79,9.32l8.65-14.93V1003Zm0,0q5.39,4.63,10.79,9.32l8.65-14.93V1003Zm-138.56-324c-49.14-1.83-93.29-3.4-132.89-4.57q-16.6-.48-32.15-.88l-1.94,0-9.52-.23c-28.27-.66-53.86-1-77-1.1-27.34-.07-51.24.34-72.06,1.33-19.62.93-36.5,2.37-50.94,4.41l-3,.44c-14.66,2.21-26.7,5.08-36.44,8.71-21.1,7.86-34.81,13.58-41.72,16.57-3.59,1.55-5.34,2.37-5.34,2.37v-11h-30v43h-9v7h9a117.84,117.84,0,0,0-.32,15.5c.07,1.48.17,3,.32,4.5,6.71.67,7.57,12.15,7.4,19.63-.08,3.66-.4,6.37-.4,6.37l9,1v365.37h78V987.36h.5l188.5-.86,1,84.77v.23l.5.36,3.7,2.68,14,10.13.08.06,14.24,10.33,22,15.94V944.92l.5.58c38.41,46,68.3,84.91,92.14,117.9,43.43,60.07,66.84,100.4,85.24,127.47h91.89c-1.79-2.32-3.71-4.84-5.77-7.52-6.39-8.31-14.07-18.24-22.83-29.4l21.34-36.82,1.49-2.57,28-48.36,11.82-20.39,8.65-14.93,7-12.08,13-22.4,2-3.48v197.95h10V975.66l.44-.77,3.64-6.26,6.46-11.14,26.46,8.72v224.66h10V969.5l11.57,3.81,10.66,3.51,39.71,13.09,10,3.29,27,8.89,10,3.3,8.48,2.79,7.95,2.62,5.24,1.73,7,2.31,28.87,9.51V720.72ZM1083.59,939l1.91-11.48s-.23-.68-.62-1.7l.22.24q6.89,7.37,13.5,15H1085v-2Zm7.41-66.39c-3.7-3.24-7.38-6.39-11-9.41l-1.43-1.2.81-27.46,0-1.42.58.19,37.57,12.37-12.31,12.47Zm-20,66.25-49.79-.56a108.62,108.62,0,0,1-.73-11.78c8.93-17,24.44-30.79,30-35.38,8.48,8,17,16.43,25.34,25.09-4.21,3.1-10.31,15.29-10.31,15.29l-1,7Zm-239.43-2.68c19.68-72.91,45.67-104.51,66.59-119.08,1.08-.57,2.19-1.1,3.32-1.58,30-18,42.88-7.5,42.88-7.5l19.13,12.3c-56.28,26.81-79.09,101.05-83.29,116.4Zm25.91,5.34v.35H857v-.35Zm52.94-161.15c2.51.33,5.2.72,8.06,1.15,3.61.55,8.36,1.56,14,2.93C925.13,782.88,917.77,781.5,910.44,780.35Zm64,47h0c9.28,6.74,19.6,14.69,30.52,23.61-38.8,23-61.64,77.81-65,86.36l-43.33-.48C909.55,865,959.73,834.81,974.43,827.4ZM957.5,937.5c13.76-44,46.36-71.37,56.42-79,8.29,7,16.85,14.47,25.5,22.38-8.1,4.19-37.92,46.66-37.92,46.66v10.56l-44.65-.5ZM835,778.5h2v.24c21.94-3.78,47.41-2.49,73.27,1.59-26.3-3.49-33.77-1.83-33.77-1.83v40.14a57.13,57.13,0,0,0-6.3,6.6l.27.5c-.83.63-1.65,1.28-2.46,1.94l0,0c-.85.87-1.68,1.77-2.49,2.67V778.5h-2v54.15a139.12,139.12,0,0,0-9,11.67V778.5h-2v68.75c-2.1,3.17-4.1,6.41-6,9.69V778.5h-2v82c-2.72,4.92-5.21,9.9-7.5,14.84V778.74c-.67.11-1.34.23-2,.36V879.75c-2.22,5-4.21,10-6,14.75V780.39q3-.72,6-1.29Zm-8,2.39V900c-2,5.52-3.62,10.69-5,15.3v-133Q824.46,781.54,827,780.89Zm-8.5,2.61c.5-.18,1-.35,1.5-.51V922.87c-.58,7.42-.84,11.23-1,13.15,0,.18,0,.34,0,.48h-.53ZM1122,901.15c-7.4-7.12-14.71-14-21.9-20.46l14.11-14.31,7.79-7.89Zm5,4.85V853.43l3.38-3.42.09-.1,62.33,20.53-30.48,41-12.72,17.13Q1138.23,917,1127,906Zm66,68.76c-12.08-13.28-24.24-26.32-36.36-38.88l13-17.45L1193,886.94Zm7,7.74v-105l1.51-2-1.51-1.12v-1.54l4.61,1.52,4.38,1.44,83,27.34v2.73l-18.8,28.56-2.6,4-31.46,47.78-15.29,23.23Q1212,995.89,1200,982.5Zm92,107.57c-18.73-22.9-39.26-47.43-60.65-72.09l15.74-23.91,31.48-47.81,3.19-4.85L1292,925.86Zm35.5,44c-8.22-10.35-17.1-21.42-26.5-33V912.19l1.09-1.67-1.09-.72v-3.71l26.5,8.73ZM1436.5,965l-12.82,22.11-2.18,3.77-7,12.08-19.44,33.53-11,18.91-18.1,31.23-11.37,19.62-19.13,33V917.45l9,2.95,21.53,7.1L1416,944l14.74,4.85,5.72,1.89Zm-41.44,71.49q5.39,4.63,10.79,9.32l8.65-14.93V1003Zm0,0q5.39,4.63,10.79,9.32l8.65-14.93V1003Zm0,0q5.39,4.63,10.79,9.32l8.65-14.93V1003Zm0,0q5.39,4.63,10.79,9.32l8.65-14.93V1003Zm0,0q5.39,4.63,10.79,9.32l8.65-14.93V1003Zm0,0q5.39,4.63,10.79,9.32l8.65-14.93V1003Zm0,0q5.39,4.63,10.79,9.32l8.65-14.93V1003Zm0,0q5.39,4.63,10.79,9.32l8.65-14.93V1003Zm0,0q5.39,4.63,10.79,9.32l8.65-14.93V1003Zm0,0q5.39,4.63,10.79,9.32l8.65-14.93V1003Zm0,0q5.39,4.63,10.79,9.32l8.65-14.93V1003Zm0,0q5.39,4.63,10.79,9.32l8.65-14.93V1003Zm0,0q5.39,4.63,10.79,9.32l8.65-14.93V1003Zm257.57,41L1632,1113.22l-.5.87-6.4,11.05-7.6,13.12-4,6.83-6.38,11-4.66,8.05-10,17.26-5.48,9.46h33.52l5-8.72,2.33-4,7.05-12.17,2.82-4.87,22.27-38.43v-57.85Zm-257.57-41q5.39,4.63,10.79,9.32l8.65-14.93V1003Zm0,0q5.39,4.63,10.79,9.32l8.65-14.93V1003Zm0,0q5.39,4.63,10.79,9.32l8.65-14.93V1003Zm0,0q5.39,4.63,10.79,9.32l8.65-14.93V1003Zm0,0q5.39,4.63,10.79,9.32l8.65-14.93V1003Zm0,0q5.39,4.63,10.79,9.32l8.65-14.93V1003Zm0,0q5.39,4.63,10.79,9.32l8.65-14.93V1003Zm0,0q5.39,4.63,10.79,9.32l8.65-14.93V1003Zm0,0q5.39,4.63,10.79,9.32l8.65-14.93V1003Zm0,0q5.39,4.63,10.79,9.32l8.65-14.93V1003Zm0,0q5.39,4.63,10.79,9.32l8.65-14.93V1003Zm0,0q5.39,4.63,10.79,9.32l8.65-14.93V1003Zm0,0q5.39,4.63,10.79,9.32l8.65-14.93V1003Zm0,0q5.39,4.63,10.79,9.32l8.65-14.93V1003Zm0,0q5.39,4.63,10.79,9.32l8.65-14.93V1003Zm0,0q5.39,4.63,10.79,9.32l8.65-14.93V1003Zm0,0q5.39,4.63,10.79,9.32l8.65-14.93V1003Zm0,0q5.39,4.63,10.79,9.32l8.65-14.93V1003Zm0,0q5.39,4.63,10.79,9.32l8.65-14.93V1003Zm0,0q5.39,4.63,10.79,9.32l8.65-14.93V1003Zm0,0q5.39,4.63,10.79,9.32l8.65-14.93V1003Zm0,0q5.39,4.63,10.79,9.32l8.65-14.93V1003Z"/><path class="cls-8" d="M1098.6,941h-.95q-6.45-7.75-12.55-15Q1092,933.41,1098.6,941Z"/><path class="cls-8" d="M1194.64,1063.4c-32.25-42.56-64.63-83.35-92.64-117.17v-1.31l.5.58C1140.91,991.47,1170.8,1030.41,1194.64,1063.4Z"/><path class="cls-3" d="M1167.59,1190.87H922.36L909,1166.33,897.93,1146,879,1111.21l-.66-1.21H858V986.5h188.5v84l1,.77.5.39,3.7,2.88,3.3,2.57v9.61l47,43.48Z"/><polygon class="cls-6" points="1048 986.5 1048 1090.5 1026.83 1090.5 1026.83 1015.5 878.67 1015.5 878.67 1094.5 857.5 1094.5 857.5 986.5 1048 986.5"/><path class="cls-7" d="M946.93,1190.87h-51.2c-11-20.33-34.44-63.29-38.23-69.37v-27l.5,0,3.91.36,0-.41,1.57-28s6.13,8.75,15.17,21.83C898.77,1117.39,933.28,1167.8,946.93,1190.87Z"/><path class="cls-7" d="M1199.16,1190.87h-38.78c-19.44-16.93-38.83-34.16-58.38-50.62-21.12-17.77-42.44-34.64-64.24-49.27l.2-.48,8.54-20,1,.77.5.39,3.7,2.88,3.3,2.57c2.75,2.14,6.41,4.68,10.68,7.56l.08.06c4.24,2.86,9.08,6.07,14.24,9.56,7,4.72,14.54,10,22,15.62q2,1.53,4,3.09C1140.89,1140.34,1180.39,1174.07,1199.16,1190.87Z"/><polygon class="cls-11" points="618 987 618 1190.87 0 1190.87 0 792 4 792 23 784 23 768 52 768 52 782 97 782 97 774 124 774 124 779 220 779 220 782 227 784 227 782 251 782 251 792 427 857 427 860 439 860 439 863 436 863 436 867 433 867 433 909 455 912 455 939 465 940 465 948 456 948 456.07 949.99 456.11 951 456.18 953 457 976 537.92 981.53 541.42 981.77 542.34 981.83 556.9 982.83 556.93 982.83 558.63 982.94 558.65 982.94 569.38 983.68 618 987"/><path class="cls-11" d="M1660,1076.8V1170l-22.27-8.94L1635,1160s-1.38-22.74-3-40.19c-.18-2-.37-3.91-.56-5.72-.15-1.44-.3-2.81-.45-4.09a43.6,43.6,0,0,1-6.1-3c-14.82-8.83-5.71-19.6-.2-24.45a33.13,33.13,0,0,1,3.3-2.6l3.67-.37,21-2.09Z"/></svg>