<svg id="Calque_15" data-name="Calque 15" xmlns="http://www.w3.org/2000/svg" viewBox="0 0 1721 1196"><defs><style>.cls-1{fill:#cae2e6;}.cls-2{fill:#284246;}.cls-3{fill:#3c6269;}.cls-4{fill:#325257;}.cls-5{fill:#46737a;}.cls-6{fill:#578e97;}.cls-7{fill:#64a3ae;}.cls-8{fill:#6aaeba;}.cls-9{fill:#50838b;}.cls-10{fill:#e240da;}.cls-11{fill:#88bec8;}</style></defs><polygon class="cls-1" points="1721 0 1721 1191 1693.5 1191 1693.5 1194 35 1194 35 1191 0 1191 0 0 1721 0"/><path class="cls-2" d="M1536.5,466.5v-3l-10-1.53-3-.47-.06-.1-3.56-6.44-.84-1.53L1476.5,376.5l-.8-18.5h1.3v-1h-1.35l-.15-3.5-.3,3.5H1474v1h1.11l-1.61,18.5-27,52-15-13h-6v-15l-2-4v-2l2-3-2-1v-31h2l-13-63-9,57-12-34v-12h-3l-4,12-5,1-4-9-40-215-36,215-8,21h-5v3l-8,21h-5l-10-64-10,68-2,2V373h2.5v14l-9-12-38,67-15.5-1.5-2.12,4.78L1003,470l-.46,1.33,0-.83-6-5-10-10-16-3v-49l4-5-3-4v-49l3-4-3-4v-36h-1.63l-.22-.8h1v-4.8H973v-1.2h-2.4v-2.4h-1.2v2.4h-1.35l-7.45-28V262.9H963v-1.2h-2.4v-2.4h-1.2v2.4H957v1.2h2.4v3.39l-5.89,28.41h-.91v-2.4h-1.2v2.4H949v1.2h2.4v4.8h.87l-.17.8h-1.6l-1,12v13l-15-3-10-8-18-68h-.23c1.64-.62,2.73-1.7,2.73-2.93s-1.24-2.46-3.08-3.06A7.09,7.09,0,0,0,911,235a7,7,0,0,0-4.73-6.38L903.74,209c1.29-.17,2.26-.75,2.26-1.45s-1.16-1.39-2.64-1.48l-.78-6-.61,6.1c-1.15.21-2,.75-2,1.4s.7,1.1,1.7,1.35l-2,19.77a6.69,6.69,0,0,0,.36,12.89c-1.84.6-3.08,1.74-3.08,3.06s1.09,2.31,2.73,2.93h-.23l-19,71-10,6-14,4v-24h-1.63l-.22-.8h1v-4.8H858v-1.2h-2.4v-2.4h-1.2v2.4h-1.35l-7.45-28V265.9H848v-1.2h-2.4v-2.4h-1.2v2.4H842v1.2h2.4v3.39l-5.89,28.41h-.91v-2.4h-1.2v2.4H834v1.2h2.4v4.8h.87l-.17.8h-1.6v32l-6,4v9h3v45l-2,2v6c2,1,2,5,2,5h-3l-3,8h2v7h-1v3h2v4h1v16h-1v4h-7l-11,10h3v39l-4,7h2V514H812V707h724V514h-19.06l19.56-.5-2-24.54-1-12.46,1-10ZM942,448V417.77s2.25-4.77,4.5-4.77,4.5,4.77,4.5,4.77V448Zm27.4-152.1v3.85l-1-3.85Zm-16.8,0h.66l-.66,3.2ZM941,355s2.75-6,5.5-6,5.5,6,5.5,6v38H941Zm-86,4.77s2.25-4.77,4.5-4.77,4.5,4.77,4.5,4.77V390h-9Zm0,60s2.25-4.77,4.5-4.77,4.5,4.77,4.5,4.77V450h-9Zm-.6-120.87v3.85l-1-3.85ZM839,355s2.75-6,5.5-6,5.5,6,5.5,6v38H839Zm0,65.77s2.25-4.77,4.5-4.77,4.5,4.77,4.5,4.77V451h-9ZM837.6,298.9h.66l-.66,3.2Z"/><path class="cls-3" d="M1694.5,585.91h14v14.94h-14v23.91h8V639.7h-12V740.8l-.5,0V1194H1208.32c-1.08-.93-2.27-1.93-3.54-3-19.8-16.59-61.87-49.82-96.78-77.19l-22-17.21V674.07h-6l4-48.81s-14-6-1-10c2-5,4-7,4-7l1-20.91,4,1,1-5,6-2,5.13-2.33,18.4-8.34L1233,520.67v-6l80-21.91,1-19.92,1.5-3.49,7-1,2,8v12l26-7-1-9,4-8,46-7,4,8v14.94h8l-1-8,3-6,25-2,1,21.91h3V472.36l2-3,21-3,7,7-1,16.94h9v-5h8l1-15.94,20-3v-6h3l1-7h6l.38,1.53,1.62,6.44h5l0,.57,1,10.39,5,5v12l2-.33,34-5.64h6v-12h10v3l18,1v5l18,2,16-41.84,5-4h6l5,4,25,59.77s8,14.94,33,21.91c0,0-5,2-5,5h-11Z"/><polygon class="cls-4" points="986.5 549.5 986.5 541.5 989 539 980 524 952 526 934 513 907 420 883 498 854 501 819 532 804 531 795 538 762 534 703 568 724.5 677.5 883 708.81 883 729 1009 729 1009 702.53 1009.5 702.5 1009.5 612.5 1009.5 572.5 1012.5 570.5 1019.5 570.5 1021.5 567.5 986.5 549.5"/><path class="cls-5" d="M864,679l-52-28.25L799.47,644,783,635H761v-4h-.5V616.5h3v-4l-18-7-41.31-31.42L674.5,551.5l-114-20-101-75-11,1v-3h-15v3l-191,14-4,3h-8v6l-159,99-40,19v2h-6l6,5v4h5l8,6v14h-5l1,3h4l4,1-3,124-10,3v7l0,.5-1,17.5H35V1194H808V784l1-.86L840.6,756,883,719.58l3-2.58V685ZM678.5,783.5v.5H658.33Zm107,417v-.14S785.45,1200.45,785.5,1200.5Z"/><polygon class="cls-6" points="799.99 1194 452 1194 452 953 456 953.17 456 951 508 951 508 955 520 955 521.04 952.75 525.08 944 525.09 943.97 526 942 535 939 554 933 554.78 932 561 924 565.17 920 569.35 916 573.52 912 577.7 908 581.87 904 586.05 900 590.22 896 594.39 892 598.57 888 602.74 884 606.92 880 611.09 876 615.26 872 619.44 868 623.61 864 625.7 862 627.79 860 628.83 859 631.96 856 633 855 651 851 652.03 850 655.14 847 658.24 844 661.34 841 664.45 838 667.55 835 670.66 832 673.76 829 675 827.8 676.86 826 679.97 823 681 822 697 815 776.9 818.13 787 818.53 799 819 799.99 1194"/><rect class="cls-7" x="667" y="812" width="12" height="3"/><rect class="cls-7" x="664" y="815" width="14" height="3"/><rect class="cls-7" x="661" y="818" width="17" height="3"/><rect class="cls-7" x="658" y="820" width="20" height="3"/><rect class="cls-7" x="628" y="856" width="30" height="3"/><rect class="cls-7" x="630.45" y="853" width="30" height="3"/><rect class="cls-7" x="632.91" y="850" width="30" height="3"/><rect class="cls-7" x="635.36" y="847" width="30" height="3"/><rect class="cls-7" x="637.82" y="844" width="30" height="3"/><rect class="cls-7" x="640.27" y="841" width="30" height="3"/><rect class="cls-7" x="642.73" y="838" width="30" height="3"/><rect class="cls-7" x="645.18" y="835" width="30" height="3"/><rect class="cls-7" x="647.64" y="832" width="30" height="3"/><rect class="cls-7" x="650.09" y="829" width="30" height="3"/><rect class="cls-7" x="652.55" y="826" width="30" height="3"/><rect class="cls-7" x="655" y="823" width="30" height="3"/><rect class="cls-7" x="603" y="860" width="32" height="4"/><rect class="cls-7" x="598.9" y="864" width="32" height="4"/><rect class="cls-7" x="594.8" y="868" width="32" height="4"/><rect class="cls-7" x="590.7" y="872" width="32" height="4"/><rect class="cls-7" x="586.6" y="876" width="32" height="4"/><rect class="cls-7" x="582.5" y="880" width="32" height="4"/><rect class="cls-7" x="578.4" y="884" width="32" height="4"/><rect class="cls-7" x="574.3" y="888" width="32" height="4"/><rect class="cls-7" x="570.2" y="892" width="32" height="4"/><rect class="cls-7" x="566.1" y="896" width="32" height="4"/><rect class="cls-7" x="562" y="900" width="32" height="4"/><rect class="cls-7" x="557.9" y="904" width="32" height="4"/><rect class="cls-7" x="553.8" y="908" width="32" height="4"/><rect class="cls-7" x="549.7" y="912" width="32" height="4"/><rect class="cls-7" x="545.6" y="916" width="32" height="4"/><rect class="cls-7" x="541.5" y="920" width="32" height="4"/><rect class="cls-7" x="537.4" y="924" width="32" height="4"/><rect class="cls-7" x="533.3" y="928" width="32" height="4"/><rect class="cls-7" x="529.2" y="932" width="32" height="4"/><rect class="cls-7" x="525.1" y="936" width="32" height="4"/><rect class="cls-7" x="521" y="940" width="32" height="4"/><polygon class="cls-7" points="506 954 530 952 530 955 507 958 506 954"/><polygon class="cls-7" points="510.13 956.71 534.13 954.71 534.13 957.71 511.13 960.71 510.13 956.71"/><polygon class="cls-7" points="514.25 959.42 538.25 957.42 538.25 960.42 515.25 963.42 514.25 959.42"/><polygon class="cls-7" points="518.38 962.13 542.38 960.13 542.38 963.13 519.38 966.13 518.38 962.13"/><polygon class="cls-7" points="522.5 964.83 546.5 962.83 546.5 965.83 523.5 968.83 522.5 964.83"/><polygon class="cls-7" points="526.63 967.54 550.63 965.54 550.63 968.54 527.63 971.54 526.63 967.54"/><polygon class="cls-7" points="530.75 970.25 554.75 968.25 554.75 971.25 531.75 974.25 530.75 970.25"/><polygon class="cls-7" points="534.88 972.96 558.88 970.96 558.88 973.96 535.88 976.96 534.88 972.96"/><polygon class="cls-7" points="539 975.67 563 973.67 563 976.67 540 979.67 539 975.67"/><polygon class="cls-7" points="543.13 978.38 567.13 976.38 567.13 979.38 544.13 982.38 543.13 978.38"/><polygon class="cls-7" points="547.25 981.08 571.25 979.08 571.25 982.08 548.25 985.08 547.25 981.08"/><polygon class="cls-7" points="551.38 983.79 575.38 981.79 575.38 984.79 552.38 987.79 551.38 983.79"/><polygon class="cls-7" points="555.5 986.5 579.5 984.5 579.5 987.5 556.5 990.5 555.5 986.5"/><polygon class="cls-7" points="559.63 989.21 583.63 987.21 583.63 990.21 560.63 993.21 559.63 989.21"/><polygon class="cls-7" points="563.75 991.92 587.75 989.92 587.75 992.92 564.75 995.92 563.75 991.92"/><polygon class="cls-7" points="567.88 994.63 591.88 992.63 591.88 995.63 568.88 998.63 567.88 994.63"/><polygon class="cls-7" points="572 997.33 596 995.33 596 998.33 573 1001.33 572 997.33"/><polygon class="cls-7" points="576.13 1000.04 600.13 998.04 600.13 1001.04 577.13 1004.04 576.13 1000.04"/><polygon class="cls-7" points="580.25 1002.75 604.25 1000.75 604.25 1003.75 581.25 1006.75 580.25 1002.75"/><polygon class="cls-7" points="584.38 1005.46 608.38 1003.46 608.38 1006.46 585.38 1009.46 584.38 1005.46"/><polygon class="cls-7" points="588.5 1008.17 612.5 1006.17 612.5 1009.17 589.5 1012.17 588.5 1008.17"/><polygon class="cls-7" points="592.63 1010.88 616.63 1008.88 616.63 1011.88 593.63 1014.88 592.63 1010.88"/><polygon class="cls-7" points="596.75 1013.58 620.75 1011.58 620.75 1014.58 597.75 1017.58 596.75 1013.58"/><polygon class="cls-7" points="600.88 1016.29 624.88 1014.29 624.88 1017.29 601.88 1020.29 600.88 1016.29"/><polygon class="cls-7" points="605 1019 629 1017 629 1020 606 1023 605 1019"/><polygon class="cls-7" points="656 1023 633 1029 606 1023 629 1020 656 1023"/><polygon class="cls-7" points="633 1029 656 1023 656 1026 633 1032 633 1029"/><polygon class="cls-7" points="635.9 1031.02 658.88 1024.95 658.88 1027.95 635.91 1034.02 635.9 1031.02"/><polygon class="cls-7" points="638.8 1033.05 661.75 1026.9 661.77 1029.9 638.82 1036.05 638.8 1033.05"/><polygon class="cls-7" points="641.7 1035.07 664.63 1028.85 664.65 1031.85 641.73 1038.07 641.7 1035.07"/><polygon class="cls-7" points="644.6 1037.1 667.5 1030.8 667.54 1033.8 644.63 1040.09 644.6 1037.1"/><polygon class="cls-7" points="647.5 1039.12 670.38 1032.75 670.42 1035.75 647.54 1042.12 647.5 1039.12"/><polygon class="cls-7" points="650.39 1041.14 673.25 1034.7 673.31 1037.7 650.45 1044.14 650.39 1041.14"/><polygon class="cls-7" points="653.29 1043.17 676.13 1036.65 676.19 1039.65 653.36 1046.16 653.29 1043.17"/><polygon class="cls-7" points="656.19 1045.19 679 1038.6 679.08 1041.6 656.27 1048.19 656.19 1045.19"/><polygon class="cls-7" points="659.09 1047.22 681.88 1040.56 681.96 1043.55 659.18 1050.21 659.09 1047.22"/><polygon class="cls-7" points="661.99 1049.24 684.75 1042.51 684.85 1045.5 662.09 1052.23 661.99 1049.24"/><polygon class="cls-7" points="664.89 1051.26 687.63 1044.46 687.73 1047.45 665 1054.26 664.89 1051.26"/><polygon class="cls-7" points="667.79 1053.29 690.5 1046.41 690.62 1049.4 667.9 1056.28 667.79 1053.29"/><polygon class="cls-7" points="670.69 1055.31 693.38 1048.36 693.5 1051.35 670.81 1058.3 670.69 1055.31"/><polygon class="cls-7" points="673.59 1057.34 696.25 1050.31 696.39 1053.3 673.72 1060.33 673.59 1057.34"/><polygon class="cls-7" points="676.49 1059.36 699.13 1052.26 699.27 1055.25 676.63 1062.35 676.49 1059.36"/><polygon class="cls-7" points="679.38 1061.38 702 1054.21 702.16 1057.2 679.54 1064.38 679.38 1061.38"/><polygon class="cls-7" points="682.28 1063.41 704.88 1056.16 705.04 1059.15 682.45 1066.4 682.28 1063.41"/><polygon class="cls-7" points="685.18 1065.43 707.75 1058.11 707.93 1061.1 685.36 1068.42 685.18 1065.43"/><polygon class="cls-7" points="688.08 1067.46 710.63 1060.06 710.81 1063.05 688.27 1070.44 688.08 1067.46"/><polygon class="cls-7" points="690.98 1069.48 713.5 1062.01 713.7 1065 691.17 1072.47 690.98 1069.48"/><polygon class="cls-7" points="693.88 1071.5 716.38 1063.96 716.58 1066.95 694.08 1074.49 693.88 1071.5"/><polygon class="cls-7" points="696.78 1073.53 719.25 1065.91 719.47 1068.9 696.99 1076.52 696.78 1073.53"/><polygon class="cls-7" points="699.68 1075.55 722.13 1067.86 722.35 1070.85 699.9 1078.54 699.68 1075.55"/><polygon class="cls-7" points="702.58 1077.58 725 1069.81 725.24 1072.8 702.81 1080.56 702.58 1077.58"/><polygon class="cls-7" points="705.48 1079.6 727.88 1071.76 728.12 1074.75 705.72 1082.59 705.48 1079.6"/><polygon class="cls-7" points="708.37 1081.62 730.75 1073.71 731 1076.7 708.63 1084.61 708.37 1081.62"/><polygon class="cls-7" points="711.27 1083.65 733.63 1075.66 733.89 1078.65 711.54 1086.63 711.27 1083.65"/><polygon class="cls-7" points="714.17 1085.67 736.5 1077.62 736.77 1080.6 714.45 1088.66 714.17 1085.67"/><polygon class="cls-7" points="717.07 1087.7 739.38 1079.57 739.66 1082.55 717.35 1090.68 717.07 1087.7"/><polygon class="cls-7" points="719.97 1089.72 742.25 1081.52 742.54 1084.5 720.26 1092.7 719.97 1089.72"/><polygon class="cls-7" points="722.87 1091.74 745.13 1083.47 745.43 1086.45 723.17 1094.73 722.87 1091.74"/><polygon class="cls-7" points="725.77 1093.77 748 1085.42 748.31 1088.4 726.08 1096.75 725.77 1093.77"/><polygon class="cls-7" points="728.67 1095.79 750.88 1087.37 751.2 1090.35 728.99 1098.77 728.67 1095.79"/><polygon class="cls-7" points="731.57 1097.82 753.75 1089.32 754.08 1092.3 731.9 1100.8 731.57 1097.82"/><polygon class="cls-7" points="734.47 1099.84 756.63 1091.27 756.97 1094.25 734.81 1102.82 734.47 1099.84"/><polygon class="cls-7" points="737.36 1101.86 759.5 1093.22 759.85 1096.2 737.72 1104.84 737.36 1101.86"/><polygon class="cls-7" points="740.26 1103.89 762.38 1095.17 762.74 1098.15 740.62 1106.87 740.26 1103.89"/><polygon class="cls-7" points="763 1098 778 1099 773 1108 740 1107 763 1098"/><rect class="cls-7" x="741" y="1107" width="33" height="4"/><rect class="cls-7" x="739" y="1111" width="32.89" height="4"/><rect class="cls-7" x="737" y="1115" width="32.78" height="4"/><rect class="cls-7" x="735" y="1119" width="32.67" height="4"/><rect class="cls-7" x="733" y="1123" width="32.56" height="4"/><rect class="cls-7" x="731" y="1127" width="32.44" height="4"/><rect class="cls-7" x="729" y="1131" width="32.33" height="4"/><rect class="cls-7" x="727" y="1135" width="32.22" height="4"/><rect class="cls-7" x="725" y="1139" width="32.11" height="4"/><rect class="cls-7" x="723" y="1143" width="32" height="4"/><polygon class="cls-7" points="746.82 1156.78 712.15 1155.38 712.33 1151.38 747 1152.78 746.82 1156.78"/><polygon class="cls-7" points="745.42 1160.56 710.05 1159.13 710.22 1155.13 745.6 1156.56 745.42 1160.56"/><polygon class="cls-7" points="744.02 1164.34 707.94 1162.88 708.12 1158.88 744.2 1160.34 744.02 1164.34"/><polygon class="cls-7" points="742.61 1168.11 705.84 1166.63 706.02 1162.63 742.79 1164.12 742.61 1168.11"/><polygon class="cls-7" points="741.21 1171.89 703.74 1170.38 703.92 1166.38 741.39 1167.9 741.21 1171.89"/><polygon class="cls-7" points="739.81 1175.67 701.64 1174.13 701.82 1170.13 739.99 1171.67 739.81 1175.67"/><polygon class="cls-7" points="738.41 1179.45 699.54 1177.88 699.72 1173.88 738.59 1175.45 738.41 1179.45"/><polygon class="cls-7" points="737 1183.23 697.44 1181.63 697.61 1177.63 737.18 1179.23 737 1183.23"/><polygon class="cls-7" points="735.6 1187.01 695.33 1185.38 695.51 1181.38 735.78 1183.01 735.6 1187.01"/><polygon class="cls-7" points="734.2 1190.78 693.23 1189.13 693.41 1185.13 734.38 1186.79 734.2 1190.78"/><polygon class="cls-7" points="732.98 1190.57 732.97 1190.73 732.83 1194 732.8 1194.56 731.56 1194.51 718.91 1194 691.13 1192.88 691.14 1192.71 691.31 1188.88 693.24 1188.96 732.98 1190.57"/><polygon class="cls-7" points="731.57 1194.34 731.56 1194.51 718.91 1194 689.15 1194 689.21 1192.63 691.14 1192.71 723.15 1194 731.57 1194.34"/><polygon class="cls-7" points="658 862 604 862 628 859 658 859 658 862"/><polygon class="cls-7" points="521 944 513 944 462 950 462 953 506 954 530 952 530.02 943.93 521 944"/><polygon class="cls-7" points="718 1147 751.73 1147.06 748 1155 712 1152 714 1148 718 1147"/><rect class="cls-6" x="675" y="794" width="112" height="135"/><path class="cls-8" d="M802.53,718l.32-1.09A3.65,3.65,0,0,0,806,713.5a3.5,3.5,0,0,0-2.31-3.15V709l-2.31-30,3.46-1V668s-1.15-2-4.62-2c0-7-4.63-118-4.63-118l-8.09-5-8.09,5s-4.63,111-4.63,118c-3.47,0-4.62,2-4.62,2v10l3.46,1-2.31,30v1.35A3.5,3.5,0,0,0,769,713.5a3.65,3.65,0,0,0,3.15,3.41l.32,1.09v9h-2.31v43h34.68V727h-2.31Z"/><path class="cls-8" d="M1128.53,718l.32-1.09a3.65,3.65,0,0,0,3.15-3.41,3.5,3.5,0,0,0-2.31-3.15V709l-2.31-30,3.46-1V668s-1.15-2-4.62-2c0-7-4.63-118-4.63-118l-8.09-5-8.09,5s-4.63,111-4.63,118c-3.47,0-4.62,2-4.62,2v10l3.46,1-2.31,30v1.35a3.5,3.5,0,0,0-2.31,3.15,3.65,3.65,0,0,0,3.15,3.41l.32,1.09v9h-2.31v43h34.68V727h-2.31Z"/><path class="cls-9" d="M1508.41,1194h-71.53l-2.47-3q-3.42-4.17-6.91-8.35t-7-8.35c-11.48-13.62-23.35-27.31-35.47-41l-4.7-5.28q-4.14-4.65-8.33-9.28l-1.49-1.65q-4.92-5.45-9.88-10.88-9.51-10.43-19.13-20.74-4-4.29-8-8.55-13.21-14.09-26.5-27.91-4.5-4.68-9-9.33c-15.14-15.65-30.18-30.92-44.91-45.65q-4-4-7.95-7.93c-13.42-13.35-26.52-26.21-39.14-38.47l-7-6.78q-12-11.64-23.39-22.46l-7.29-6.95c-12.69-12.06-24.55-23.19-35.32-33.23l-5-4.65-7.79-7.22q-4.65-4.3-9-8.25c-10.12-9.31-18.65-17.07-25.26-23l-.62-.57c-9.24-8.34-14.54-13-14.91-13.36l15.53-17.6,21.53-24.39c.54.48,43.33,38.31,103.08,95.17l3.15,3q12.88,12.27,26.7,25.65,10.9,10.56,22.28,21.71,7,6.87,13.86,13.66l8,7.9q6.78,6.75,13.43,13.42,4.55,4.55,9,9.05,13.53,13.66,26.5,27l8,8.26q15.69,16.25,30.5,32,9.23,9.8,18.1,19.4,5,5.43,9.93,10.8,8.6,9.4,16.85,18.59,5.38,6,10.62,11.9,7.65,8.64,15,17.1,5.07,5.84,10,11.58,19.65,23,37,44.57,5.1,6.35,10,12.59,3.36,4.26,6.6,8.47Q1507.27,1192.5,1508.41,1194Z"/><path class="cls-9" d="M1648,1194h-76.07l-.44-.45L1569,1191q-3.69-3.78-7.52-7.63c-18.83-18.95-39.83-39-61.94-59.42q-5-4.59-10-9.19c-12.12-11.08-24.51-22.22-37-33.32l-10-8.85-3.52-3.1-5.26-4.62c-2.07-1.82-4.15-3.64-6.22-5.44q-3.49-3.08-7-6.11-4.32-3.77-8.65-7.51-5.4-4.68-10.79-9.32-14.68-12.65-29.06-24.84c-10.39-8.82-20.59-17.41-30.5-25.71l-8-6.68c-9.14-7.64-18-15-26.5-22l-9-7.43-10.24-8.41q-4.37-3.58-8.56-7c-15-12.25-28.13-22.89-38.74-31.42-17.59-14.16-28.23-22.56-28.79-23l2.09-2.65,1.23-1.56L1246.33,836c4.63,3.65,47.09,37.17,104.14,84.4q10.46,8.65,21.53,17.91l11.82,9.89,8.15,6.86c9.33,7.86,18.87,15.94,28.53,24.2q3.49,3,7,6l2.18,1.87q5.37,4.62,10.8,9.29l2,1.75q5,4.3,10,8.66,8.7,7.55,17.43,15.21l5.26,4.62q7.17,6.3,14.31,12.66l5,4.44c.85.76,1.7,1.51,2.54,2.28l2.47,2.2c21.29,19,42.2,38.22,61.94,57q5.05,4.8,10,9.55c9.33,9,18.36,17.81,27,26.47q5.1,5.1,10,10.12l4.66,4.79q9.63,9.95,18.38,19.44l2.38,2.6c1.58,1.74,3.14,3.45,4.68,5.16q3.49,3.9,6.81,7.7Z"/><polygon class="cls-6" points="1571.44 993.2 1571.44 1194 1561.44 1194 1561.44 989.91 1571.44 993.2"/><polygon class="cls-6" points="1608.44 1005.39 1608.44 1194 1598.44 1194 1598.44 1002.09 1608.44 1005.39"/><path class="cls-6" d="M1420.5,1003v27.92l7-12.08V990.88Zm0,0v27.92l7-12.08V990.88Zm0,0v27.92l7-12.08V990.88Zm0,0v27.92l7-12.08V990.88Zm0,0v27.92l7-12.08V990.88Zm0,0v27.92l7-12.08V990.88Zm0,0v27.92l7-12.08V990.88Zm0,0v27.92l7-12.08V990.88Zm0,0v27.92l7-12.08V990.88Zm0,0v27.92l7-12.08V990.88Zm0,0v27.92l7-12.08V990.88Zm0,0v27.92l7-12.08V990.88Zm0,0v27.92l7-12.08V990.88Zm0,0v27.92l7-12.08V990.88Zm0,0v27.92l7-12.08V990.88Zm0,0v27.92l7-12.08V990.88Zm0,0v27.92l7-12.08V990.88Zm0,0v27.92l7-12.08V990.88Zm0,0v27.92l7-12.08V990.88Zm0,0v27.92l7-12.08V990.88Zm0,0v27.92l7-12.08V990.88Zm0,0v27.92l7-12.08V990.88Zm0,0v27.92l7-12.08V990.88Zm0,0v27.92l7-12.08V990.88Zm0,0v27.92l7-12.08V990.88Zm0,0v27.92l7-12.08V990.88Zm0,0v27.92l7-12.08V990.88Zm0,0v27.92l7-12.08V990.88Zm0,0v27.92l7-12.08V990.88Zm0,0v27.92l7-12.08V990.88Zm0,0v27.92l7-12.08V990.88Zm0,0v27.92l7-12.08V990.88Zm0,0v27.92l7-12.08V990.88Zm0,0v27.92l7-12.08V990.88Zm0,0v27.92l7-12.08V990.88Zm0,0v27.92l7-12.08V990.88Zm236.18,188-15.77-25-2.55-4-.35-42.11-.06-6.59-.28-33.59-.27-32.65,3.08,0,0-7-3.18,0-.21-25.14-.19-22.53-20,15.87-8.48,6.73-10,7.92-21.11,16.74-5.89,0-10-.07h-.25l-39.46-62.64-5.82-9.23-4.84,5.72L1499.5,987l-10,11.83-1.24,1.47-31.68-31.68-14.08-14.07-5.72-5.73L1427,939,1422,944h0l3.48,3.49-41.7.73-11.82.21-5.06.09.12,7,4.94-.09,20-.35,28.53-.5v126l-3.62,4.28-36.55,43.27-8.33,9.86-17.17,20.32,5.34,4.52,11.83-14,13-15.42,35.47-42V1194h7V1083.08l11.48-13.59,3.52-4.16,10-11.84,22.69-26.85,13.51-16,.8.8L1494,1016,1499,1011l-5.74-5.75,6.27-7.42,15.59-18.45,37.8,60-53.39-.37-5,0,0,4.74V1046l2.55,0h2.47l57.82.4,4.12,6.54,10,15.87,27,42.85,10,15.87,11,17.53,11.9,18.88.1,11.57,0,6.61.07,8.85,0,3h7l0-3-.06-7.7-.07-8.07,9.94,15.77,1.89,3h8.27Zm-186.75-169-17.43,20.62-10,11.84-8.78,10.39-6.22,7.36V949.45l56.23,56.23Zm128.51,9.74,10-7.93,16.43-13,5.19-4.11,0,5.84.23,27.4-21.9-.15-10-.07-9.94-.07Zm-31.82,16.3-1-1.57,3,0Zm56.83,90.2-15-23.82-10-15.87-27-42.85-1.07-1.7,1.07-.85,8.31-6.59,18.69.13,10,.07,22,.15.3,35.67.2,24.45.15,18.09.21,25.52Zm-203-135.3v27.92l7-12.08V990.88Zm0,0v27.92l7-12.08V990.88Zm0,0v27.92l7-12.08V990.88Zm0,0v27.92l7-12.08V990.88Zm0,0v27.92l7-12.08V990.88Zm0,0v27.92l7-12.08V990.88Zm0,0v27.92l7-12.08V990.88Zm0,0v27.92l7-12.08V990.88Zm0,0v27.92l7-12.08V990.88Zm0,0v27.92l7-12.08V990.88Zm0,0v27.92l7-12.08V990.88Zm0,0v27.92l7-12.08V990.88Zm0,0v27.92l7-12.08V990.88Zm0,0v27.92l7-12.08V990.88Zm0,0v27.92l7-12.08V990.88Zm0,0v27.92l7-12.08V990.88Zm0,0v27.92l7-12.08V990.88Zm0,0v27.92l7-12.08V990.88Zm0,0v27.92l7-12.08V990.88Zm0,0v27.92l7-12.08V990.88Zm0,0v27.92l7-12.08V990.88Zm0,0v27.92l7-12.08V990.88Zm0,0v27.92l7-12.08V990.88Zm0,0v27.92l7-12.08V990.88Zm0,0v27.92l7-12.08V990.88Zm0,0v27.92l7-12.08V990.88Zm0,0v27.92l7-12.08V990.88Zm0,0v27.92l7-12.08V990.88Zm0,0v27.92l7-12.08V990.88Zm0,0v27.92l7-12.08V990.88Zm0,0v27.92l7-12.08V990.88Zm0,0v27.92l7-12.08V990.88Zm0,0v27.92l7-12.08V990.88Zm0,0v27.92l7-12.08V990.88Zm0,0v27.92l7-12.08V990.88Z"/><path class="cls-6" d="M1372,820v374H1170l-3.46-3c-19.49-17-38.93-34.25-58.53-50.75V950H809V756h346v64Z"/><polygon class="cls-6" points="915 1146 915 1194 801 1194 801 1146 845 1146 845 1106 885 1106 885 1146 915 1146"/><path d="M843,778.5v.24c-.67.11-1.34.23-2,.36v-.6Z"/><polygon points="863.5 941.5 863.5 941.85 863.01 941.85 863 941.5 863.5 941.5"/><path d="M938.45,784.43c-7.32-1.55-14.68-2.93-22-4.08,2.51.33,5.2.72,8.06,1.15C928.11,782.05,932.86,783.06,938.45,784.43Z"/><path d="M825,936.5h-.5v0Z"/><path d="M939.5,802c-1.93,0-3.5.45-3.5,1s.88.77,2.14.92l.64.06h0l.7,0c1.93,0,3.5-.45,3.5-1S941.43,802,939.5,802Z"/><polygon points="863.5 941.5 863.5 941.85 863.01 941.85 863 941.5 863.5 941.5"/><path d="M825.05,936c0,.18,0,.34,0,.48h-.53V936Z"/><polygon points="863.5 941.5 863.5 941.85 863.01 941.85 863 941.5 863.5 941.5"/><path d="M943,803c0,.55-1.57,1-3.5,1l-.7,0h0l-.64-.06c-1.26-.15-2.14-.51-2.14-.92s1.57-1,3.5-1S943,802.45,943,803Z"/><path class="cls-10" d="M843,778.5v.24c-.67.11-1.34.23-2,.36v-.6Z"/><path class="cls-10" d="M938.45,784.43c-7.32-1.55-14.68-2.93-22-4.08,2.51.33,5.2.72,8.06,1.15C928.11,782.05,932.86,783.06,938.45,784.43Z"/><path class="cls-10" d="M943,803c0,.55-1.57,1-3.5,1l-.7,0h0l-.64-.06c-1.26-.15-2.14-.51-2.14-.92s1.57-1,3.5-1S943,802.45,943,803Z"/><path class="cls-8" d="M1401.06,1036.49q5.39,4.63,10.79,9.32l8.65-14.93V1003Zm0,0q5.39,4.63,10.79,9.32l8.65-14.93V1003Zm0,0q5.39,4.63,10.79,9.32l8.65-14.93V1003Zm0,0q5.39,4.63,10.79,9.32l8.65-14.93V1003Zm0,0q5.39,4.63,10.79,9.32l8.65-14.93V1003Zm0,0q5.39,4.63,10.79,9.32l8.65-14.93V1003Zm0,0q5.39,4.63,10.79,9.32l8.65-14.93V1003Zm0,0q5.39,4.63,10.79,9.32l8.65-14.93V1003Zm0,0q5.39,4.63,10.79,9.32l8.65-14.93V1003Zm0,0q5.39,4.63,10.79,9.32l8.65-14.93V1003Zm0,0q5.39,4.63,10.79,9.32l8.65-14.93V1003Zm0,0q5.39,4.63,10.79,9.32l8.65-14.93V1003Zm0,0q5.39,4.63,10.79,9.32l8.65-14.93V1003Zm0,0q5.39,4.63,10.79,9.32l8.65-14.93V1003Zm0,0q5.39,4.63,10.79,9.32l8.65-14.93V1003Zm0,0q5.39,4.63,10.79,9.32l8.65-14.93V1003Zm0,0q5.39,4.63,10.79,9.32l8.65-14.93V1003Zm0,0q5.39,4.63,10.79,9.32l8.65-14.93V1003Zm0,0q5.39,4.63,10.79,9.32l8.65-14.93V1003Zm0,0q5.39,4.63,10.79,9.32l8.65-14.93V1003Zm0,0q5.39,4.63,10.79,9.32l8.65-14.93V1003Zm0,0q5.39,4.63,10.79,9.32l8.65-14.93V1003Zm0,0q5.39,4.63,10.79,9.32l8.65-14.93V1003Zm0,0q5.39,4.63,10.79,9.32l8.65-14.93V1003Zm0,0q5.39,4.63,10.79,9.32l8.65-14.93V1003Zm0,0q5.39,4.63,10.79,9.32l8.65-14.93V1003Zm0,0q5.39,4.63,10.79,9.32l8.65-14.93V1003Zm0,0q5.39,4.63,10.79,9.32l8.65-14.93V1003Zm0,0q5.39,4.63,10.79,9.32l8.65-14.93V1003Zm0,0q5.39,4.63,10.79,9.32l8.65-14.93V1003Zm0,0q5.39,4.63,10.79,9.32l8.65-14.93V1003Zm0,0q5.39,4.63,10.79,9.32l8.65-14.93V1003Zm0,0q5.39,4.63,10.79,9.32l8.65-14.93V1003Zm0,0q5.39,4.63,10.79,9.32l8.65-14.93V1003Zm0,0q5.39,4.63,10.79,9.32l8.65-14.93V1003ZM1690.5,721.22l-428-8.72c-49.14-1.83-93.29-3.4-132.89-4.57q-16.6-.48-32.15-.88l-1.94,0-9.52-.23c-28.27-.66-53.86-1-77-1.1-27.34-.07-51.24.34-72.06,1.33-19.62.93-36.5,2.37-50.94,4.41l-3,.44c-14.66,2.21-26.7,5.08-36.44,8.71-21.1,7.86-34.81,13.58-41.72,16.57-3.59,1.55-5.34,2.37-5.34,2.37v-11h-30v43h-9v7h9a117.84,117.84,0,0,0-.32,15.5c.07,1.48.17,3,.32,4.5,6.71.67,7.57,12.15,7.4,19.63-.08,3.66-.4,6.37-.4,6.37l9,1V1194h78V987.36h.5l188.5-.86,1,84.77v.23l.5.36,3.7,2.68,14,10.13.08.06,14.24,10.33,22,15.94V944.92l.5.58c38.41,46,68.3,84.91,92.14,117.9,43.5,60.17,66.91,100.53,85.33,127.6.69,1,1.38,2,2.06,3h92.26l-1-1.07-1.47-1.93c-1.82-2.36-3.77-4.92-5.87-7.65-6.39-8.31-14.07-18.24-22.83-29.4l21.34-36.82,1.49-2.57,28-48.36,11.82-20.39,8.65-14.93,7-12.08,13-22.4,2-3.48V1194h10V975.66l.44-.77,3.64-6.26,6.46-11.14,26.46,8.72V1194h10V969.5l11.57,3.81,10.66,3.51,39.71,13.09,10,3.29,27,8.89,10,3.3,8.48,2.79,7.95,2.62,5.24,1.73,7,2.31,40.37,13.3V1045l-18.87,32.56L1638,1113.22l-.5.87-6.4,11.05-7.6,13.12-4,6.83-6.38,11-4.66,8.05-10,17.26-5.56,9.59-1.74,3h33.52l1.74-3,5.13-8.85,2.33-4,7.05-12.17,2.82-4.87,33.77-58.28V1194h16V1075.21l.71-1.23,9.79-16.88,5.55-9.57,4.3-7.42,7.15,2.35V721.84ZM1089.59,939l1.91-11.48s-.23-.68-.62-1.7l.22.24q6.89,7.37,13.5,15H1091v-2Zm7.41-66.39c-3.7-3.24-7.38-6.39-11-9.41l-1.43-1.2.81-27.46,0-1.42.58.19,37.57,12.37-12.31,12.47Zm-20,66.25-49.79-.56a108.62,108.62,0,0,1-.73-11.78c8.93-17,24.44-30.79,30-35.38,8.48,8,17,16.43,25.34,25.09-4.21,3.1-10.31,15.29-10.31,15.29l-1,7Zm-239.43-2.68c19.68-72.91,45.67-104.51,66.59-119.08,1.08-.57,2.19-1.1,3.32-1.58,30-18,42.88-7.5,42.88-7.5l19.13,12.3c-56.28,26.81-79.09,101.05-83.29,116.4Zm25.91,5.34v.35H863v-.35Zm52.94-161.15c2.51.33,5.2.72,8.06,1.15,3.61.55,8.36,1.56,14,2.93C931.13,782.88,923.77,781.5,916.44,780.35Zm64,47h0c9.28,6.74,19.6,14.69,30.52,23.61-38.8,23-61.64,77.81-65,86.36l-43.33-.48C915.55,865,965.73,834.81,980.43,827.4ZM963.5,937.5c13.76-44,46.36-71.37,56.42-79,8.29,7,16.85,14.47,25.5,22.38-8.1,4.19-37.92,46.66-37.92,46.66v10.56l-44.65-.5ZM841,778.5h2v.24c21.94-3.78,47.41-2.49,73.27,1.59-26.3-3.49-33.77-1.83-33.77-1.83v40.14a57.13,57.13,0,0,0-6.3,6.6l.27.5c-.83.63-1.65,1.28-2.46,1.94l0,0c-.85.87-1.68,1.77-2.49,2.67V778.5h-2v54.15a139.12,139.12,0,0,0-9,11.67V778.5h-2v68.75c-2.1,3.17-4.1,6.41-6,9.69V778.5h-2v82c-2.72,4.92-5.21,9.9-7.5,14.84V778.74c-.67.11-1.34.23-2,.36V879.75c-2.22,5-4.21,10-6,14.75V780.39q3-.72,6-1.29Zm-8,2.39V900c-2,5.52-3.62,10.69-5,15.3v-133Q830.46,781.54,833,780.89Zm-8.5,2.61c.5-.18,1-.35,1.5-.51V922.87c-.58,7.42-.84,11.23-1,13.15,0,.18,0,.34,0,.48h-.53ZM1128,901.15c-7.4-7.12-14.71-14-21.9-20.46l14.11-14.31,7.79-7.89Zm5,4.85V853.43l3.38-3.42.09-.1,62.33,20.53-30.48,41-12.72,17.13Q1144.23,917,1133,906Zm66,68.76c-12.08-13.28-24.24-26.32-36.36-38.88l13-17.45L1199,886.94Zm7,7.74v-105l1.51-2-1.51-1.12v-1.54l4.61,1.52,4.38,1.44,83,27.34v2.73l-18.8,28.56-2.6,4-31.46,47.78-15.29,23.23Q1218,995.89,1206,982.5Zm92,107.57c-18.73-22.9-39.26-47.43-60.65-72.09l15.74-23.91,31.48-47.81,3.19-4.85L1298,925.86Zm35.5,44c-8.22-10.35-17.1-21.42-26.5-33V912.19l1.09-1.67-1.09-.72v-3.71l26.5,8.73ZM1442.5,965l-12.82,22.11-2.18,3.77-7,12.08-19.44,33.53-11,18.91-18.1,31.23-11.37,19.62-19.13,33V917.45l9,2.95,21.53,7.1L1422,944l14.74,4.85,5.72,1.89Zm-41.44,71.49q5.39,4.63,10.79,9.32l8.65-14.93V1003Zm0,0q5.39,4.63,10.79,9.32l8.65-14.93V1003Zm0,0q5.39,4.63,10.79,9.32l8.65-14.93V1003Zm0,0q5.39,4.63,10.79,9.32l8.65-14.93V1003Zm0,0q5.39,4.63,10.79,9.32l8.65-14.93V1003Zm0,0q5.39,4.63,10.79,9.32l8.65-14.93V1003Zm0,0q5.39,4.63,10.79,9.32l8.65-14.93V1003Zm0,0q5.39,4.63,10.79,9.32l8.65-14.93V1003Zm0,0q5.39,4.63,10.79,9.32l8.65-14.93V1003Zm0,0q5.39,4.63,10.79,9.32l8.65-14.93V1003Zm0,0q5.39,4.63,10.79,9.32l8.65-14.93V1003Zm0,0q5.39,4.63,10.79,9.32l8.65-14.93V1003Zm0,0q5.39,4.63,10.79,9.32l8.65-14.93V1003Zm0,0q5.39,4.63,10.79,9.32l8.65-14.93V1003Zm0,0q5.39,4.63,10.79,9.32l8.65-14.93V1003Zm0,0q5.39,4.63,10.79,9.32l8.65-14.93V1003Zm0,0q5.39,4.63,10.79,9.32l8.65-14.93V1003Zm0,0q5.39,4.63,10.79,9.32l8.65-14.93V1003Zm0,0q5.39,4.63,10.79,9.32l8.65-14.93V1003Zm0,0q5.39,4.63,10.79,9.32l8.65-14.93V1003Zm0,0q5.39,4.63,10.79,9.32l8.65-14.93V1003Zm0,0q5.39,4.63,10.79,9.32l8.65-14.93V1003Zm0,0q5.39,4.63,10.79,9.32l8.65-14.93V1003Zm0,0q5.39,4.63,10.79,9.32l8.65-14.93V1003Zm0,0q5.39,4.63,10.79,9.32l8.65-14.93V1003Zm0,0q5.39,4.63,10.79,9.32l8.65-14.93V1003Zm0,0q5.39,4.63,10.79,9.32l8.65-14.93V1003Zm0,0q5.39,4.63,10.79,9.32l8.65-14.93V1003Zm0,0q5.39,4.63,10.79,9.32l8.65-14.93V1003Zm0,0q5.39,4.63,10.79,9.32l8.65-14.93V1003Zm0,0q5.39,4.63,10.79,9.32l8.65-14.93V1003Zm0,0q5.39,4.63,10.79,9.32l8.65-14.93V1003Zm0,0q5.39,4.63,10.79,9.32l8.65-14.93V1003Zm0,0q5.39,4.63,10.79,9.32l8.65-14.93V1003Zm0,0q5.39,4.63,10.79,9.32l8.65-14.93V1003Z"/><path class="cls-8" d="M1104.6,941h-.95q-6.45-7.75-12.55-15Q1098,933.41,1104.6,941Z"/><path class="cls-8" d="M1200.64,1063.4c-32.25-42.56-64.63-83.35-92.64-117.17v-1.31l.5.58C1146.91,991.47,1176.8,1030.41,1200.64,1063.4Z"/><path class="cls-3" d="M1177,1194H930.06l-1.63-3L915,1166.33,903.93,1146,885,1111.21l-.66-1.21H864V986.5h188.5v84l1,.77.5.39,3.7,2.88,3.3,2.57v9.61l47,43.48,65.73,60.8Z"/><polygon class="cls-6" points="1054 986.5 1054 1090.5 1032.83 1090.5 1032.83 1015.5 884.67 1015.5 884.67 1094.5 863.5 1094.5 863.5 986.5 1054 986.5"/><path class="cls-7" d="M954.75,1194H903.43l-1.63-3c-11-20.28-34.5-63.41-38.3-69.5v-27l.5,0,3.91.36,0-.41,1.57-28s6.13,8.75,15.17,21.83C904.81,1117.44,939.41,1168,953,1191Q954,1192.59,954.75,1194Z"/><path class="cls-7" d="M1205.3,1191l3.33,3H1170l-3.46-3c-19.49-17-38.93-34.25-58.53-50.75-21.12-17.77-42.44-34.64-64.24-49.27l.2-.48,8.54-20,1,.77.5.39,3.7,2.88,3.3,2.57c2.75,2.14,6.41,4.68,10.68,7.56l.08.06c4.24,2.86,9.08,6.07,14.24,9.56,7,4.72,14.54,10,22,15.62q2,1.53,4,3.09C1147,1140.41,1186.58,1174.24,1205.3,1191Z"/><polygon class="cls-11" points="624 987 624 1194 35 1194 35 1191 0 1191 0 792 10 792 29 784 29 768 58 768 58 782 103 782 103 774 130 774 130 779 226 779 226 782 233 784 233 782 257 782 257 792 433 857 433 860 445 860 445 863 442 863 442 867 439 867 439 909 461 912 461 939 471 940 471 948 462 948 462.07 949.99 462.11 951 462.18 953 463 976 624 987"/><path class="cls-11" d="M1721,1048.64V1191h-2.82l-24.68-9.91-3.5-1.41-12.5-5-33.77-13.56L1641,1160s-1.38-22.74-3-40.19c-.18-2-.37-3.91-.56-5.72-.15-1.44-.3-2.81-.45-4.09a43.6,43.6,0,0,1-6.1-3c-14.82-8.83-5.71-19.6-.2-24.45a33.13,33.13,0,0,1,3.3-2.6l3.67-.37,21-2.09,31.37-3.14,4.21-.42,9.79-1v-26l5.55.53Z"/></svg>