<svg id="Calque_10" data-name="Calque 10" xmlns="http://www.w3.org/2000/svg" viewBox="0 0 1660 1190"><defs><style>.cls-1{fill:#cae2e6;}.cls-2{fill:#a6ced6;}.cls-3{fill:#64a3ae;}.cls-4{fill:#1e3235;}.cls-5{fill:#284246;}.cls-6{fill:#3c6269;}.cls-7{fill:#50838b;}</style></defs><polygon class="cls-1" points="1660 -1 1660 1190 208.51 1190 208.48 1189.5 208.48 1189 0 1189 0 -1 1660 -1"/><polygon class="cls-2" points="1429.04 592.52 1429.04 1190 208.51 1190 208.48 1189.5 208.48 1189 0 1189 0 592.52 1429.04 592.52"/><path class="cls-3" d="M531.32,583.48l-5.57,9-2.47,4-33.64-.17L0,593.91V571.14c1.88-.48,3.94-1,6.14-1.71,4-11,10,2,10,2l64.27,5s46.19,1,58.24,1c6-3,13.05,1,13.05,1l21.09-1,13-3,3,3s10,1,18.07-1c4-3,10,1,10,1s9,2,17.07,1c6-5,10,1,10,1h13.06a10.83,10.83,0,0,1,8-4c5,0,15.07,9,15.07,9s27.11-4,41.17-4c16.06-4,26.1,1,26.1,1l7-3,32.14,2s19.08-1,26.11-3c6.43-1.84,69.26,4.74,79.83,5.86l1.5.16Z"/><polygon class="cls-4" points="493.16 700.97 488.92 816.95 482.65 988.68 475.34 1189 475.3 1190 208.51 1190 208.48 1189.5 208.48 1189 0 1189 0 677.37 10.66 677.37 10.66 673.36 29.74 673.36 29.79 673.35 100.88 664.34 100.89 664.34 101.03 664.32 107.06 664.32 107.06 670.34 129.15 682.39 130.15 685.41 140.19 685.41 140.19 680.39 144.21 680.39 144.21 685.41 151.24 685.41 158.27 689.42 168.31 689.42 194.42 701.47 194.42 706.49 219.52 704.49 222.54 699.46 227.56 699.46 227.56 705.49 250.65 691.43 250.65 682.39 256.68 676.37 259.69 682.39 259.69 691.43 265.71 691.43 265.71 668.34 273.75 668.34 273.75 672.35 277.76 672.35 277.76 670.34 280.78 670.34 280.78 672.35 282.79 672.35 282.79 684.4 288.81 684.4 288.81 682.39 293.83 682.39 292.83 687.41 298.85 687.41 298.85 693.44 324.96 693.44 324.96 685.41 336.01 676.37 339.02 679.38 340.02 694.44 347.05 694.44 347.05 688.42 354.08 688.42 354.08 681.39 359.1 681.39 359.1 687.41 364.12 687.41 366.13 689.42 366.13 697.46 379.19 697.46 379.19 692.44 383.2 692.44 383.2 698.46 391.24 701.47 391.24 697.46 388.22 694.44 388.22 682.39 390.23 680.39 395.25 680.39 395.25 682.39 403.29 682.39 403.29 686.41 412.32 686.41 413.33 690.43 413.33 703.48 416.34 700.47 416.34 685.41 422.36 685.41 422.36 702.48 426.38 702.48 426.38 697.46 424.37 697.46 427.39 692.94 434.92 692.94 434.92 703.98 459.02 703.47 481.61 702.99 482.11 702.98 483.83 700.03 483.84 700.03 484.05 699.67 484.05 699.66 489.14 690.93 489.64 692.61 492.15 700.97 493.16 700.97"/><polygon class="cls-5" points="818.71 428.63 815.7 428.63 815.7 431.44 817.71 431.44 817.71 436.88 821.72 436.88 821.72 431.44 823.73 431.44 823.73 428.63 820.72 428.63 820.72 397.71 818.71 397.71 818.71 398.65 815.5 398.65 815.5 404.27 818.71 404.27 818.71 428.63"/><path class="cls-5" d="M1609.79,570.43V534.28l7.53-4.52h-6l-1-15.06h-4l-1-4h5V496.62h-5l-14.06-14.06v-7h3l-12.68-22.42c-.61-1.45-1.82-4.34-2.72-6.44a3,3,0,0,0,1.84-2.78v-3a3,3,0,1,0-6,0v1h-4.35v-3.37a3.52,3.52,0,1,0-3,0v3.37h-4.52v3h4.52v18.21l-20.44-33.42-.45-4.39v-9.16c2.26-.44,3.85-1.36,3.78-2.3s-1.64-1.53-3.78-1.66V401.73h-2.46l-.42-4-.1,4h-.6v10.71c-2.15.43-3.68,1.27-3.76,2.16a.2.2,0,0,0,0,.11h0c.07.9,1.64,1.54,3.78,1.66v10.35l-.15,6.4-21.89,31.34-10.08-.36-3.33-9.17V443.9h-4V455l-6.08,8.68-58.69-2.15-11-17.07-.34.42v-5.95h4.08v-3h-4.08v-4.52h-2.72v4.52h-4.07v3h4.07v9.41l-8,10.17h-3l1-23.09,6-4s-25.11-28.11-41.17-53.22c3,1,9,0,9,0l-1-4h-7V355l-4-18.08-6,17.07v7l-4-1-8-12.05V338h4s-1.92-1.68-4-3.76v-5.77h3v-1h-3v-8h-1v8h-2v1h2v4.74c-1.83-1.9-3.58-3.95-4-5.25-.35-1.05-1.92-18.71-3.82-41.27,3.34-1.07,5.35-2.32,5.26-3.51s-2.3-2.11-5.78-2.65c-2.18-26.09-4.67-57-6.22-76.32,3.25-.83,5.44-2.25,5.32-3.7s-2.49-2.5-5.83-2.81c-.38-4.68-.66-8.23-.82-10.29a2.84,2.84,0,0,0,.09-.72V174.9a3.22,3.22,0,0,0-2.17-3V155.43a2.72,2.72,0,0,0,1.43-1.53l5.55-.55v2.32a.54.54,0,0,0,1.07,0v-2.42l4.12-.41-.2-2-3.92.38v-1.93a.54.54,0,0,0-1.07,0v2l-5.66.56a2.67,2.67,0,0,0-1.32-1.29v-7.18h1.6a.54.54,0,0,0,0-1.07h-1.6v-2.67h-2.17v2.67h-1.59a.54.54,0,0,0,0,1.07h1.59v7.18a2.66,2.66,0,0,0-1.5,1.78l-3.25.33v-1.28a.54.54,0,0,0-1.07,0v1.39l-2.65.26.21,2,2.44-.25v1.9a.54.54,0,0,0,1.07,0v-2l3.56-.36a2.71,2.71,0,0,0,1.19,1.06v16.48a3.22,3.22,0,0,0-2.08,3v11.24l-2.19,12.52c-2.55.85-4.18,2.09-4.08,3.34.08,1,1.26,1.83,3.09,2.33l-13.81,79c-2.51.95-4,2-3.9,3,.08.83,1.18,1.54,3,2.06l-7.08,40.52L1305,341v20.08l-13.06,3-1.28-7.73.78.2-5-16.07L1283.56,354l-3.64,5.09v17.07l-6.28,4.72-1.75.19V366.08l-3-16.07-6,15.07v7h-12V352l-3-10-3.94-40.56c2.81-1,4.46-2.14,4.38-3.22s-1.94-2-4.93-2.51L1236.15,222c2.72-.84,4.5-2.13,4.39-3.43s-2.1-2.32-5-2.72l-.62-6.43a3,3,0,0,0,1.31-2.48v-11a3,3,0,0,0-2-2.84V177.58a2.46,2.46,0,0,0,1.33-1.44l5.22-.52v2.18a.5.5,0,0,0,1,0v-2.28l3.87-.38-.19-1.92-3.68.36v-1.8a.5.5,0,1,0-1,0v1.9l-5.31.54a2.42,2.42,0,0,0-1.24-1.22v-6.75h1.49a.5.5,0,0,0,0-1h-1.49v-2.51h-2v2.51h-1.49a.5.5,0,0,0,0,1h1.49V173a2.49,2.49,0,0,0-1.41,1.68l-3,.3v-1.2a.51.51,0,0,0-1,0v1.3l-2.48.25.19,1.92,2.29-.23v1.78a.51.51,0,1,0,1,0v-1.88l3.34-.34a2.42,2.42,0,0,0,1.12,1v15.48a3,3,0,0,0-2,2.82v11a2.73,2.73,0,0,0,0,.5h-.56L1228.2,216c-4.1.73-7,2.38-6.91,4.05.11,1.42,2.44,2.47,5.69,2.8l-13.18,74.76c-3.86,1.13-6.22,2.48-6.12,3.77.09,1.11,2,2,5,2.52L1205.61,344l-4,8v20.09H1201l-.39-1-11,1v-7l-4-13.06-2,12.05h-8l-4,11.05-1,28.12-32.13-1V383.15h3l-5-12-21.09,1-6,11h3v17.07l-127.53-5.1v-4.94h5L948.25,311.1v-5.77h2v-3h-3V269.18h-2v1H942v6h3.21v26.11h-3v3h2v5.83h.65l-33.49,67H893.32l-7,10h3v48.2H872.23v-3h5l-23.4-64.57v-4.64h2v-2.8h-3V349.51h1.81v-3h-1.81V330.43h-2v.94h-3.21V337h3.21v9.51h-3.21v3h3.21v11.84h-3v2.8h2v5.45H850l-25,64.76h4v3H811V421.31h3l-7-13.05h-6l-8,13.05h3v18.08l-6,12.05H769.81V426.33H755.75l-1,4h-5.32v-1.93h2v-2.8h-3V414.78h2.81v-3h-2.81V394.7h-2v.93H743.2v5.63h3.21v10.51H744.2v3h2.21v10.84h-3v2.8h2v4.28l-13.76,24.76H717.59l-5,8h-8l-1-24.1h-12l-6,10.05h3V466.5h-3v19.08l-6,11-5,4h-12l-7,7h2v2L601.11,539.8V525.74h3l-5-7h-7l-4,8h2v17.07l-12,7v11l-7-1-.2-.3-.5-.73c-.14-.22-.3-.45-.48-.72-.29-.44-.65-.95-1-1.54l-.06-.09-.34-.51-.11-.16-.42-.63a.21.21,0,0,1,0-.06l-.43-.64-.11-.16-.43-.64-.12-.18-.46-.69-.11-.16c-.16-.25-.33-.5-.5-.75l-.09-.13c-.18-.29-.37-.57-.56-.86l0-.06-.61-.9-.06-.09c-.42-.63-.85-1.3-1.3-2a.83.83,0,0,1-.08-.12l-.63-1a.64.64,0,0,1-.1-.13c-.2-.31-.41-.63-.63-1l-.13-.21-.63-1-.1-.14c-.22-.35-.44-.68-.66-1l-.12-.18c-.24-.34-.47-.69-.7-1l-.06-.1-.72-1.11-.1-.15-1.56-2.37v0l-1.63-2.52a.83.83,0,0,0-.08-.12c-.26-.39-.52-.79-.77-1.19l0-.06-.81-1.25V508.17h4l-4-13.05h-10v23.27c-.28-.46-.57-.91-.84-1.36l-.11-.18c-.23-.38-.45-.76-.68-1.13l-.23-.39-.54-.9-.26-.44c-.17-.28-.34-.56-.5-.84l-.24-.4-.5-.85-.21-.37-.49-.85-.21-.36-.48-.82-.18-.32c-.17-.3-.33-.58-.48-.86,0-.09-.1-.17-.14-.26-.17-.29-.33-.59-.49-.87l-.11-.2-.5-.92-.06-.12c-1.12-2.08-2-3.86-2.59-5.26v-4h2v-2.8h-3V463h-2v.94H527.3v5.62h3.21V493.9h-3v2.8h2v5.45h.32c-4.34,6.27-11.87,19.66-18.32,30.91-.11.18-.21.38-.32.56l-.62,1.09-.56,1-.36.64c-.26.44-.52.88-.77,1.32l-.23.4c-.25.45-.5.87-.75,1.29l-.18.32-.71,1.22c-.07.12-.13.23-.21.35l-.74,1.26-.18.29-.73,1.24a1.4,1.4,0,0,1-.1.16l-.66,1.08a2,2,0,0,0-.11.2c-.23.36-.44.71-.65,1l-.14.22-.6,1-.09.15-.55.84,0,.07-.52.76-.09.13c-.16.22-.31.42-.44.62l-.08.1c-.14.18-.27.36-.39.5-5,6-8,9-8,9V593h-3V735.61h-3v-8h-5V700.47l2.22-.44h0l.28-.06-.07-.3h0l-11.48-45.88h.51v-9h-2v9h.42L458,700h1v35.14l1.5.5v5h-2l-2,53.72H454V1190H1660V571.31ZM1570.3,444.91h4.52v0a3,3,0,0,0,1.81,1.85l-2.65,7.33h.22l-3.9,6.7Z"/><path class="cls-6" d="M208.48,726.58V1189H0V751l24.71.7s3.3-51.32,5.08-78.33c.42-6.36.76-11.37.95-14.05,1-14.06,12.05-15.06,12.05-15.06H43l.59-3.88a3,3,0,1,1,2.83,0l.6,3.88h5.1l.51-3.38a3,3,0,1,1,2.83,0l.51,3.38h7.87v5h3c1.39-2.08,5.65-4.17,11.15-5.26l.32-2.12a2.22,2.22,0,1,1,2.09,0l.26,1.69a40.66,40.66,0,0,1,5.26-.34H86l.36-2.36a2.22,2.22,0,1,1,2.09,0l.42,2.75c6.55,1.86,8.11,9.65,8.11,9.65h4l-.14,11.07h0L100,729.59l7-6,37.15,2,9-9,49.2,2Z"/><path class="cls-7" d="M620.19,954.52h-4V1190H208.51l0-.5v-.5H0V817H26.72v-10h-2l-1-2,25.1-1L103,769.76v-9.54h11v11.43l24.1,4.13,36.15,27.11,11,1,24.1-12h2v-5h2v4l2,1v-5h2v5h9v7h4V780.8h4v-5h2v-5h2v5h4v19.08h3v4h-2v1L301.86,829v2l-5-2v9h23.1l6,6h-3v39.17h4v-3l36.15-18.07,26.11,17.07s3,1,5-3S422.36,817,422.36,817h.26l5.28-42.24a2,2,0,1,1,.53.07l.46,42.17H562l3.9-31.2a2,2,0,1,1,.54.07l.33,31.13H570L611.15,924.4h-3v17.07h7Z"/><polygon class="cls-3" points="1660 1023.1 1660 1190 208.51 1190 208.48 1189.5 208.48 1189 0 1189 0 1010 6.64 1003.73 28.73 1002.72 59.86 973.6 139.19 938.46 166.3 954.52 166.3 924.4 189.4 931.43 192.41 956.53 208.48 966.02 236.59 982.64 257.68 1003.73 266.72 989.67 335 951.51 454 974.36 460.52 975.61 460.52 985.65 482.65 988.68 607.13 1005.74 616.17 1004.94 664.37 1000.71 665.37 956.53 687.46 958.54 685.46 999.71 707.55 996.7 712.64 997.33 884.28 1018.79 939.51 978.62 1034.91 992.68 1133.31 982.64 1344.19 1141.3 1396.41 1119.21 1380.34 1108.16 1429.04 1063.23 1496.82 1000.71 1625.36 1042.89 1660 1023.1"/></svg>