<svg id="Calque_10" data-name="Calque 10" xmlns="http://www.w3.org/2000/svg" viewBox="0 0 1920 1080"><defs><style>.cls-1{fill:#cae2e6;}.cls-2{fill:#a6ced6;}.cls-3{fill:#64a3ae;}.cls-4{fill:#1e3235;}.cls-5{fill:#284246;}.cls-6{fill:#3c6269;}.cls-7{fill:#50838b;}</style></defs><rect class="cls-1" width="1920" height="1080"/><rect class="cls-2" y="485" width="1690" height="595"/><path class="cls-3" d="M796,476l-5.54,9L788,489l-33.5-.17L0,485.05V455.34C10,456.86,23,463,23,463s11,1,15-3,16,7,20,2,45,2,48,1,8-8,8-8l43,8s13,0,21,3,59,1,68,0c3-10,10,0,10,0a129.26,129.26,0,0,0,17-4c4-11,10,2,10,2l64,5s46,1,58,1c6-3,13,1,13,1l21-1,13-3,3,3s10,1,18-1c4-3,10,1,10,1s9,2,17,1c6-5,10,1,10,1h13a10.8,10.8,0,0,1,8-4c5,0,15,9,15,9s27-4,41-4c16-4,26,1,26,1l7-3,32,2s19-1,26-3c6.41-1.83,69,4.72,79.5,5.84l1.5.16Z"/><polygon class="cls-4" points="758 593 753.78 708.5 747.54 879.52 740.22 1080 0 1080 0 579.43 15.5 590.5 12.5 593.5 12.5 613.5 24.5 601.5 24.5 592.5 32.5 592.5 34.5 598.5 41.5 598.5 41.5 590.5 53.5 590.5 53.5 598.5 56.5 598.5 56.5 588.5 63.5 589.5 63.5 586.5 60.5 586.5 60.5 583.5 63.5 583.5 63.5 575.5 67.5 570.5 78.5 570.5 88.5 561.5 94.5 567.5 110.5 567.5 110.5 562.5 114.5 562.5 114.5 568.5 130.5 568.5 130.69 568.46 153.5 563.5 161.5 570.5 171.5 570.5 171.5 575.5 178.5 578.5 178.5 580.5 192.5 588.5 189.5 588.5 189.5 610.5 201.5 610.5 201.5 603.5 198.5 601.5 205.5 597.5 205.5 592.5 213.5 592.5 213.5 588.5 209.5 587.5 218.5 582.5 218.5 578.5 226.5 578.5 238.5 571.5 238.5 568.5 240.5 568.5 240.5 571.5 253.5 568.5 253.5 564.5 256.5 564.5 257.5 569.5 277.5 569.5 277.5 565.5 296.5 565.5 296.55 565.49 367.35 556.52 367.36 556.52 367.5 556.5 373.5 556.5 373.5 562.5 395.5 574.5 396.5 577.5 406.5 577.5 406.5 572.5 410.5 572.5 410.5 577.5 417.5 577.5 424.5 581.5 434.5 581.5 460.5 593.5 460.5 598.5 485.5 596.5 488.5 591.5 493.5 591.5 493.5 597.5 516.5 583.5 516.5 574.5 522.5 568.5 525.5 574.5 525.5 583.5 531.5 583.5 531.5 560.5 539.5 560.5 539.5 564.5 543.5 564.5 543.5 562.5 546.5 562.5 546.5 564.5 548.5 564.5 548.5 576.5 554.5 576.5 554.5 574.5 559.5 574.5 558.5 579.5 564.5 579.5 564.5 585.5 590.5 585.5 590.5 577.5 601.5 568.5 604.5 571.5 605.5 586.5 612.5 586.5 612.5 580.5 619.5 580.5 619.5 573.5 624.5 573.5 624.5 579.5 629.5 579.5 631.5 581.5 631.5 589.5 644.5 589.5 644.5 584.5 648.5 584.5 648.5 590.5 656.5 593.5 656.5 589.5 653.5 586.5 653.5 574.5 655.5 572.5 660.5 572.5 660.5 574.5 668.5 574.5 668.5 578.5 677.5 578.5 678.5 582.5 678.5 595.5 681.5 592.5 681.5 577.5 687.5 577.5 687.5 594.5 691.5 594.5 691.5 589.5 689.5 589.5 692.5 585 700 585 700 596 724 595.49 746.5 595.01 747 595 748.71 592.06 748.72 592.06 748.93 591.7 748.93 591.69 754 583 754.5 584.67 757 593 758 593"/><polygon class="cls-5" points="1082.2 321.79 1079.2 321.79 1079.2 324.58 1081.2 324.58 1081.2 330 1085.2 330 1085.2 324.58 1087.2 324.58 1087.2 321.79 1084.2 321.79 1084.2 291 1082.2 291 1082.2 291.93 1079 291.93 1079 297.53 1082.2 297.53 1082.2 321.79"/><path class="cls-5" d="M1870,463V427l7.5-4.5h-6l-1-15h-4l-1-4h5v-14h-5l-14-14v-7h3l-12.62-22.32-2.71-6.42A3,3,0,0,0,1841,337v-3a3,3,0,0,0-6,0v1h-4.33v-3.35a3.5,3.5,0,1,0-3,0V335h-4.5v3h4.5v18.14l-20.35-33.29-.45-4.37v-9.12c2.25-.44,3.84-1.35,3.77-2.29s-1.64-1.52-3.77-1.65V295h-2.45l-.42-4-.1,4h-.59v10.67c-2.14.42-3.67,1.26-3.75,2.15a.2.2,0,0,0,0,.11h0c.07.89,1.64,1.53,3.77,1.65v10.31l-.15,6.37-21.8,31.21-10-.36L1768,348V337h-4v11l-6,8.64-58.45-2.14-11-17-.33.42V332h4.06v-3h-4.06v-4.5h-2.71V329h-4.06v3h4.06v9.37l-8,10.13h-3l1-23,6-4s-25-28-41-53c3,1,9,0,9,0l-1-4h-7v-19l-4-18-6,17v7l-4-1-8-12v-10h4s-1.92-1.68-4-3.75V222h3v-1h-3v-8h-1v8h-2v1h2v4.73c-1.83-1.9-3.57-3.94-4-5.23-.35-1.05-1.91-18.64-3.8-41.1,3.32-1.07,5.33-2.31,5.24-3.5s-2.29-2.1-5.76-2.64c-2.17-26-4.65-56.73-6.19-76,3.23-.83,5.41-2.24,5.29-3.68s-2.48-2.49-5.8-2.8c-.38-4.66-.66-8.2-.82-10.25a2.84,2.84,0,0,0,.09-.72V69.11a3.21,3.21,0,0,0-2.16-3V49.72A2.65,2.65,0,0,0,1602,48.2l5.53-.55V50a.54.54,0,0,0,1.07,0V47.55l4.1-.41-.2-2-3.9.38V43.57a.54.54,0,0,0-1.07,0v2l-5.63.56a2.67,2.67,0,0,0-1.32-1.29V37.72h1.59a.53.53,0,0,0,.53-.53.53.53,0,0,0-.53-.53h-1.59V34h-2.16v2.66h-1.58a.53.53,0,0,0-.53.53.53.53,0,0,0,.53.53h1.58v7.15a2.64,2.64,0,0,0-1.49,1.78l-3.24.32V45.7a.54.54,0,0,0-1.07,0v1.38l-2.63.26.2,2,2.43-.24V51a.54.54,0,0,0,1.07,0V49l3.54-.36a2.69,2.69,0,0,0,1.19,1V66.13a3.21,3.21,0,0,0-2.07,3v11.2l-2.18,12.46c-2.54.85-4.17,2.08-4.07,3.33.08,1,1.26,1.82,3.08,2.32l-13.75,78.66c-2.5.95-4,2-3.88,3,.07.83,1.17,1.53,3,2.05l-7,40.35-5,12v20l-13,3-1.28-7.7.78.2-5-16-2.88,13.43-3.62,5.07v17l-6.26,4.7-1.74.19V259.5l-3-16-6,15v7h-12v-20l-3-10-3.92-40.39c2.8-1,4.44-2.13,4.36-3.21s-1.93-2-4.91-2.5l-7.12-73.4c2.71-.84,4.48-2.12,4.37-3.42s-2.09-2.31-5-2.71l-.62-6.4A3,3,0,0,0,1498,101V90a3,3,0,0,0-2-2.82V71.78a2.48,2.48,0,0,0,1.32-1.43l5.2-.52V72a.5.5,0,0,0,1,0V69.73l3.85-.38-.19-1.91-3.66.36V66a.5.5,0,0,0-1,0v1.9l-5.29.53a2.46,2.46,0,0,0-1.23-1.21V60.5h1.48a.5.5,0,0,0,0-1H1496V57h-2v2.5h-1.49a.5.5,0,0,0,0,1H1494v6.72a2.49,2.49,0,0,0-1.41,1.67l-3,.3V68a.5.5,0,0,0-1,0v1.29l-2.47.25.19,1.91,2.28-.23V73a.5.5,0,0,0,1,0V71.12l3.33-.33a2.45,2.45,0,0,0,1.12,1V87.2a3,3,0,0,0-2,2.8v11a2.73,2.73,0,0,0,0,.5h-.55l-1.51,8.57c-4.08.73-7,2.37-6.88,4,.11,1.42,2.43,2.46,5.67,2.79l-13.13,74.45c-3.84,1.13-6.19,2.47-6.09,3.76.09,1.1,2,2,5,2.51l-7,39.89-4,8v20h-.62l-.38-1-11,1v-7l-4-13-2,12h-8l-4,11-1,28-32-1v-19h3l-5-12-21,1-6,11h3v17l-127-5.08V283.5h5l-41.3-78.75V199h2v-3h-3V163h-2v1H1205v6h3.2v26h-3v3h2v5.81h.65L1174.5,271.5h-18l-7,10h3v48h-17v-3h5l-23.3-64.3v-4.62h2v-2.79h-3V243h1.8v-3h-1.8V224h-2v.93H1111v5.6h3.2V240H1111v3h3.2v11.79h-3v2.79h2V263h.18l-24.88,64.5h4v3h-18v-16h3l-7-13h-6l-8,13h3v18l-6,12h-20v-25h-14l-1,4h-5.3v-1.92h2v-2.79h-3V308h2.8v-3h-2.8V288h-2v.93H1007v5.6h3.2V305H1008v3h2.2v10.79h-3v2.79h2v4.26L995.5,350.5h-14l-5,8h-8l-1-24h-12l-6,10h3v15h-3v19l-6,11-5,4h-12l-7,7h2v2l-56,30v-14h3l-5-7h-7l-4,8h2v17l-12,7v11l-7-1-.2-.3-.5-.73-.48-.71-1-1.54-.06-.09-.34-.5-.11-.16-.42-.63a.21.21,0,0,1,0-.06l-.43-.64-.11-.16-.42-.63-.12-.18c-.15-.23-.3-.46-.46-.69l-.11-.16c-.16-.25-.33-.5-.5-.75l-.09-.13-.56-.85,0-.06-.6-.9-.06-.09-1.3-2-.08-.12-.63-1-.09-.12c-.2-.31-.41-.63-.63-.95l-.13-.21q-.32-.47-.63-1l-.1-.14-.66-1-.12-.18-.69-1-.06-.1-.72-1.1-.1-.15-1.55-2.36v0l-1.63-2.51-.08-.12-.76-1.18,0-.06L818,427V401h4l-4-13H808v23.18l-.83-1.36-.11-.18-.68-1.12-.23-.39-.54-.9-.26-.43-.49-.84-.24-.4-.5-.85-.21-.36-.49-.85-.21-.36-.47-.82-.18-.32c-.17-.29-.33-.57-.48-.85-.05-.09-.1-.17-.14-.26-.17-.29-.33-.59-.49-.87l-.11-.2-.5-.91-.06-.12c-1.11-2.07-2-3.85-2.58-5.24v-4h2v-2.79h-3V356h-2v.93H792v5.6h3.2v24.26h-3v2.79h2V395h.32c-4.32,6.25-11.82,19.58-18.24,30.79l-.32.55-.62,1.09-.56,1-.36.63c-.26.44-.51.88-.76,1.32l-.23.4c-.25.44-.5.86-.75,1.28l-.18.32-.71,1.21-.2.35-.74,1.26-.18.29-.73,1.23a1.4,1.4,0,0,1-.1.16l-.65,1.08-.11.19c-.23.36-.44.71-.65,1.05l-.14.22-.6,1-.09.14-.55.84,0,.07-.51.76-.09.13-.44.61-.08.1c-.14.18-.27.36-.39.5-5,6-8,9-8,9v33h-3v142h-3v-8h-5v-27l2.21-.44h0L749,592l-.07-.3h0L737.5,546h.5v-9h-2v9h.42L723,592h1v35l1.5.5v5h-2l-2,53.5H719v394H1920V463.88Zm-39.33-125h4.5v0a3,3,0,0,0,1.81,1.84l-2.64,7.3h.22l-3.89,6.68Z"/><path class="cls-6" d="M474.53,1080H68.21L66.5,864.5l-.1-15.88L65.5,710.5l-3-3,12-11v-9l44-29,7-90,2-25.5a3.9,3.9,0,1,1,.1,0l3.13,25.47,10.81,88,32,1,10.95,11.68,2.05-13.68,34-14,71,2s3.28-51.11,5.05-78c.42-6.33.76-11.32.95-14,1-14,12-15,12-15h.25l.59-3.86a3,3,0,1,1,2.82,0l.59,3.86h5.08l.51-3.36a3,3,0,1,1,2.82,0l.51,3.36h7.83v5h3c1.38-2.07,5.63-4.15,11.1-5.23l.32-2.12a2.21,2.21,0,1,1,2.08,0l.26,1.69a40.47,40.47,0,0,1,5.24-.34h.06l.36-2.35a2.21,2.21,0,1,1,2.08,0l.42,2.74c6.52,1.85,8.08,9.61,8.08,9.61h4l-.14,11h0l-.85,65,7-6,37,2,9-9,49,2,6,8v461Z"/><path class="cls-7" d="M884.5,845.5h-4V1080H113.65l.73-198.5.12-34,3-119-3-4,9-9-1-11,26-3,36-25,13,11,36,21h60v-10h-2l-1-2,25-1,54-34V652h11v11.39l24,4.11,36,27,11,1,24-12h2v-5h2v4l2,1v-5h2v5h9v7h4v-18h4v-5h2v-5h2v5h4v19h3v4h-2v1l58,29v2l-5-2v9h23l6,6h-3v39h4v-3l36-18,26,17s3,1,5-3,28-59,28-59h.25L693,666.43a2,2,0,1,1,.53.07l.46,42H826.6l3.88-31.07a2,2,0,1,1,.54.07l.33,31h3.15l41,107h-3v17h7Z"/><polygon class="cls-3" points="1920 913.79 1920 1080 0 1080 0 851.34 38.5 829.5 66.4 848.62 114.38 881.5 127.5 890.5 160.5 931.5 127.5 935.5 180.5 987.5 231.5 987.5 262.5 961.5 263.5 918.5 255.5 911.5 273.5 894.5 295.5 893.5 326.5 864.5 405.5 829.5 432.5 845.5 432.5 815.5 455.5 822.5 458.5 847.5 474.5 856.95 502.5 873.5 523.5 894.5 532.5 880.5 600.5 842.5 719 865.25 725.5 866.5 725.5 876.5 747.54 879.52 871.5 896.5 880.5 895.71 928.5 891.5 929.5 847.5 951.5 849.5 949.5 890.5 971.5 887.5 976.57 888.13 1147.5 909.5 1202.5 869.5 1297.5 883.5 1395.5 873.5 1605.5 1031.5 1657.5 1009.5 1641.5 998.5 1690 953.76 1757.5 891.5 1885.5 933.5 1920 913.79"/></svg>