<svg id="Calque_1" data-name="Calque 1" xmlns="http://www.w3.org/2000/svg" xmlns:xlink="http://www.w3.org/1999/xlink" viewBox="0 0 300 300"><defs><style>.cls-1,.cls-15{fill:none;}.cls-2{fill:#715076;}.cls-3{fill:#945c41;}.cls-4{fill:#c57b57;}.cls-5{fill:#6f4531;}.cls-6{fill:#ffeec8;}.cls-7{fill:#4a2e21;}.cls-10,.cls-8{fill:#966b9d;}.cls-15,.cls-8,.cls-9{stroke-miterlimit:10;}.cls-8,.cls-9{stroke:url(#Nouveau_motif_2);}.cls-12,.cls-9{fill:url(#Nouveau_motif_2-3);}.cls-11{fill:url(#Nouveau_motif_2);}.cls-13{fill:#363636;}.cls-14{fill:#7e7e7e;}.cls-15{stroke:#7e7e7e;stroke-width:4px;}</style><pattern id="Nouveau_motif_2" data-name="Nouveau motif 2" width="21" height="14" patternTransform="translate(31.73 87.07) scale(0.91)" patternUnits="userSpaceOnUse" viewBox="0 0 21 14"><rect class="cls-1" width="21" height="14"/><circle class="cls-2" cx="21" cy="14" r="3.5"/><circle class="cls-2" cy="14" r="3.5"/><circle class="cls-2" cx="21" r="3.5"/><circle class="cls-2" cx="10.5" cy="7" r="3.5"/><circle class="cls-2" r="3.5"/></pattern><pattern id="Nouveau_motif_2-3" data-name="Nouveau motif 2" width="21" height="14" patternTransform="translate(18.93 87.07) scale(0.91)" patternUnits="userSpaceOnUse" viewBox="0 0 21 14"><rect class="cls-1" width="21" height="14"/><circle class="cls-2" cx="21" cy="14" r="3.5"/><circle class="cls-2" cy="14" r="3.5"/><circle class="cls-2" cx="21" r="3.5"/><circle class="cls-2" cx="10.5" cy="7" r="3.5"/><circle class="cls-2" r="3.5"/></pattern></defs><path class="cls-3" d="M101.58,54.85S88.23,41.18,75.33,41.18s-38.72,34-11.73,46.93Z"/><path class="cls-3" d="M198.41,54.85s13.35-13.67,26.25-13.67,38.72,34,11.73,46.93Z"/><path class="cls-4" d="M383.17,692.89a.53.53,0,0,1-.1.06c12.48,4,21.48,9.36,25.2,15.4a15.35,15.35,0,0,1,.9,1.75,10.88,10.88,0,0,1,1,4.5,11.19,11.19,0,0,1-1.23,5l0,0a33,33,0,0,0-2.53-3.8,27.24,27.24,0,0,0-4.58-4.94,21.49,21.49,0,0,0-5.62-3.47l-.22.4a25.76,25.76,0,0,1,4.13,4.68,25,25,0,0,1,1.65,2.58l.74,1.31.67,1.35a12,12,0,0,1,.54,1.41,14,14,0,0,1,.45,1.43,11,11,0,0,0,.48,1.4,11.51,11.51,0,0,0,.6,1.36l.45.83a34.64,34.64,0,0,1-7.5,5.66,12,12,0,0,0-.25-1.59c-.39-2.3-2-4.13-3.27-6a27.58,27.58,0,0,0-4.58-4.94,21.93,21.93,0,0,0-5.62-3.47l-.22.4a26.1,26.1,0,0,1,4.13,4.68,25,25,0,0,1,1.65,2.58l.74,1.32.67,1.34a14.12,14.12,0,0,1,.54,1.41,13.91,13.91,0,0,1,.44,1.43,12.85,12.85,0,0,0,.49,1.4,12.42,12.42,0,0,0,.59,1.36c.37.63.68,1.3,1.07,2a80.81,80.81,0,0,1-8.27,3.46c0-.18-.06-.35-.09-.52-.39-2.3-2-4.13-3.28-6a26.78,26.78,0,0,0-4.57-4.93,21.86,21.86,0,0,0-5.62-3.48l-.22.4a26.5,26.5,0,0,1,4.13,4.68,25,25,0,0,1,1.65,2.58l.74,1.32.67,1.35a14,14,0,0,1,.54,1.4,13.37,13.37,0,0,1,.44,1.44,10.34,10.34,0,0,0,.48,1.39,13.7,13.7,0,0,0,.6,1.36l.23.41c-14.68,4.56-34,7.34-55.12,7.34-46,0-83.3-13.13-83.3-29.33a10.86,10.86,0,0,1,.08-1.28c-43.31.77-81.56-1-92.17-1.5l-1.47-.07-1.47.07c-10,.51-84.54,1.6-84.54,1.6s.07.78.07,1.18c0,16.2-37.29,29.33-83.29,29.33-21.16,0-40.44-2.78-55.13-7.35l.22-.4a11.71,11.71,0,0,0,.6-1.36,10.34,10.34,0,0,0,.48-1.39,13.4,13.4,0,0,1,.45-1.44,10.36,10.36,0,0,1,.54-1.4l.67-1.35.73-1.32A29,29,0,0,1-69,725.34a26.1,26.1,0,0,1,4.13-4.68l-.22-.4a21.53,21.53,0,0,0-5.62,3.48,26.49,26.49,0,0,0-4.58,4.93c-1.27,1.83-2.89,3.66-3.26,6,0,.17-.07.34-.1.52a82,82,0,0,1-8.28-3.46c.39-.66.71-1.33,1.07-2a14.8,14.8,0,0,0,.6-1.36,11,11,0,0,0,.48-1.4,14,14,0,0,1,.45-1.43,12,12,0,0,1,.53-1.41l.67-1.34.74-1.32a29,29,0,0,1,1.66-2.58,25.72,25.72,0,0,1,4.13-4.68l-.23-.4a22.1,22.1,0,0,0-5.62,3.47A27.16,27.16,0,0,0-87,722.22c-1.27,1.83-2.89,3.66-3.26,6a12,12,0,0,0-.25,1.59,35.4,35.4,0,0,1-7.52-5.67c.15-.28.31-.55.46-.82.23-.45.42-.91.6-1.36a11,11,0,0,0,.48-1.4,13.91,13.91,0,0,1,.44-1.43,14.12,14.12,0,0,1,.54-1.41l.67-1.35.74-1.31c.51-.88,1.06-1.76,1.65-2.58a26.15,26.15,0,0,1,4.13-4.68l-.22-.4a21.83,21.83,0,0,0-5.62,3.47,26.84,26.84,0,0,0-4.57,4.94,30.45,30.45,0,0,0-2.55,3.84l-.07-.15a.34.34,0,0,1,0-.08,11,11,0,0,1-1.12-4.78,12,12,0,0,1,2.37-7,7.67,7.67,0,0,1,.54-.77C-96,702.18-89.14,698-80,694.52l-.36-.17c-1-.47-2-1-2.85-1.46-36.41-19.78-50.92-88.68-55.07-145.47-2-27.4-1.6-52-.07-66.88,4.69-45.75,24.64-106.76,75.08-149,33.4-28,58.58-64.15,74.5-89.16,8.12-12.77,13.84-22.62,17-27-.26-.44-.51-.88-.76-1.32-.07-.11-.14-.21-.2-.32-7.7-13.33-12-25.53-13.87-36.58-.19-1.13-.35-2.23-.49-3.33a76.13,76.13,0,0,1-.53-12.92c0-.42,0-.84.07-1.25,2.48-38.93,36.07-59.25,42.76-59.25,1.18-8.21,34-43.41,42.24-54,7.84-10.07,48.83-9.46,52.5-9.39a230.91,230.91,0,0,1,27.41,1.17c2.88.32,5.76.73,8.49,1.23,7.51,1.4,13.95,3.59,16.6,7,8.21,10.56,41.06,45.76,42.24,54,7.57,0,49.64,26.05,42,75.68-.08.52-.17,1-.27,1.54-2,11.37-6.55,24-14.73,37.75,3.21,4.43,9,14.47,17.33,27.48,15.94,25,41,60.89,74.18,88.67,50.44,42.23,70.39,103.24,75.08,149,1.53,14.89,1.94,39.48-.07,66.88-4.14,56.69-18.62,125.43-54.87,145.35A1.06,1.06,0,0,1,383.17,692.89Z"/><path class="cls-5" d="M12.55,159.68a72.61,72.61,0,0,0,.08,9.33,86.9,86.9,0,0,0,1.25,9.24,100.21,100.21,0,0,0,5.18,17.88,107.2,107.2,0,0,0,8.29,16.65l1.21,2c.2.34.4.63.61.93s.46.57.73.85a35.91,35.91,0,0,0,3.35,3.16c1.19,1,2.39,2,3.63,2.92a44.12,44.12,0,0,0,3.8,2.69l0,.09a48.9,48.9,0,0,1-7.9-5.07,36,36,0,0,1-3.56-3.12,11.54,11.54,0,0,1-.81-.9c-.24-.34-.49-.69-.68-1l-1.23-2a103,103,0,0,1-8.1-16.91,100,100,0,0,1-4.94-18.07,87.94,87.94,0,0,1-1.07-9.3,73.08,73.08,0,0,1,.1-9.36Z"/><path class="cls-5" d="M287.67,160.26a67.27,67.27,0,0,1,0,9.31,84.38,84.38,0,0,1-1.24,9.24,101,101,0,0,1-5.32,17.86,113.06,113.06,0,0,1-8.29,16.72l-1.22,2a9.89,9.89,0,0,1-1.5,1.9,35.54,35.54,0,0,1-3.55,3.09,48.87,48.87,0,0,1-7.86,5l0-.09a45.3,45.3,0,0,0,3.78-2.68c1.24-.93,2.42-1.92,3.61-2.9a38.47,38.47,0,0,0,3.35-3.14,10,10,0,0,0,1.34-1.77l1.2-2a118.6,118.6,0,0,0,8.48-16.47A102.09,102.09,0,0,0,286,178.72a83.56,83.56,0,0,0,1.41-9.17,65.35,65.35,0,0,0,.16-9.28Z"/><path class="cls-6" d="M153.29,217.56s3.14,15.65,4.19,16.93a32.31,32.31,0,0,0,9.46-.23s3.15-7.93,1.17-11.67S153.29,217.56,153.29,217.56Z"/><path class="cls-6" d="M153.14,217.08s-2,15.82-3,17.18a32.54,32.54,0,0,1-9.45.43s-3.7-7.7-2-11.57S153.14,217.08,153.14,217.08Z"/><path class="cls-7" d="M187.62,149.12h-68s-22.29,10.56-11.74,29.33,12.91,30.5,45.76,29.33c32.85,1.17,35.19-10.56,45.75-29.33S187.62,149.12,187.62,149.12Z"/><path class="cls-7" d="M199.3,124.84c9.81-5.66,21.18-5.1,13.6-16.09-4.25-6.16-14.74-7.16-24.55-1.5s-14.72,15.52-11,22S189.49,130.5,199.3,124.84Z"/><path class="cls-7" d="M100.69,124.84c-9.81-5.66-21.18-5.1-13.6-16.09,4.25-6.16,14.74-7.16,24.55-1.5s14.72,15.52,11,22S110.5,130.5,100.69,124.84Z"/><path class="cls-7" d="M205.88,221.8a47.46,47.46,0,0,1-6.09,2.47h0a35.35,35.35,0,0,1-6.43,1.5,20.69,20.69,0,0,1-6.3-.11,18.29,18.29,0,0,1-2.84-.79c-1-.4-2-.79-3-1.24-1.47-.6-2.88-1.24-4.37-1.93a75.49,75.49,0,0,0-8.19-3.37,35.7,35.7,0,0,0-7.48-1.61,41.44,41.44,0,0,0-5.47-.18H151a41.82,41.82,0,0,0-5.51.18,35.47,35.47,0,0,0-7.47,1.61,74.85,74.85,0,0,0-8.2,3.37c-1.49.69-2.9,1.33-4.39,2-1,.43-2,.82-3,1.21a17.36,17.36,0,0,1-2.85.8,20.63,20.63,0,0,1-6.29.11,35.26,35.26,0,0,1-6.44-1.5,49,49,0,0,1-6.09-2.47l-8.6-4.13,7.34,6.09a27.18,27.18,0,0,0,5.74,3.53,29.59,29.59,0,0,0,7.13,2.31,24.65,24.65,0,0,0,8.3.21,21.08,21.08,0,0,0,4-1c1.07-.39,2.2-.81,3.32-1.28,2.14-.93,4.21-1.93,6.15-2.88,2.11-1.07,4-2,5.81-2.71a36.6,36.6,0,0,1,6.26-1.92c.9-.19,5-.34,7.35-.38s6,.19,6.91.38a36.15,36.15,0,0,1,6.24,1.92c1.81.75,3.72,1.64,5.84,2.72s4.12,2,6.14,2.87c1.11.47,2.24.89,3.32,1.29a21.5,21.5,0,0,0,4,1,24.11,24.11,0,0,0,3.52.26,25.37,25.37,0,0,0,4.77-.46,30.22,30.22,0,0,0,7.15-2.32,27.35,27.35,0,0,0,5.73-3.53l7.33-6.09Z"/><path class="cls-8" d="M151.83,28C86.92,28,59.49,89.24,59.49,89.24a3.17,3.17,0,0,0,.93,1.4l.9-1.4a863.36,863.36,0,0,1,179.19,0l.56.82a7.23,7.23,0,0,1,.44-.82S216.74,28,151.83,28Z"/><path class="cls-9" d="M151.83,28C86.92,28,59.49,89.24,59.49,89.24a3.17,3.17,0,0,0,.93,1.4l.9-1.4a863.36,863.36,0,0,1,179.19,0l.56.82a7.23,7.23,0,0,1,.44-.82S216.74,28,151.83,28Z"/><path class="cls-10" d="M256.45,85.59a9.31,9.31,0,0,0-2-1.29,78.13,78.13,0,0,1,9.83-.25s-2.09-5-12.24-7.34-16,12.71-16,12.71a20.46,20.46,0,0,1,1.95-1.1c-1,.73-1.57,1.24-1.57,1.24,11.85-1.08,27.6,8.17,27.6,8.17S264.4,92.35,256.45,85.59Z"/><path class="cls-11" d="M249.88,77.46a8.53,8.53,0,0,1,1.93.22c6.06,1.42,9.1,3.8,10.49,5.32h-.82c-1.64,0-4.2,0-7.11.3l-3.63.31L254,85.2a8.59,8.59,0,0,1,1.79,1.16c4.74,4,6.35,7.52,6.9,9.52-4.19-2.23-15-7.41-24.33-7.41h-.24l-.35-.56c1.74-3.45,6-10.45,12.09-10.45h0m0-1c-8.82,0-13.88,13-13.88,13a20.46,20.46,0,0,1,1.95-1.1c-1,.73-1.57,1.24-1.57,1.24.66-.06,1.32-.09,2-.09,11.54,0,25.6,8.26,25.6,8.26s.42-5.38-7.53-12.14a9.31,9.31,0,0,0-2-1.29c2.79-.24,5.26-.3,7-.3s2.8,0,2.8,0-2.09-5-12.24-7.34a9.62,9.62,0,0,0-2.16-.25Z"/><path class="cls-12" d="M256.45,85.59a9.31,9.31,0,0,0-2-1.29,78.13,78.13,0,0,1,9.83-.25s-2.09-5-12.24-7.34-16,12.71-16,12.71a20.46,20.46,0,0,1,1.95-1.1c-1,.73-1.57,1.24-1.57,1.24,11.85-1.08,27.6,8.17,27.6,8.17S264.4,92.35,256.45,85.59Z"/><path class="cls-11" d="M249.88,77.46a8.53,8.53,0,0,1,1.93.22c6.06,1.42,9.1,3.8,10.49,5.32h-.82c-1.64,0-4.2,0-7.11.3l-3.63.31L254,85.2a8.59,8.59,0,0,1,1.79,1.16c4.74,4,6.35,7.52,6.9,9.52-4.19-2.23-15-7.41-24.33-7.41h-.24l-.35-.56c1.74-3.45,6-10.45,12.09-10.45h0m0-1c-8.82,0-13.88,13-13.88,13a20.46,20.46,0,0,1,1.95-1.1c-1,.73-1.57,1.24-1.57,1.24.66-.06,1.32-.09,2-.09,11.54,0,25.6,8.26,25.6,8.26s.42-5.38-7.53-12.14a9.31,9.31,0,0,0-2-1.29c2.79-.24,5.26-.3,7-.3s2.8,0,2.8,0-2.09-5-12.24-7.34a9.62,9.62,0,0,0-2.16-.25Z"/><ellipse class="cls-10" cx="238.68" cy="86.04" rx="5.49" ry="5.94" transform="translate(2.27 178.11) rotate(-41.1)"/><path class="cls-11" d="M238.22,81.29h0a5.11,5.11,0,0,1,3.84,1.8,4.74,4.74,0,0,1-.13,6.67,4.21,4.21,0,0,1-2.8,1A5.1,5.1,0,0,1,235.3,89,5.17,5.17,0,0,1,234,85.45a4.29,4.29,0,0,1,1.44-3.14,4.17,4.17,0,0,1,2.79-1m0-1a5.19,5.19,0,0,0-3.45,1.27,5.73,5.73,0,0,0-.23,8.08,6.14,6.14,0,0,0,4.59,2.15,5.18,5.18,0,0,0,3.45-1.28,5.71,5.71,0,0,0,.23-8.08,6.13,6.13,0,0,0-4.59-2.14Z"/><circle class="cls-13" cx="103.74" cy="122.05" r="22.4"/><path class="cls-14" d="M103.74,100.57a21.48,21.48,0,1,1-21.48,21.48,21.5,21.5,0,0,1,21.48-21.48m0-1.83a23.31,23.31,0,1,0,23.31,23.31,23.3,23.3,0,0,0-23.31-23.31Z"/><path class="cls-14" d="M100.94,127.46c4.18,7.39,8.76,7.48,6.12,9s-11.49,3.83-15.67-3.56-2.1-21.71.54-23.2S96.76,120.08,100.94,127.46Z"/><circle class="cls-13" cx="194.25" cy="122.05" r="22.4"/><path class="cls-14" d="M194.25,100.57a21.48,21.48,0,1,1-21.49,21.48,21.5,21.5,0,0,1,21.49-21.48m0-1.83a23.31,23.31,0,1,0,23.31,23.31,23.31,23.31,0,0,0-23.31-23.31Z"/><path class="cls-14" d="M191.45,127.46c4.18,7.39,8.76,7.48,6.12,9s-11.49,3.83-15.67-3.56-2.1-21.71.53-23.2S187.27,120.08,191.45,127.46Z"/><path class="cls-15" d="M127.05,121.59c14.69-5.84,29.32-5.89,43.88,0"/></svg>