<svg xmlns="http://www.w3.org/2000/svg" viewBox="0 0 67.74 68.85"><defs><style>.cls-1{fill:none;stroke:#000;stroke-linejoin:round;stroke-width:4px;}</style></defs><g id="Calque_2" data-name="Calque 2"><g id="Calque_1-2" data-name="Calque 1"><path class="cls-1" d="M45,53.23l3-3.14a3.65,3.65,0,0,1,.24-.31c.09-.09.2-.16.3-.25l3-3.14a4,4,0,0,1,5.72-.09h0A4,4,0,0,1,57.4,52l-.53.55L64.53,60A4,4,0,0,1,59,65.73L51.3,58.31l-.53.55A4,4,0,1,1,45,53.23Z"/><path class="cls-1" d="M45.64,43.25,9,3a15.87,15.87,0,0,0-.25,10.5c1.84,5.89,3,8.29,8.8,14.19S39.09,45.6,39.09,45.6l2.44,1.71Z"/><path class="cls-1" d="M22.78,53.23l-3.05-3.14a3.65,3.65,0,0,0-.24-.31c-.09-.09-.2-.16-.3-.25l-3-3.14a4,4,0,0,0-5.72-.09h0A4,4,0,0,0,10.34,52l.53.55L3.22,60a4,4,0,0,0,5.56,5.75l7.66-7.42.53.55a4,4,0,1,0,5.81-5.63Z"/><path class="cls-1" d="M24.49,40.53l-3.38,3.72,4.1,4.06,2.44-1.71S28.46,46,29.77,45Z"/><path class="cls-1" d="M59.73,2,37.48,26.45l6.4,6.8c2.88-2.41,5.55-4.76,7.3-6.56,5.76-5.9,7-8.3,8.8-14.19A15.8,15.8,0,0,0,59.73,2Z"/></g></g></svg>